<svg version="1.1" xmlns="http://www.w3.org/2000/svg" style="display: block;" viewBox="0 0 2048 784" width="1215" height="465" preserveAspectRatio="none">
<defs>
	<linearGradient id="Gradient1" gradientUnits="userSpaceOnUse" x1="1112.11" y1="658.922" x2="1134.01" y2="652.618">
		<stop class="stop0" offset="0" stop-opacity="1" stop-color="rgb(0,0,0)"/>
		<stop class="stop1" offset="1" stop-opacity="1" stop-color="rgb(13,15,28)"/>
	</linearGradient>
</defs>
<path transform="translate(0,0)" fill="rgb(219,224,224)" d="M 0 0 L 2048 0 L 2048 784 L 0 784 L 0 0 z"/>
<path transform="translate(0,0)" fill="rgb(254,254,254)" d="M 8.29492 11.9689 C 85.3124 11.1703 163.593 11.8948 240.687 11.8937 L 691.286 11.89 L 2043.01 11.8937 L 2042.91 780.847 L 8.33078 780.898 L 8.29492 11.9689 z"/>
<path transform="translate(0,0)" fill="rgb(126,124,125)" d="M 64.9258 44.3247 L 1298.27 44.336 L 1712.36 44.3208 C 1781.14 44.3184 1855.03 42.8695 1923.22 44.4319 L 1923.19 545.369 C 1923.19 565.518 1923.99 718.765 1922.4 722.257 L 1921.29 723.268 C 1903.91 723.916 1882.12 723.345 1864.34 723.346 L 1754 723.426 L 1749.01 723.408 C 1715.86 722.698 1680.16 723.365 1646.86 723.366 L 1446.2 723.377 L 741.985 723.264 L 740.012 723.705 C 720.216 722.497 692.54 723.313 672.259 723.318 C 639.281 723.326 605.001 722.871 572.114 723.569 L 566.895 723.345 L 462.27 723.333 C 444.525 723.329 421.307 722.667 403.899 723.692 L 399.992 723.411 C 346.289 722.1 288.225 723.557 233.976 723.266 L 231.136 723.449 C 191.15 722.36 149.005 724.159 108.882 723.299 C 101.669 723.145 70.2259 723.949 65.7275 723.206 L 64.9303 720.881 C 63.7531 708.008 65.0141 677.003 64.8291 662.505 C 64.3784 627.188 63.5834 588.862 64.9042 553.676 C 65.3679 447.632 65.2117 341.587 64.4355 235.545 C 64.4335 175.31 64.9901 115.063 65.0669 54.8292 C 65.0713 51.331 65.0874 47.8187 64.9258 44.3247 z"/>
<path transform="translate(0,0)" fill="rgb(254,254,254)" d="M 738.842 550.237 L 740.942 549.983 C 744.311 551.361 901.259 552.031 909.573 550.28 C 920.331 551.585 948.165 550.876 959.994 550.871 L 1058.74 550.813 C 1064.36 550.904 1069.97 551.093 1075.58 551.377 L 1075.02 552.963 L 1075.86 553.751 L 1076 720.659 L 1074.96 721.158 C 1030.72 720.382 986.245 721.345 941.98 720.972 C 931.462 720.883 920.319 720.751 909.856 721.323 L 907.621 720.579 L 906.877 721.058 C 900.942 723.421 759.501 722.013 742.414 722.002 L 741.985 723.264 L 740.012 723.705 C 720.216 722.497 692.54 723.313 672.259 723.318 C 639.281 723.326 605.001 722.871 572.114 723.569 L 572.315 721.139 C 571.072 709.674 571.179 559.115 572.224 555.31 C 572.592 553.968 573.752 553.728 574.921 553.073 C 585.612 555.932 586.029 560.682 595.066 563.65 L 596.014 562.658 C 595.474 558.177 591.368 557.892 589.986 553.107 L 586.083 551.318 C 592.922 550.265 616.63 550.78 624.882 550.791 L 705.688 550.917 C 713.328 550.928 732.443 551.364 738.842 550.237 z"/>
<path transform="translate(0,0)" fill="rgb(254,254,254)" d="M 589.986 553.107 C 603.584 553.12 735.584 552.37 738.927 554.07 C 742.043 583.843 739.102 632.614 738.94 663.211 C 738.884 677.052 738.91 690.893 739.015 704.733 C 739.054 707.534 739.826 719.353 739.662 721.086 L 740.012 723.705 C 720.216 722.497 692.54 723.313 672.259 723.318 C 639.281 723.326 605.001 722.871 572.114 723.569 L 572.315 721.139 C 571.072 709.674 571.179 559.115 572.224 555.31 C 572.592 553.968 573.752 553.728 574.921 553.073 C 585.612 555.932 586.029 560.682 595.066 563.65 L 596.014 562.658 C 595.474 558.177 591.368 557.892 589.986 553.107 z"/>
<path transform="translate(0,0)" fill="rgb(126,124,125)" d="M 739.662 721.086 L 740.012 723.705 C 720.216 722.497 692.54 723.313 672.259 723.318 C 639.281 723.326 605.001 722.871 572.114 723.569 L 572.315 721.139 L 572.972 721.207 C 621.748 720.068 670.969 721.593 719.785 721.011 C 725.884 720.939 732.841 720.805 738.885 721.133 L 739.662 721.086 z"/>
<path transform="translate(0,0)" fill="rgb(219,224,224)" d="M 572.972 721.207 C 621.748 720.068 670.969 721.593 719.785 721.011 C 725.884 720.939 732.841 720.805 738.885 721.133 C 736.12 722.394 578.025 722.638 572.972 721.207 z"/>
<path transform="translate(0,0)" fill="rgb(254,254,254)" d="M 909.888 553.241 C 963.462 553.099 1021.85 554.353 1075.02 552.963 L 1075.86 553.751 L 1076 720.659 L 1074.96 721.158 C 1030.72 720.382 986.245 721.345 941.98 720.972 C 931.462 720.883 920.319 720.751 909.856 721.323 L 907.621 720.579 C 906.956 702.679 907.516 681.283 907.519 663.171 L 907.543 553.262 L 909.888 553.241 z"/>
<path transform="translate(0,0)" fill="rgb(160,160,162)" d="M 909.888 553.241 L 909.856 721.323 L 907.621 720.579 C 906.956 702.679 907.516 681.283 907.519 663.171 L 907.543 553.262 L 909.888 553.241 z"/>
<path transform="translate(0,0)" fill="rgb(219,224,224)" d="M 1075.02 552.963 L 1075.86 553.751 L 1076 720.659 L 1074.96 721.158 C 1075.84 665.849 1075.04 608.438 1075.02 552.963 z"/>
<path transform="translate(0,0)" fill="rgb(2,1,2)" d="M 738.842 550.237 L 740.942 549.983 C 744.311 551.361 901.259 552.031 909.573 550.28 C 920.331 551.585 948.165 550.876 959.994 550.871 L 1058.74 550.813 C 1064.36 550.904 1069.97 551.093 1075.58 551.377 L 1075.02 552.963 C 1021.85 554.353 963.462 553.099 909.888 553.241 L 907.543 553.262 C 892.514 552.512 871.468 553.169 856.068 553.176 C 817.897 553.325 779.725 553.27 741.555 553.012 L 740.318 555.312 L 738.927 554.07 C 735.584 552.37 603.584 553.12 589.986 553.107 L 586.083 551.318 C 592.922 550.265 616.63 550.78 624.882 550.791 L 705.688 550.917 C 713.328 550.928 732.443 551.364 738.842 550.237 z"/>
<path transform="translate(0,0)" fill="rgb(92,91,94)" d="M 738.927 554.07 L 740.318 555.312 L 741.555 553.012 C 743.264 607.712 739.382 667.478 742.091 720.884 L 742.414 722.002 L 741.985 723.264 L 740.012 723.705 L 739.662 721.086 C 739.826 719.353 739.054 707.534 739.015 704.733 C 738.91 690.893 738.884 677.052 738.94 663.211 C 739.102 632.614 742.043 583.843 738.927 554.07 z"/>
<path transform="translate(0,0)" fill="rgb(219,224,224)" d="M 742.091 720.884 C 796.398 721.27 852.982 719.936 906.877 721.058 C 900.942 723.421 759.501 722.013 742.414 722.002 L 742.091 720.884 z"/>
<path transform="translate(0,0)" fill="rgb(254,254,254)" d="M 1075.36 352.712 L 1077.19 352.165 C 1077.3 361.888 1077.13 373.313 1077.59 382.89 L 1190.27 382.82 C 1198.67 382.817 1235.4 382.216 1240.77 383.797 L 1241.12 385.408 C 1240.38 387.105 1087.37 541.356 1078.17 549.083 L 1077.94 550.591 L 1075.58 551.377 C 1069.97 551.093 1064.36 550.904 1058.74 550.813 L 959.994 550.871 C 948.165 550.876 920.331 551.585 909.573 550.28 C 910.436 538.426 909.858 518.266 909.855 505.602 L 909.712 419.471 L 905.954 420.887 L 903.936 421.277 L 902.3 418.852 L 902.741 416.776 L 908.175 413.529 L 909.598 413.735 L 909.574 385.034 C 923.834 384.976 966.964 383.944 979.664 385.742 L 980.132 385.506 C 981.087 385.014 982.117 384.294 983.023 383.695 L 984.526 384.165 L 985.674 387.163 C 987.111 384.965 987.543 384.868 989.962 384.081 C 991.493 386.455 992.836 389.234 995.421 390.093 C 998.222 388.575 997.387 389.04 998.857 385.495 L 996.216 382.872 L 1075.49 382.848 L 1075.36 352.712 z"/>
<path transform="translate(0,0)" fill="rgb(254,254,254)" d="M 1075.36 352.712 L 1077.19 352.165 C 1077.3 361.888 1077.13 373.313 1077.59 382.89 L 1190.27 382.82 C 1198.67 382.817 1235.4 382.216 1240.77 383.797 L 1241.12 385.408 C 1240.38 387.105 1087.37 541.356 1078.17 549.083 C 1078.15 541.248 1084.55 535.717 1086.92 526.537 L 1085.74 525.648 C 1082.31 527.218 1080.39 529.87 1077.93 532.707 C 1075.54 534.682 1076.08 535.219 1075.12 538.896 C 1076.25 528.306 1075.52 499.144 1075.52 487.46 L 1075.49 385.092 L 1026.66 384.931 C 1019.05 384.915 1005.77 384.521 998.857 385.495 L 996.216 382.872 L 1075.49 382.848 L 1075.36 352.712 z"/>
<path transform="translate(0,0)" fill="rgb(126,124,125)" d="M 1075.36 352.712 L 1077.19 352.165 C 1077.3 361.888 1077.13 373.313 1077.59 382.89 L 1190.27 382.82 C 1198.67 382.817 1235.4 382.216 1240.77 383.797 L 1241.12 385.408 C 1222.64 384.461 1200.84 385.034 1181.97 385.035 L 1077.51 385.086 C 1077.5 399.659 1076.34 528.515 1077.93 532.707 C 1075.54 534.682 1076.08 535.219 1075.12 538.896 C 1076.25 528.306 1075.52 499.144 1075.52 487.46 L 1075.49 385.092 L 1026.66 384.931 C 1019.05 384.915 1005.77 384.521 998.857 385.495 L 996.216 382.872 L 1075.49 382.848 L 1075.36 352.712 z"/>
<path transform="translate(0,0)" fill="rgb(81,152,173)" d="M 1077.93 532.707 C 1080.39 529.87 1082.31 527.218 1085.74 525.648 L 1086.92 526.537 C 1084.55 535.717 1078.15 541.248 1078.17 549.083 L 1077.94 550.591 L 1075.58 551.377 C 1069.97 551.093 1064.36 550.904 1058.74 550.813 C 1062.81 550.608 1065.92 550.296 1069.92 549.798 L 1070.06 548.976 C 1065.18 547.889 1054.01 546.235 1050.72 543.962 L 1051.57 542.905 C 1058.1 540.714 1062.22 541.372 1069.13 541.832 C 1067.01 537.795 1064.57 535.423 1068.26 532.006 C 1072.64 533.785 1071.23 536.531 1075.12 538.896 C 1076.08 535.219 1075.54 534.682 1077.93 532.707 z"/>
<path transform="translate(0,0)" fill="rgb(44,54,114)" d="M 909.598 413.735 C 913.813 411.904 914.36 410.887 918.526 411.399 L 918.916 412.994 C 916.153 417.363 914.852 417.138 909.712 419.471 L 905.954 420.887 L 903.936 421.277 L 902.3 418.852 L 902.741 416.776 L 908.175 413.529 L 909.598 413.735 z"/>
<path transform="translate(0,0)" fill="rgb(44,54,114)" d="M 979.664 385.742 L 980.132 385.506 C 981.087 385.014 982.117 384.294 983.023 383.695 L 984.526 384.165 L 985.674 387.163 C 983.578 391.154 973.965 393.963 969.174 392.919 L 968.782 391.44 C 971.379 388.016 975.544 387.133 979.664 385.742 z"/>
<path transform="translate(0,0)" fill="rgb(81,152,173)" d="M 1020.07 435.523 C 1024.98 437.67 1030.8 449.311 1028.89 454.836 C 1027.89 454.478 1026.43 453.701 1025.42 453.206 C 1021.88 448.275 1016.48 441.167 1020.07 435.523 z"/>
<path transform="translate(0,0)" fill="rgb(81,152,173)" d="M 1051.32 499.43 L 1054.25 500.65 C 1057.74 505.628 1063.37 512.927 1060.13 518.624 C 1054.99 517.003 1049 504.793 1051.32 499.43 z"/>
<path transform="translate(0,0)" fill="rgb(81,152,173)" d="M 1035.42 467.389 L 1038.05 468.366 C 1041.82 473.16 1046.81 480.614 1044.28 486.57 C 1038.81 484.051 1032.8 473.118 1035.42 467.389 z"/>
<path transform="translate(0,0)" fill="rgb(81,152,173)" d="M 1004.77 403.328 C 1008.25 405.2 1012.11 414.049 1013.16 417.803 C 1014 420.783 1013.25 420.896 1011.71 423.267 C 1007.73 420.669 1003.42 411.756 1002.64 407.039 C 1002.39 405.512 1003.77 404.523 1004.77 403.328 z"/>
<path transform="translate(0,0)" fill="rgb(44,54,114)" d="M 948.549 397.925 C 951.548 397.685 950.414 397.439 952.972 398.66 L 952.458 400.686 C 948.461 404.026 944.08 405.442 939.244 407.382 L 937.005 407.716 C 935.034 405.664 935.4 406.63 935.37 404.135 C 938.02 401.548 944.782 399.37 948.549 397.925 z"/>
<path transform="translate(0,0)" fill="rgb(254,254,254)" d="M 1580.98 552.998 L 1585.98 553.013 C 1585.11 607.865 1587.28 667.614 1585.44 721.353 C 1593.18 722.813 1621.7 721.856 1631.03 722.057 C 1669.62 722.888 1710.64 720.922 1749.03 722.049 L 1749.01 723.408 C 1715.86 722.698 1680.16 723.365 1646.86 723.366 L 1446.2 723.377 L 741.985 723.264 L 742.414 722.002 C 759.501 722.013 900.942 723.421 906.877 721.058 L 907.621 720.579 L 909.856 721.323 C 920.319 720.751 931.462 720.883 941.98 720.972 C 986.245 721.345 1030.72 720.382 1074.96 721.158 L 1076 720.659 L 1077.24 720.866 C 1080.62 721.796 1239.65 722.418 1245.4 721.105 L 1247.12 720.612 L 1248.2 721.114 L 1353.22 720.999 C 1371.5 721.007 1395.01 720.333 1412.94 721.14 L 1412.89 721.746 L 1415.26 720.773 C 1414.69 665.268 1415.23 608.676 1415.3 553.093 L 1580.98 552.998 z"/>
<path transform="translate(0,0)" fill="rgb(126,124,125)" d="M 1412.89 721.746 L 1415.26 720.773 L 1416.16 721.065 L 1535.07 720.97 C 1541.71 720.967 1578.43 720.512 1583.33 721.721 L 1585.44 721.353 C 1593.18 722.813 1621.7 721.856 1631.03 722.057 C 1669.62 722.888 1710.64 720.922 1749.03 722.049 L 1749.01 723.408 C 1715.86 722.698 1680.16 723.365 1646.86 723.366 L 1446.2 723.377 L 741.985 723.264 L 742.414 722.002 C 759.501 722.013 900.942 723.421 906.877 721.058 L 907.621 720.579 L 909.856 721.323 C 920.319 720.751 931.462 720.883 941.98 720.972 C 986.245 721.345 1030.72 720.382 1074.96 721.158 L 1076 720.659 L 1077.24 720.866 C 1080.62 721.796 1239.65 722.418 1245.4 721.105 L 1247.12 720.612 L 1248.2 721.114 L 1353.22 720.999 C 1371.5 721.007 1395.01 720.333 1412.94 721.14 L 1412.89 721.746 z"/>
<path transform="translate(0,0)" fill="rgb(219,224,224)" d="M 1416.16 721.065 L 1535.07 720.97 C 1541.71 720.967 1578.43 720.512 1583.33 721.721 C 1572.05 722.935 1418.97 722.186 1416.16 721.065 z"/>
<path transform="translate(0,0)" fill="rgb(219,224,224)" d="M 909.856 721.323 C 920.319 720.751 931.462 720.883 941.98 720.972 C 986.245 721.345 1030.72 720.382 1074.96 721.158 C 1073.33 721.836 917.739 723.242 909.856 721.323 z"/>
<path transform="translate(0,0)" fill="rgb(219,224,224)" d="M 1248.2 721.114 L 1353.22 720.999 C 1371.5 721.007 1395.01 720.333 1412.94 721.14 L 1412.89 721.746 C 1399.57 722.784 1253.01 722.725 1248.2 721.114 z"/>
<path transform="translate(0,0)" fill="rgb(160,160,162)" d="M 1580.98 552.998 L 1585.98 553.013 C 1585.11 607.865 1587.28 667.614 1585.44 721.353 L 1583.33 721.721 C 1582.37 685.694 1583.7 648.612 1583.18 612.529 C 1582.91 593.894 1584.49 570.855 1580.98 552.998 z"/>
<path transform="translate(0,0)" fill="rgb(254,254,254)" d="M 1077.55 215.104 L 1192.98 214.916 C 1201.14 214.916 1239.4 214.427 1245.43 215.419 L 1247.18 215.513 C 1247.48 225.677 1246.48 271.813 1248.34 277.502 L 1250.45 280.945 C 1249.59 282.932 1248.73 283.379 1247.04 284.639 C 1248.15 314.52 1247.34 349.083 1247.43 379.308 L 1245.7 380.492 C 1243.81 383.356 1244.51 382.493 1240.77 383.797 C 1235.4 382.216 1198.67 382.817 1190.27 382.82 L 1077.59 382.89 C 1077.13 373.313 1077.3 361.888 1077.19 352.165 L 1075.36 352.712 C 1072.37 354.027 1070.99 355.118 1068.1 353.359 L 1068.37 351.116 C 1070.19 348.484 1072.23 348.269 1075.37 347.375 L 1076.11 346.043 C 1075.78 302.571 1076.38 258.975 1075.84 215.512 L 1077.55 215.104 z"/>
<path transform="translate(0,0)" fill="rgb(160,160,162)" d="M 1075.84 215.512 L 1077.55 215.104 C 1077.44 257.833 1076.56 303.975 1077.54 346.372 L 1076.11 346.043 C 1075.78 302.571 1076.38 258.975 1075.84 215.512 z"/>
<path transform="translate(0,0)" fill="rgb(160,160,162)" d="M 1245.57 284.61 L 1247.04 284.639 C 1248.15 314.52 1247.34 349.083 1247.43 379.308 L 1245.7 380.492 C 1245.28 348.724 1245.57 316.418 1245.57 284.61 z"/>
<path transform="translate(0,0)" fill="rgb(160,160,162)" d="M 1245.43 215.419 L 1247.18 215.513 C 1247.48 225.677 1246.48 271.813 1248.34 277.502 L 1245.9 278.184 C 1244.8 258.485 1245.79 235.653 1245.43 215.419 z"/>
<path transform="translate(0,0)" fill="rgb(44,54,114)" d="M 1077.54 346.372 C 1081.33 344.832 1081.07 344.231 1084.46 344.894 C 1084.56 347.413 1084.32 346.934 1082.72 349.45 L 1077.19 352.165 L 1075.36 352.712 C 1072.37 354.027 1070.99 355.118 1068.1 353.359 L 1068.37 351.116 C 1070.19 348.484 1072.23 348.269 1075.37 347.375 L 1076.11 346.043 L 1077.54 346.372 z"/>
<path transform="translate(0,0)" fill="rgb(44,54,114)" d="M 1245.9 278.184 L 1248.34 277.502 L 1250.45 280.945 C 1249.59 282.932 1248.73 283.379 1247.04 284.639 L 1245.57 284.61 C 1242.11 285.953 1238.26 287.21 1234.73 288.442 L 1232.89 286.998 L 1233.09 285.08 C 1236.32 281.668 1241.76 281.287 1245.9 278.184 z"/>
<path transform="translate(0,0)" fill="rgb(44,54,114)" d="M 1115.71 330.988 C 1117.41 331.646 1116.91 331.473 1118.2 333.078 L 1117.66 334.858 C 1113.97 337.801 1106.88 340.19 1102.24 341.997 C 1100.39 339.324 1100.47 340.308 1100.95 337.67 C 1104.25 334.634 1111.25 332.591 1115.71 330.988 z"/>
<path transform="translate(0,0)" fill="rgb(44,54,114)" d="M 1148 317.975 C 1149.91 318.143 1149.34 318.116 1151.11 319.48 L 1150.46 321.607 C 1146.39 324.495 1140.91 326.389 1136.21 328.269 C 1135.24 327.97 1134.39 327.21 1133.52 326.586 L 1133.62 324.79 C 1136.81 322.054 1143.82 319.643 1148 317.975 z"/>
<path transform="translate(0,0)" fill="rgb(44,54,114)" d="M 1215.11 291.115 C 1216.43 292.134 1216.41 292.776 1216.89 294.476 C 1215.12 297.508 1205.48 300.543 1201.8 301.952 C 1201.21 301.622 1200.36 300.535 1199.86 299.965 L 1200.17 298.141 C 1203.54 295.329 1210.76 292.846 1215.11 291.115 z"/>
<path transform="translate(0,0)" fill="rgb(44,54,114)" d="M 1181.34 304.869 C 1182.72 304.994 1183.16 305.65 1184.18 306.614 L 1183.75 308.283 C 1180.51 310.863 1173.56 313.311 1169.45 314.961 C 1168.23 314.943 1167.54 314.161 1166.54 313.38 L 1167.13 311.26 C 1171.08 308.379 1176.67 306.619 1181.34 304.869 z"/>
<path transform="translate(0,0)" fill="rgb(254,254,254)" d="M 1077.65 553.313 C 1131.91 552.033 1189.96 553.072 1244.5 553.082 C 1246.11 573.447 1246.21 595.214 1245.8 615.72 C 1245.11 650.526 1246.91 686.421 1245.4 721.105 C 1239.65 722.418 1080.62 721.796 1077.24 720.866 L 1076 720.659 L 1075.86 553.751 L 1077.65 553.313 z"/>
<path transform="translate(0,0)" fill="rgb(160,160,162)" d="M 1077.65 553.313 C 1076.42 608.682 1078.76 665.65 1077.24 720.866 L 1076 720.659 L 1075.86 553.751 L 1077.65 553.313 z"/>
<path transform="translate(0,0)" fill="url(#Gradient1)" d="M 1116.14 640.47 C 1123.07 635.663 1132.24 630.787 1139.81 637.228 C 1144.87 647.638 1133.33 651.883 1125.04 653.194 C 1122.77 653.607 1122.38 653.672 1120.36 654.781 C 1118.83 658.198 1118.86 656.98 1119.22 660.532 C 1125.94 669.011 1136.76 661.583 1143.77 657.523 C 1121.32 684.513 1096.06 664.826 1116.14 640.47 z"/>
<path transform="translate(0,0)" fill="rgb(2,1,2)" d="M 1116.14 640.47 C 1123.07 635.663 1132.24 630.787 1139.81 637.228 C 1144.87 647.638 1133.33 651.883 1125.04 653.194 L 1123.73 651.781 L 1121.23 651.57 L 1120.26 650.177 L 1121.65 644.645 L 1120.53 641.745 L 1116.14 640.47 z"/>
<path transform="translate(0,0)" fill="rgb(219,224,224)" d="M 1121.65 644.645 C 1123.6 641.068 1124.12 639.531 1127.67 637.72 C 1131.27 637.376 1130.13 636.947 1132.65 638.92 C 1134.58 646.039 1129.26 649.139 1123.73 651.781 L 1121.23 651.57 L 1120.26 650.177 L 1121.65 644.645 z"/>
<path transform="translate(0,0)" fill="rgb(28,13,19)" d="M 1169.26 582.876 C 1173.15 583.172 1174.58 583.11 1178.02 584.841 C 1180.12 587.455 1179.65 586.265 1179.62 589.726 C 1178.62 591.561 1172.53 600.288 1173.2 601.524 C 1182.02 617.626 1172.03 627.49 1155.53 624.421 C 1154.55 628.92 1153.93 636.331 1149.6 638.535 C 1147.5 635.546 1158.4 597.428 1160.88 591.144 C 1162.22 587.766 1165.31 584.611 1169.01 583.592 C 1162.85 590.813 1160.4 595.471 1159.77 605.379 C 1159.69 605.539 1159.6 605.699 1159.52 605.859 C 1159.27 612.413 1151.68 621.415 1160.58 623.736 C 1172.78 621.556 1182.71 603.662 1163.99 601.154 C 1170.3 598.796 1178.18 597.934 1176.17 587.537 C 1174.31 584.495 1172.67 584.188 1169.26 582.876 z"/>
<path transform="translate(0,0)" fill="rgb(44,54,114)" d="M 1161.88 661.088 L 1163.22 661.559 C 1164.68 665.095 1163.03 688.368 1164.01 693.864 C 1164.35 695.819 1166.8 696.382 1169.09 697.523 C 1165.37 699.182 1158.62 698.463 1154.28 698.352 L 1153.44 697.291 C 1155.76 696.37 1156.19 696.236 1158 694.399 C 1160.85 686.799 1159.43 676.061 1158.74 667.904 C 1156.88 666.066 1157.03 666.668 1153.6 666.558 L 1153.5 665.657 L 1161.88 661.088 z"/>
<path transform="translate(0,0)" fill="rgb(254,254,254)" d="M 234.182 553.095 L 402.037 553.089 L 402.038 721.189 L 400.026 722.086 L 399.992 723.411 C 346.289 722.1 288.225 723.557 233.976 723.266 L 234.163 720.859 C 234.16 665.274 233.547 608.58 234.182 553.095 z"/>
<path transform="translate(0,0)" fill="rgb(126,124,125)" d="M 234.163 720.859 L 235.158 721.173 C 240.245 722.794 271.506 721.913 278.699 722.068 C 318.383 722.923 360.559 720.907 400.026 722.086 L 399.992 723.411 C 346.289 722.1 288.225 723.557 233.976 723.266 L 234.163 720.859 z"/>
<path transform="translate(0,0)" fill="rgb(219,224,224)" d="M 235.158 721.173 C 268.978 720.909 302.799 720.852 336.62 721.002 C 356.71 721.012 382.314 720.285 402.038 721.189 L 400.026 722.086 C 360.559 720.907 318.383 722.923 278.699 722.068 C 271.506 721.913 240.245 722.794 235.158 721.173 z"/>
<path transform="translate(0,0)" fill="rgb(254,254,254)" d="M 1753.15 553.079 L 1920.9 553.1 L 1921.04 663.62 C 1921.04 680.717 1921.8 705.268 1920.9 721.866 L 1921.29 723.268 C 1903.91 723.916 1882.12 723.345 1864.34 723.346 L 1754 723.426 L 1753.99 721.715 C 1751.72 715.874 1753.11 569.807 1753.15 553.079 z"/>
<path transform="translate(0,0)" fill="rgb(126,124,125)" d="M 1753.99 721.715 L 1856.33 721.591 C 1876.9 721.599 1900.53 721.065 1920.9 721.866 L 1921.29 723.268 C 1903.91 723.916 1882.12 723.345 1864.34 723.346 L 1754 723.426 L 1753.99 721.715 z"/>
<path transform="translate(0,0)" fill="rgb(254,254,254)" d="M 570.107 552.864 L 574.921 553.073 C 573.752 553.728 572.592 553.968 572.224 555.31 C 571.179 559.115 571.072 709.674 572.315 721.139 L 572.114 723.569 L 566.895 723.345 L 462.27 723.333 C 444.525 723.329 421.307 722.667 403.899 723.692 L 404.163 720.853 L 404.168 553.094 C 458.427 553.113 516.129 554.148 570.107 552.864 z"/>
<path transform="translate(0,0)" fill="rgb(126,124,125)" d="M 570.107 552.864 L 574.921 553.073 C 573.752 553.728 572.592 553.968 572.224 555.31 C 571.179 559.115 571.072 709.674 572.315 721.139 L 572.114 723.569 L 566.895 723.345 L 566.599 722.148 L 569.8 721.193 C 571.297 667.549 569.888 607.225 570.107 552.864 z"/>
<path transform="translate(0,0)" fill="rgb(126,124,125)" d="M 404.163 720.853 L 405.146 721.153 C 409.859 722.689 438.183 722.08 445.28 722.075 L 524.319 722.014 C 537.156 722.003 554.062 721.521 566.599 722.148 L 566.895 723.345 L 462.27 723.333 C 444.525 723.329 421.307 722.667 403.899 723.692 L 404.163 720.853 z"/>
<path transform="translate(0,0)" fill="rgb(219,224,224)" d="M 405.146 721.153 C 439.603 720.92 474.062 720.866 508.52 720.993 C 526.567 720.999 552.256 720.211 569.8 721.193 L 566.599 722.148 C 554.062 721.521 537.156 722.003 524.319 722.014 L 445.28 722.075 C 438.183 722.08 409.859 722.689 405.146 721.153 z"/>
<path transform="translate(0,0)" fill="rgb(2,1,2)" d="M 475.662 640.018 C 482.554 634.01 498.154 628.911 499.428 642.226 C 496.514 651.113 486.447 652.805 478.289 654.6 C 476.074 659.232 478.458 662.616 482.506 664.907 C 489.069 665.605 496.013 661.057 501.957 657.927 C 496.359 663.762 490.276 670.842 481.528 670.355 C 461.55 669.243 465.018 650.112 475.662 640.018 z"/>
<path transform="translate(0,0)" fill="rgb(219,224,224)" d="M 478.87 647.923 C 481.067 642.416 482.5 636.363 489.675 638.232 C 491.66 641.21 491.181 639.989 491.083 643.795 C 488.713 648.645 486.816 649.375 481.795 651.1 C 480.672 651.485 479.545 651.856 478.413 652.212 L 478.87 647.923 z"/>
<path transform="translate(0,0)" fill="rgb(52,33,51)" d="M 524.978 583.536 L 526.307 584.17 C 520.912 590.06 511.016 617.183 517.512 623.762 C 526.124 624.816 529.595 618.069 530.929 610.124 C 532.337 601.737 524.173 603.001 521.902 600.395 L 522.772 601.05 L 523.333 600.195 C 530.295 600.488 533.601 602.557 534.981 609.754 C 532.037 624.069 525.619 625.199 512.816 624.9 C 511.98 629.843 511.83 635.637 507.216 638.368 L 506.556 637.387 C 507.545 627.109 515.112 599.798 519.448 589.617 C 520.238 587.763 523.336 584.944 524.978 583.536 z"/>
<path transform="translate(0,0)" fill="rgb(92,69,74)" d="M 507.578 698.107 C 501.323 689.95 533.239 678.204 519.889 661.234 C 517.472 660.21 518.333 660.146 516.331 660.892 C 513.33 663.69 512.521 666.234 510.921 669.95 C 508.132 670.609 509.208 670.75 506.818 669.593 L 507.187 667.487 C 510.098 663.654 510.907 663.024 514.922 660.347 C 519.578 659.389 526.695 661.232 528.217 665.962 C 531.771 677.006 513.2 684.855 510.857 694.807 L 509.274 694.493 L 507.578 698.107 z"/>
<path transform="translate(0,0)" fill="rgb(2,1,2)" d="M 510.857 694.807 C 514.27 694.893 522.489 695.481 525.227 694.234 L 527.088 690.057 L 527.9 690.083 C 528.413 693.342 528.344 693.747 527.283 696.878 C 523.504 699.887 512.69 698.433 507.578 698.107 L 509.274 694.493 L 510.857 694.807 z"/>
<path transform="translate(0,0)" fill="rgb(254,254,254)" d="M 66.991 553.258 C 121.515 552.458 177.348 553.072 231.969 553.085 C 231.969 608.665 232.622 665.559 231.884 721.026 L 230.996 722.02 L 231.136 723.449 C 191.15 722.36 149.005 724.159 108.882 723.299 C 101.669 723.145 70.2259 723.949 65.7275 723.206 L 64.9303 720.881 C 63.7531 708.008 65.0141 677.003 64.8291 662.505 C 64.3784 627.188 63.5834 588.862 64.9042 553.676 L 66.991 553.258 z"/>
<path transform="translate(0,0)" fill="rgb(160,160,162)" d="M 64.9042 553.676 L 66.991 553.258 C 65.721 590.754 67.2154 629.58 66.8423 667.154 C 66.685 682.996 67.7014 705.329 66.3246 720.697 L 64.9303 720.881 C 63.7531 708.008 65.0141 677.003 64.8291 662.505 C 64.3784 627.188 63.5834 588.862 64.9042 553.676 z"/>
<path transform="translate(0,0)" fill="rgb(126,124,125)" d="M 66.3246 720.697 L 67.0628 721.224 C 71.8509 722.697 107.7 722.045 115.207 722.042 L 230.996 722.02 L 231.136 723.449 C 191.15 722.36 149.005 724.159 108.882 723.299 C 101.669 723.145 70.2259 723.949 65.7275 723.206 L 64.9303 720.881 L 66.3246 720.697 z"/>
<path transform="translate(0,0)" fill="rgb(219,224,224)" d="M 67.0628 721.224 C 120.914 720.047 177.806 720.992 231.884 721.026 L 230.996 722.02 L 115.207 722.042 C 107.7 722.045 71.8509 722.697 67.0628 721.224 z"/>
<path transform="translate(0,0)" fill="rgb(254,254,254)" d="M 1415.68 214.743 C 1463.8 212.553 1513.7 215.55 1561.98 214.345 C 1568.8 214.175 1576.59 214.192 1583.37 214.542 C 1583.37 270.016 1584.2 327.628 1583.25 382.917 L 1415.23 382.949 C 1415.26 327.928 1415.92 271.477 1415.13 216.539 L 1415.68 214.743 z"/>
<path transform="translate(0,0)" fill="rgb(254,254,254)" d="M 1415.69 46.1537 L 1583.18 46.1203 C 1584.35 98.7661 1584.04 159.675 1583.28 212.49 C 1528.62 212.49 1469.48 213.677 1415.21 212.341 L 1415.21 104.646 C 1415.19 87.3768 1414.38 62.6053 1415.69 46.1537 z"/>
<path transform="translate(0,0)" fill="rgb(2,1,2)" d="M 1452.98 125.454 C 1458.26 119.924 1464.76 118.741 1471.91 118.237 C 1475.65 118.92 1476.92 118.927 1479.47 121.621 C 1482.3 129.586 1473.2 134.309 1466.88 136.476 C 1463.87 137.214 1460.22 138.223 1457.21 138.657 C 1456.82 144.052 1456.7 145.601 1461.04 148.799 C 1467.55 150.239 1475.2 145.222 1481.63 142.48 C 1473.62 150.341 1455.39 164.868 1447.89 146.214 C 1447.17 144.415 1447.62 136.518 1447.71 134.17 C 1449.14 131.175 1451.16 128.252 1452.98 125.454 z"/>
<path transform="translate(0,0)" fill="rgb(219,224,224)" d="M 1452.98 125.454 C 1458.26 119.924 1464.76 118.741 1471.91 118.237 C 1475.65 118.92 1476.92 118.927 1479.47 121.621 C 1482.3 129.586 1473.2 134.309 1466.88 136.476 C 1463.87 137.214 1460.22 138.223 1457.21 138.657 C 1456.97 137.576 1457.18 137.077 1457.36 135.937 L 1458.94 130.503 C 1458.86 128.229 1459.07 126.476 1457.82 124.655 L 1452.98 125.454 z"/>
<path transform="translate(0,0)" fill="rgb(2,1,2)" d="M 1471.91 118.237 C 1475.65 118.92 1476.92 118.927 1479.47 121.621 C 1482.3 129.586 1473.2 134.309 1466.88 136.476 L 1467.65 132.996 C 1468.09 132.421 1468.51 131.838 1468.93 131.246 C 1471.87 127.022 1472.01 125.349 1471.12 120.353 L 1471.91 118.237 z"/>
<path transform="translate(0,0)" fill="rgb(28,13,19)" d="M 1452.98 125.454 C 1458.26 119.924 1464.76 118.741 1471.91 118.237 L 1471.12 120.353 C 1463.6 121.643 1461.67 122.86 1458.94 130.503 C 1458.86 128.229 1459.07 126.476 1457.82 124.655 L 1452.98 125.454 z"/>
<path transform="translate(0,0)" fill="rgb(52,54,53)" d="M 1467.65 132.996 L 1466.88 136.476 C 1463.87 137.214 1460.22 138.223 1457.21 138.657 C 1456.97 137.576 1457.18 137.077 1457.36 135.937 C 1461.28 135.863 1464.05 134.463 1467.65 132.996 z"/>
<path transform="translate(0,0)" fill="rgb(52,33,51)" d="M 1500 98.9105 L 1505.26 99.4245 C 1510.03 102.696 1506.48 102.408 1509.68 106.772 C 1511.94 103.734 1513.91 100.033 1517.04 99.0681 L 1517.8 99.967 C 1516.17 106.168 1508.75 110.025 1508.03 118.476 C 1509.91 122.589 1510.28 120.085 1513.51 123.402 L 1510.66 126.465 C 1505.85 124.842 1508.9 122.075 1506.39 118.748 C 1501.1 119.87 1495.31 129.774 1488.83 124.701 C 1483.78 114.25 1491.17 104.213 1500 98.9105 z"/>
<path transform="translate(0,0)" fill="rgb(254,254,254)" d="M 1501.68 99.7153 C 1514.03 105.527 1503.36 119.323 1495.26 124.363 C 1485.33 120.205 1494.43 104.185 1501.68 99.7153 z"/>
<path transform="translate(0,0)" fill="rgb(44,54,114)" d="M 1500.75 146.839 C 1502.71 152.929 1500.28 174.318 1502.03 181.247 C 1502.19 181.875 1505.35 182.955 1506.29 183.349 L 1506.55 184.352 C 1503.93 185.381 1494.92 184.872 1491.6 184.805 L 1491.42 183.952 C 1492.87 182.988 1494.22 182.201 1495.72 181.327 C 1497.71 178.356 1497.51 155.361 1495.91 152.998 L 1491.69 152.806 L 1491.85 151.985 L 1500.75 146.839 z"/>
<path transform="translate(0,0)" fill="rgb(254,254,254)" d="M 1077.51 46.1546 L 1245.49 46.1144 C 1245.48 100.643 1246.44 158.018 1245.44 212.287 C 1228.94 212.451 1081.82 213.314 1077.16 211.26 L 1077.28 206.01 C 1078.8 154.847 1077.53 97.7696 1077.51 46.1546 z"/>
<path transform="translate(0,0)" fill="rgb(254,254,254)" d="M 1585.98 553.013 L 1749.54 553.049 C 1752.3 566.829 1750.58 581.365 1751.15 595.275 C 1752.81 635.852 1746.66 681.093 1751.15 721.063 L 1749.03 722.049 C 1710.64 720.922 1669.62 722.888 1631.03 722.057 C 1621.7 721.856 1593.18 722.813 1585.44 721.353 C 1587.28 667.614 1585.11 607.865 1585.98 553.013 z"/>
<path transform="translate(0,0)" fill="rgb(219,224,224)" d="M 1585.44 721.353 C 1596.45 720.692 1608.4 720.837 1619.45 720.971 C 1663.26 721.502 1707.37 720.334 1751.15 721.063 L 1749.03 722.049 C 1710.64 720.922 1669.62 722.888 1631.03 722.057 C 1621.7 721.856 1593.18 722.813 1585.44 721.353 z"/>
<path transform="translate(0,0)" fill="rgb(254,254,254)" d="M 912.163 214.487 C 927.603 215.749 948.093 214.806 963.994 214.997 C 1000.8 215.438 1038.27 214.425 1075.03 214.989 L 1075.84 215.512 C 1076.38 258.975 1075.78 302.571 1076.11 346.043 L 1075.37 347.375 C 1072.23 348.269 1070.19 348.484 1068.37 351.116 L 1068.1 353.359 C 1070.99 355.118 1072.37 354.027 1075.36 352.712 L 1075.49 382.848 L 996.216 382.872 L 998.857 385.495 C 997.387 389.04 998.222 388.575 995.421 390.093 C 992.836 389.234 991.493 386.455 989.962 384.081 L 989.981 382.993 C 963.541 382.565 936.029 382.951 909.501 382.944 C 909.511 366.764 908.601 229.553 910.823 225.897 C 913.456 228.856 913.711 229.919 917.075 230.419 L 918.009 228.432 C 917.725 224.518 914.082 218.243 912.163 214.487 z"/>
<path transform="translate(0,0)" fill="rgb(219,224,224)" d="M 1075.03 214.989 L 1075.84 215.512 C 1076.38 258.975 1075.78 302.571 1076.11 346.043 L 1075.37 347.375 C 1074.42 333.856 1074.98 313.793 1074.98 299.852 L 1075.03 214.989 z"/>
<path transform="translate(0,0)" fill="rgb(81,152,173)" d="M 989.981 382.993 C 988.296 380.042 986.361 377.514 987.055 374.226 L 988.401 373.192 C 991.372 374.104 992.047 374.702 993.545 377.517 C 994.471 379.284 995.362 381.07 996.216 382.872 L 998.857 385.495 C 997.387 389.04 998.222 388.575 995.421 390.093 C 992.836 389.234 991.493 386.455 989.962 384.081 L 989.981 382.993 z"/>
<path transform="translate(0,0)" fill="rgb(81,152,173)" d="M 941.545 275.707 C 943.86 277.458 949.313 287.201 949.677 290.567 C 950.026 293.797 949.847 292.98 947.882 295.856 C 943.879 292.697 939.229 283.601 938.85 278.531 L 941.545 275.707 z"/>
<path transform="translate(0,0)" fill="rgb(81,152,173)" d="M 973.025 339.414 C 976.536 341.543 981.845 352.625 982.032 356.851 L 979.644 359.111 C 975.838 357.604 971.133 346.822 970.824 342.816 C 970.749 341.842 972.331 340.29 973.025 339.414 z"/>
<path transform="translate(0,0)" fill="rgb(81,152,173)" d="M 957.409 307.588 C 960.621 309.415 964.65 318.859 965.479 322.635 C 966.062 325.288 965.263 325.54 963.84 327.579 C 959.785 324.397 955.121 315.53 954.811 310.377 L 957.409 307.588 z"/>
<path transform="translate(0,0)" fill="rgb(81,152,173)" d="M 926.186 243.654 C 928.886 246.284 933.792 256.219 933.661 260.254 C 933.615 261.666 931.721 262.863 930.636 263.84 C 928.327 259.875 923.163 251.982 923.11 247.324 C 923.094 245.987 924.951 244.794 926.186 243.654 z"/>
<path transform="translate(0,0)" fill="rgb(44,54,114)" d="M 1049.71 357.279 L 1051.82 359.645 L 1051.49 361.494 C 1048.04 364.447 1040.78 366.585 1036.23 368.202 C 1034.53 366.8 1035.08 367.51 1034.37 365.028 C 1036.16 362.084 1046.08 358.733 1049.71 357.279 z"/>
<path transform="translate(0,0)" fill="rgb(44,54,114)" d="M 1016.35 370.971 C 1017.11 371.136 1018.14 371.965 1018.85 372.447 L 1018.68 374.384 C 1015.61 377.033 1008.41 379.576 1004.33 381.219 C 1003.3 380.916 1002.35 379.949 1001.49 379.225 L 1001.66 377.566 C 1004.91 374.829 1012.09 372.558 1016.35 370.971 z"/>
<path transform="translate(0,0)" fill="rgb(254,254,254)" d="M 1247.22 553.08 L 1412.99 553.096 C 1413.77 590.717 1413.16 629.4 1413.13 667.098 C 1413.12 679.883 1414 709.825 1412.94 721.14 C 1395.01 720.333 1371.5 721.007 1353.22 720.999 L 1248.2 721.114 L 1247.12 720.612 C 1247.24 665.457 1246.31 608.005 1247.22 553.08 z"/>
<path transform="translate(0,0)" fill="rgb(254,254,254)" d="M 741.965 385.012 L 907.49 385.048 C 907.426 395.155 907.398 403.455 908.175 413.529 L 902.741 416.776 L 902.3 418.852 L 903.936 421.277 L 905.954 420.887 L 909.712 419.471 L 909.855 505.602 C 909.858 518.266 910.436 538.426 909.573 550.28 C 901.259 552.031 744.311 551.361 740.942 549.983 C 741.946 531.914 739.774 502.47 741.694 486.745 C 747.102 484.676 751.197 483.86 754.224 478.998 L 753.399 477.764 C 749.337 476.998 745.778 478.951 741.914 480.533 C 741.194 450.372 740.999 415.178 741.965 385.012 z"/>
<path transform="translate(0,0)" fill="rgb(160,160,162)" d="M 905.954 420.887 L 909.712 419.471 L 909.855 505.602 C 909.858 518.266 910.436 538.426 909.573 550.28 C 901.259 552.031 744.311 551.361 740.942 549.983 C 741.946 531.914 739.774 502.47 741.694 486.745 C 742.923 502.547 741.948 533.265 741.893 550.173 L 907.553 550.155 L 907.587 454.144 C 907.587 447.677 908.468 424.749 905.954 420.887 z"/>
<path transform="translate(0,0)" fill="rgb(44,54,114)" d="M 883.535 423.875 C 886.535 424.509 885.78 423.902 887.151 425.803 C 884.986 430.085 877.191 432.315 872.514 434.159 C 869.615 433.645 870.511 434.214 868.877 432.253 C 870.712 428.278 879.202 425.652 883.535 423.875 z"/>
<path transform="translate(0,0)" fill="rgb(44,54,114)" d="M 783.922 463.912 C 785.674 463.712 786.104 464.123 787.763 464.942 L 787.297 467.007 C 783.493 469.842 777.847 471.975 773.375 473.897 L 771.925 473.931 L 770.294 472.338 L 770.4 470.233 C 773.407 467.451 779.815 465.457 783.922 463.912 z"/>
<path transform="translate(0,0)" fill="rgb(44,54,114)" d="M 816.578 450.851 C 819.599 451.007 818.945 450.517 820.845 452.217 L 820.205 453.89 C 816.343 456.92 811.945 458.25 807.346 459.968 C 804.629 460.65 805.576 460.776 803.307 460.016 L 803.716 457.668 C 807.675 454.019 811.596 452.826 816.578 450.851 z"/>
<path transform="translate(0,0)" fill="rgb(44,54,114)" d="M 851.7 437.054 L 853.526 438.996 L 853.274 440.955 C 850.014 443.653 842.53 445.983 838.251 447.546 L 836.628 445.547 L 836.846 443.746 C 840.328 440.708 847.119 438.702 851.7 437.054 z"/>
<path transform="translate(0,0)" fill="rgb(254,254,254)" d="M 909.706 46.128 L 1075.49 46.1252 L 1075.5 153.152 C 1075.5 172.064 1076 193.612 1075.29 212.36 C 1064.62 211.736 1053.25 211.879 1042.53 211.974 C 998.243 212.365 953.778 211.509 909.501 212.095 L 909.512 103.361 C 909.521 85.5094 908.972 63.7269 909.706 46.128 z"/>
<path transform="translate(0,0)" fill="rgb(254,254,254)" d="M 1247.51 46.1387 L 1413.08 46.1318 L 1413.25 163.248 C 1413.25 169.878 1412.77 207.91 1413.95 212.581 L 1409.41 212.34 L 1298.99 212.327 C 1286.73 212.331 1257.15 213.14 1246.83 211.842 C 1249.22 160.8 1247.55 98.0134 1247.51 46.1387 z"/>
<path transform="translate(0,0)" fill="rgb(254,254,254)" d="M 404.138 385.037 L 569.848 385.07 L 569.939 475.905 C 569.234 492.427 568.216 531.886 570.051 547.777 L 569.306 551.23 C 553.05 550.157 528.406 550.883 511.694 550.881 L 404.127 550.895 L 404.138 385.037 z"/>
<path transform="translate(0,0)" fill="rgb(254,254,254)" d="M 572.03 385.052 C 625.765 385.045 681.559 384.237 735.117 385.151 C 722.683 399.012 708.628 412.44 695.434 425.661 L 623.971 497.143 C 614.742 506.441 599.249 520.933 591.148 530.265 L 593.042 531.222 C 590.009 534.18 584.754 538.795 583.124 542.377 L 583.851 543.546 L 588.197 544.25 L 589.194 545.89 L 588.394 547.578 L 584.46 548.89 C 585.089 550.815 584.554 550.04 586.083 551.318 L 589.986 553.107 C 591.368 557.892 595.474 558.177 596.014 562.658 L 595.066 563.65 C 586.029 560.682 585.612 555.932 574.921 553.073 L 570.107 552.864 L 569.306 551.23 L 570.051 547.777 C 568.216 531.886 569.234 492.427 569.939 475.905 L 572.206 475.074 C 571.548 445.499 571.995 414.715 572.03 385.052 z"/>
<path transform="translate(0,0)" fill="rgb(44,54,114)" d="M 572.751 547.224 L 573.698 547.288 C 581.18 537.261 576.377 530.516 579.252 526.608 L 581.08 526.395 C 583.994 528.989 583.08 531.288 584.131 536.417 C 585.739 535.98 589.624 531.748 591.148 530.265 L 593.042 531.222 C 590.009 534.18 584.754 538.795 583.124 542.377 L 583.851 543.546 L 588.197 544.25 L 589.194 545.89 L 588.394 547.578 L 584.46 548.89 C 585.089 550.815 584.554 550.04 586.083 551.318 L 589.986 553.107 C 591.368 557.892 595.474 558.177 596.014 562.658 L 595.066 563.65 C 586.029 560.682 585.612 555.932 574.921 553.073 L 570.107 552.864 L 569.306 551.23 L 570.051 547.777 L 572.751 547.224 z"/>
<path transform="translate(0,0)" fill="rgb(219,224,224)" d="M 569.939 475.905 L 572.206 475.074 C 573.136 499.229 572.359 523.121 572.751 547.224 L 570.051 547.777 C 568.216 531.886 569.234 492.427 569.939 475.905 z"/>
<path transform="translate(0,0)" fill="rgb(254,254,254)" d="M 738.736 385.206 L 738.842 550.237 C 732.443 551.364 713.328 550.928 705.688 550.917 L 624.882 550.791 C 616.63 550.78 592.922 550.265 586.083 551.318 C 584.554 550.04 585.089 550.815 584.46 548.89 L 588.394 547.578 L 589.194 545.89 L 588.197 544.25 L 583.851 543.546 L 583.124 542.377 C 584.754 538.795 590.009 534.18 593.042 531.222 L 738.736 385.206 z"/>
<path transform="translate(0,0)" fill="rgb(44,54,114)" d="M 719.407 489.902 C 720.102 490.141 721.221 491.127 721.871 491.632 L 721.51 493.648 C 717.997 496.576 711.658 498.688 707.238 500.421 C 704.726 499.821 705.67 500.297 703.683 498.361 L 704.466 496.576 C 708.514 493.681 714.631 491.693 719.407 489.902 z"/>
<path transform="translate(0,0)" fill="rgb(44,54,114)" d="M 686.036 502.894 C 687.144 503.176 687.673 504.126 688.431 505.064 L 688.042 506.853 C 684.55 509.801 677.667 512.25 673.219 514.078 C 672.476 513.58 671.781 512.65 671.163 511.941 L 671.597 510.014 C 674.933 507.16 681.737 504.69 686.036 502.894 z"/>
<path transform="translate(0,0)" fill="rgb(44,54,114)" d="M 619.699 530.026 C 620.758 530.088 621.671 530.872 622.603 531.485 L 622.39 533.252 C 619.258 535.873 612.052 538.385 607.976 540.006 L 605.944 539.976 C 604.595 537.968 604.817 538.938 605.311 536.264 C 608.471 533.473 615.458 531.495 619.699 530.026 z"/>
<path transform="translate(0,0)" fill="rgb(44,54,114)" d="M 651.491 516.787 C 653.984 517.199 653.04 516.79 655.059 518.449 L 654.361 520.368 C 650.495 523.309 645.823 524.701 641.241 526.383 C 639.029 526.627 639.916 526.793 637.893 525.664 L 638.515 523.611 C 642.547 520.283 646.696 518.815 651.491 516.787 z"/>
<path transform="translate(0,0)" fill="rgb(254,254,254)" d="M 1412.43 219.39 C 1415.28 228.236 1413.03 366.639 1413.01 382.92 L 1248.12 382.884 C 1264.99 365.983 1406.62 226.338 1409.63 219.785 L 1412.43 219.39 z"/>
<path transform="translate(0,0)" fill="rgb(254,254,254)" d="M 1413.95 212.581 L 1415.21 212.341 L 1415.68 214.743 L 1415.13 216.539 L 1412.43 219.39 L 1409.63 219.785 C 1407.73 219.865 1407.83 219.575 1406.44 220.442 L 1296.16 331.031 L 1264.32 362.996 C 1260.87 366.459 1250.85 376.781 1247.43 379.308 C 1247.34 349.083 1248.15 314.52 1247.04 284.639 C 1248.73 283.379 1249.59 282.932 1250.45 280.945 L 1248.34 277.502 C 1246.48 271.813 1247.48 225.677 1247.18 215.513 C 1250.88 214.405 1269.64 214.813 1274.4 214.868 C 1317.48 215.37 1360.92 214.135 1403.96 215.19 C 1406.71 214.894 1407.3 214.134 1409.41 212.34 L 1413.95 212.581 z"/>
<path transform="translate(0,0)" fill="rgb(44,54,114)" d="M 1413.95 212.581 L 1415.21 212.341 L 1415.68 214.743 L 1415.13 216.539 L 1412.43 219.39 L 1409.63 219.785 C 1407.73 219.865 1407.83 219.575 1406.44 220.442 C 1402.87 221.516 1400.62 222.525 1398.05 219.428 C 1400.2 216.187 1399.9 217.044 1403.96 215.19 C 1406.71 214.894 1407.3 214.134 1409.41 212.34 L 1413.95 212.581 z"/>
<path transform="translate(0,0)" fill="rgb(44,54,114)" d="M 1345.19 238.864 C 1348.13 238.721 1347.46 238.318 1349.55 239.737 L 1348.83 241.967 C 1344.49 245.218 1339.67 246.86 1334.64 248.896 C 1333.43 248.598 1332.55 247.726 1331.51 246.925 L 1331.74 245.349 C 1335.11 242.398 1340.89 240.557 1345.19 238.864 z"/>
<path transform="translate(0,0)" fill="rgb(44,54,114)" d="M 1312.53 251.857 L 1315.52 252.113 L 1316.45 253.244 C 1314.36 257.945 1306.92 259.962 1301.83 262.036 C 1300.67 262.036 1299.53 261.032 1298.51 260.325 L 1298.8 258.667 C 1302.59 255.58 1307.94 253.743 1312.53 251.857 z"/>
<path transform="translate(0,0)" fill="rgb(44,54,114)" d="M 1279.85 264.928 C 1282.83 265.762 1281.99 265.092 1283.51 267.197 C 1281.6 271.083 1273.28 273.388 1268.97 275.016 L 1266.6 274.704 L 1265.62 273.287 C 1267.59 269.194 1275.39 266.784 1279.85 264.928 z"/>
<path transform="translate(0,0)" fill="rgb(44,54,114)" d="M 1380.16 225.054 C 1381.03 225.572 1381.74 226.69 1382.43 227.56 L 1382.1 229.091 C 1379 231.594 1371.57 233.942 1367.49 235.427 L 1366.57 235.538 L 1365.21 233.384 L 1365.68 231.595 C 1368.92 228.752 1375.85 226.636 1380.16 225.054 z"/>
<path transform="translate(0,0)" fill="rgb(52,54,53)" d="M 1076.24 211.16 L 1077.16 211.26 C 1081.82 213.314 1228.94 212.451 1245.44 212.287 L 1246.83 211.842 C 1257.15 213.14 1286.73 212.331 1298.99 212.327 L 1409.41 212.34 C 1407.3 214.134 1406.71 214.894 1403.96 215.19 C 1360.92 214.135 1317.48 215.37 1274.4 214.868 C 1269.64 214.813 1250.88 214.405 1247.18 215.513 L 1245.43 215.419 C 1239.4 214.427 1201.14 214.916 1192.98 214.916 L 1077.55 215.104 L 1075.84 215.512 L 1075.03 214.989 C 1038.27 214.425 1000.8 215.438 963.994 214.997 C 948.093 214.806 927.603 215.749 912.163 214.487 L 911.393 213.879 C 916.331 210.238 1055.52 215.775 1075.29 212.36 L 1076.24 211.16 z"/>
<path transform="translate(0,0)" fill="rgb(160,160,162)" d="M 1076.24 211.16 C 1074.81 173.24 1076.71 133.887 1076.02 95.821 C 1075.74 80.8677 1075.34 62.4303 1076.56 47.6992 C 1079.23 97.9058 1075.41 154.899 1077.28 206.01 L 1077.16 211.26 L 1076.24 211.16 z"/>
<path transform="translate(0,0)" fill="rgb(254,254,254)" d="M 1585.81 385.209 C 1639.76 384.211 1695.89 385.012 1750.01 385.038 L 1749.97 550.922 C 1695.61 550.921 1640.29 550.36 1586.02 550.928 L 1581.23 550.954 C 1526.56 550.168 1470.02 550.909 1415.2 550.893 L 1415.33 385.035 L 1531.48 384.965 C 1541.19 384.961 1576.53 384.377 1583.63 385.867 L 1585.81 385.209 z"/>
<path transform="translate(0,0)" fill="rgb(254,254,254)" d="M 1415.33 385.035 L 1531.48 384.965 C 1541.19 384.961 1576.53 384.377 1583.63 385.867 C 1582.68 391.251 1583.04 403.494 1583.04 409.413 L 1583.02 452.214 C 1582.98 459.431 1582.67 466.288 1582.22 473.49 C 1580.64 499.01 1580.95 525.388 1581.23 550.954 C 1526.56 550.168 1470.02 550.909 1415.2 550.893 L 1415.33 385.035 z"/>
<path transform="translate(0,0)" fill="rgb(160,160,162)" d="M 1583.63 385.867 L 1585.81 385.209 C 1585.48 440.448 1585.55 495.689 1586.02 550.928 L 1581.23 550.954 C 1580.95 525.388 1580.64 499.01 1582.22 473.49 C 1582.67 466.288 1582.98 459.431 1583.02 452.214 L 1583.04 409.413 C 1583.04 403.494 1582.68 391.251 1583.63 385.867 z"/>
<path transform="translate(0,0)" fill="rgb(254,254,254)" d="M 741.958 46.1211 L 907.49 46.1358 C 907.497 100.809 906.652 157.688 907.534 212.16 C 905.825 212.46 905.172 212.378 904.047 213.565 L 902.908 213.582 L 904.628 214.89 L 904.676 215.891 C 850.292 268.874 795.321 325.411 741.65 379.406 C 742.3 363.736 741.683 345.165 741.77 329.228 L 742.093 214.557 C 746.35 213.624 773.052 213.933 778.671 213.934 L 855.487 213.993 C 868.082 214.011 887.334 214.656 899.288 213.508 C 891.307 212.403 866.856 212.95 857.756 212.956 L 776.482 213.034 C 769.261 213.047 749.188 213.548 742.796 212.636 L 742.069 212.526 L 741.958 46.1211 z"/>
<path transform="translate(0,0)" fill="rgb(254,254,254)" d="M 742.093 214.557 C 762.671 216.198 898.847 213.028 904.676 215.891 C 850.292 268.874 795.321 325.411 741.65 379.406 C 742.3 363.736 741.683 345.165 741.77 329.228 L 742.093 214.557 z"/>
<path transform="translate(0,0)" fill="rgb(219,224,224)" d="M 742.069 212.526 C 755.254 211.055 798.329 211.62 813.797 211.975 C 842.445 212.634 879.816 210.633 907.534 212.16 C 905.825 212.46 905.172 212.378 904.047 213.565 L 902.908 213.582 L 904.628 214.89 L 904.676 215.891 C 898.847 213.028 762.671 216.198 742.093 214.557 C 746.35 213.624 773.052 213.933 778.671 213.934 L 855.487 213.993 C 868.082 214.011 887.334 214.656 899.288 213.508 C 891.307 212.403 866.856 212.95 857.756 212.956 L 776.482 213.034 C 769.261 213.047 749.188 213.548 742.796 212.636 L 742.069 212.526 z"/>
<path transform="translate(0,0)" fill="rgb(52,33,51)" d="M 855.338 99.112 C 862.175 98.654 862.296 100.584 865.411 106.487 C 867.416 103.631 868.97 101.022 871.868 99.0442 L 872.901 99.5887 C 871.782 106.195 862.374 112.303 863.834 120.065 C 865.67 121.524 866.545 122.068 868.532 123.229 L 866.886 126.847 C 859.744 122.567 865.277 123.167 861.064 119.083 C 856.891 121.676 851.276 125.371 846.519 125.858 C 845.163 125.457 843.496 125.318 843.154 124.046 C 839.945 112.11 847.009 103.979 855.338 99.112 z"/>
<path transform="translate(0,0)" fill="rgb(254,254,254)" d="M 855.275 100.448 C 857.916 100.638 858.574 100.57 860.698 102.326 C 865.583 110.213 858.584 118.341 853.03 123.705 C 850.515 123.988 850.23 123.922 848.019 122.686 C 843.268 115.851 850.404 105.455 855.275 100.448 z"/>
<path transform="translate(0,0)" fill="rgb(2,1,2)" d="M 837.74 141.928 C 836.458 143.369 835.145 144.783 833.803 146.169 C 813.394 167.104 788.913 144.679 811.623 123.897 C 814.829 125.973 814.266 124.996 815.732 128.165 L 813.319 136.815 L 812.691 138.522 C 813.228 144.055 813.004 146.219 817.994 148.93 C 824.302 150.195 831.927 145.05 837.74 141.928 z"/>
<path transform="translate(0,0)" fill="rgb(219,224,224)" d="M 811.623 123.897 C 815.063 119.693 822.779 118.538 827.93 118.237 C 831.617 118.866 833.059 118.838 835.467 121.569 C 837.849 129.441 831.044 133.629 824.343 135.882 C 820.51 137.006 816.669 138.335 812.691 138.522 L 813.319 136.815 L 815.732 128.165 C 814.266 124.996 814.829 125.973 811.623 123.897 z"/>
<path transform="translate(0,0)" fill="rgb(2,1,2)" d="M 827.93 118.237 C 831.617 118.866 833.059 118.838 835.467 121.569 C 837.849 129.441 831.044 133.629 824.343 135.882 L 823.151 133.159 C 824.387 132.209 825.481 131.088 826.402 129.83 C 828.539 126.915 827.793 123.777 827.258 120.344 L 827.93 118.237 z"/>
<path transform="translate(0,0)" fill="rgb(28,13,19)" d="M 811.623 123.897 C 815.063 119.693 822.779 118.538 827.93 118.237 L 827.258 120.344 C 820.385 121.549 819.213 121.798 815.732 128.165 C 814.266 124.996 814.829 125.973 811.623 123.897 z"/>
<path transform="translate(0,0)" fill="rgb(52,54,53)" d="M 823.151 133.159 L 824.343 135.882 C 820.51 137.006 816.669 138.335 812.691 138.522 L 813.319 136.815 C 816.475 136.026 820.09 134.412 823.151 133.159 z"/>
<path transform="translate(0,0)" fill="rgb(92,69,74)" d="M 843.99 179.084 C 850.173 165.171 863.605 168.84 856.668 147.652 C 863.954 147.991 865.738 156.6 861.7 162.217 C 856.893 168.903 850.29 173.333 846.108 180.31 L 843.99 179.084 z"/>
<path transform="translate(0,0)" fill="rgb(2,1,2)" d="M 846.108 180.31 C 849.404 181.137 855.77 181.616 859.174 181.037 C 861.527 180.637 861.931 178.813 863.561 176.29 C 863.901 180.325 864.208 178.836 862.492 182.398 C 857.593 186.557 846.728 187.572 842.699 182.636 L 843.99 179.084 L 846.108 180.31 z"/>
<path transform="translate(0,0)" fill="rgb(254,254,254)" d="M 1753.24 214.534 C 1808.64 213.702 1865.52 214.336 1921.04 214.321 L 1921 382.934 L 1753.24 382.958 C 1752.86 326.818 1752.86 270.675 1753.24 214.534 z"/>
<path transform="translate(0,0)" fill="rgb(254,254,254)" d="M 234.274 214.527 C 289.218 213.683 347.007 214.072 402.034 214.46 L 401.983 382.927 L 234.179 382.955 C 234.14 327.112 233.554 270.292 234.274 214.527 z"/>
<path transform="translate(0,0)" fill="rgb(254,254,254)" d="M 572.203 214.526 C 626.897 213.532 685.045 214.147 739.887 214.446 C 739.946 245.636 740.409 277.056 739.251 308.215 C 738.329 333.016 739.293 357.836 738.495 382.621 C 720.596 383.594 697.122 382.954 678.88 382.948 L 572.032 382.941 C 572.011 327.598 571.093 269.655 572.203 214.526 z"/>
<path transform="translate(0,0)" fill="rgb(254,254,254)" d="M 1753.07 46.1397 L 1921.11 46.1157 L 1920.99 212.628 C 1911.5 214.636 1871.5 213.033 1859.98 213.035 L 1790.64 213.027 C 1780.76 213.021 1762.44 213.534 1753.1 212.547 L 1753.07 46.1397 z"/>
<path transform="translate(0,0)" fill="rgb(219,224,224)" d="M 1753.1 212.547 C 1763.27 211.458 1779.77 211.972 1790.39 211.976 L 1855.23 211.963 C 1865.62 211.96 1915.26 211.476 1920.99 212.628 C 1911.5 214.636 1871.5 213.033 1859.98 213.035 L 1790.64 213.027 C 1780.76 213.021 1762.44 213.534 1753.1 212.547 z"/>
<path transform="translate(0,0)" fill="rgb(254,254,254)" d="M 234.124 46.1159 L 402.057 46.1303 C 402.045 101.292 402.611 157.459 401.986 212.531 C 397.102 213.519 344.528 213.05 336.791 213.05 L 270.102 213.025 C 260.544 213.017 243.181 213.486 234.165 212.55 L 234.124 46.1159 z"/>
<path transform="translate(0,0)" fill="rgb(219,224,224)" d="M 234.165 212.55 C 243.85 211.468 260.32 211.964 270.777 211.97 L 334.27 211.971 L 378.944 211.967 C 384.007 211.97 397.431 211.701 401.986 212.531 C 397.102 213.519 344.528 213.05 336.791 213.05 L 270.102 213.025 C 260.544 213.017 243.181 213.486 234.165 212.55 z"/>
<path transform="translate(0,0)" fill="rgb(254,254,254)" d="M 405.235 214.528 C 458.666 213.528 516.26 214.042 569.833 214.462 L 569.858 322.045 C 569.868 341.233 570.436 363.956 569.593 382.919 L 404.143 382.952 C 404.133 366.519 403.239 217.716 405.235 214.528 z"/>
<path transform="translate(0,0)" fill="rgb(254,254,254)" d="M 66.51 214.51 L 231.98 214.51 L 231.955 382.928 L 66.6106 382.957 L 66.51 214.51 z"/>
<path transform="translate(0,0)" fill="rgb(254,254,254)" d="M 234.172 385.048 L 402.037 385.048 L 402.011 550.913 L 234.128 550.909 L 234.172 385.048 z"/>
<path transform="translate(0,0)" fill="rgb(254,254,254)" d="M 572.017 46.1272 L 738.737 46.0953 L 739.875 212.556 C 734.142 213.34 719.534 212.993 713.195 213 L 661.839 213.031 L 603.581 213.029 C 595.421 213.024 579.631 213.444 572.04 212.527 L 572.017 46.1272 z"/>
<path transform="translate(0,0)" fill="rgb(219,224,224)" d="M 572.04 212.527 C 582.671 211.504 597.988 211.969 608.974 211.973 L 670.153 211.967 L 714.57 211.971 C 720.845 211.976 734.004 211.676 739.875 212.556 C 734.142 213.34 719.534 212.993 713.195 213 L 661.839 213.031 L 603.581 213.029 C 595.421 213.024 579.631 213.444 572.04 212.527 z"/>
<path transform="translate(0,0)" fill="rgb(254,254,254)" d="M 1753.17 385.042 L 1921.05 385.042 L 1920.86 550.914 L 1753.14 550.899 C 1752.38 496.522 1752.74 439.465 1753.17 385.042 z"/>
<path transform="translate(0,0)" fill="rgb(254,254,254)" d="M 1586.24 214.53 C 1639.76 213.476 1697.37 214.121 1751.05 214.442 L 1749.96 382.942 L 1585.51 382.957 L 1585.46 263.294 C 1585.46 255.842 1584.93 219.443 1586.24 214.53 z"/>
<path transform="translate(0,0)" fill="rgb(254,254,254)" d="M 404.111 46.1279 L 569.814 46.1213 L 569.807 212.524 C 562.526 213.392 548.065 213.007 540.271 213.013 L 486.306 213.031 L 433.121 213.012 C 425.488 213.005 411.258 213.384 404.147 212.497 L 404.111 46.1279 z"/>
<path transform="translate(0,0)" fill="rgb(219,224,224)" d="M 404.147 212.497 C 413.233 211.562 427.716 211.959 437.244 211.961 L 494.472 211.98 L 542.912 211.971 C 549.593 211.976 563.671 211.649 569.807 212.524 C 562.526 213.392 548.065 213.007 540.271 213.013 L 486.306 213.031 L 433.121 213.012 C 425.488 213.005 411.258 213.384 404.147 212.497 z"/>
<path transform="translate(0,0)" fill="rgb(254,254,254)" d="M 66.5299 46.1074 L 232.01 46.1258 L 231.938 212.49 L 66.51 212.49 L 66.5299 46.1074 z"/>
<path transform="translate(0,0)" fill="rgb(254,254,254)" d="M 1247.22 385.096 L 1413.07 385.053 L 1413.02 550.903 L 1247.16 550.891 L 1247.22 385.096 z"/>
<path transform="translate(0,0)" fill="rgb(254,254,254)" d="M 1585.51 46.15 L 1750.03 46.1026 L 1751 212.544 C 1746.94 213.305 1732.04 213.017 1727.22 213.022 L 1679.29 213.052 L 1617.67 213.044 C 1610.22 213.038 1592.19 213.458 1585.51 212.482 L 1585.51 46.15 z"/>
<path transform="translate(0,0)" fill="rgb(219,224,224)" d="M 1585.51 212.482 C 1594.6 211.517 1610.08 211.958 1619.61 211.959 L 1679.85 211.984 L 1726.22 211.966 C 1732.01 211.969 1745.96 211.672 1751 212.544 C 1746.94 213.305 1732.04 213.017 1727.22 213.022 L 1679.29 213.052 L 1617.67 213.044 C 1610.22 213.038 1592.19 213.458 1585.51 212.482 z"/>
<path transform="translate(0,0)" fill="rgb(254,254,254)" d="M 66.6061 385.025 L 231.989 385.058 L 231.959 550.911 L 66.5634 550.926 L 66.6061 385.025 z"/>
<path transform="translate(0,0)" fill="rgb(254,254,254)" d="M 906.35 217.756 C 908.604 220.583 907.532 264.505 907.528 271.883 L 907.49 382.914 L 744.14 382.946 L 743.246 381.936 C 747.144 375.17 786.134 338.074 794.31 329.935 L 906.35 217.756 z"/>
<path transform="translate(0,0)" fill="rgb(254,254,254)" d="M 1243.89 387.264 L 1245.66 387.256 C 1246.64 390.355 1246.51 463.354 1245.48 467.558 C 1243.72 492.917 1244.8 524.675 1244.49 550.912 L 1080.72 550.903 L 1243.89 387.264 z"/>
<path transform="translate(0,0)" fill="rgb(219,224,224)" d="M 1243.89 387.264 L 1245.66 387.256 C 1246.64 390.355 1246.51 463.354 1245.48 467.558 C 1243.65 454.43 1246.98 393.862 1243.89 387.264 z"/>
</svg>
