<svg version="1.1" xmlns="http://www.w3.org/2000/svg" style="display: block;" viewBox="0 0 2048 1079" width="1008" height="531" preserveAspectRatio="none">
<defs>
	<linearGradient id="Gradient1" gradientUnits="userSpaceOnUse" x1="1650.97" y1="445.192" x2="1617.86" y2="440.838">
		<stop class="stop0" offset="0" stop-opacity="1" stop-color="rgb(0,0,0)"/>
		<stop class="stop1" offset="1" stop-opacity="1" stop-color="rgb(31,22,13)"/>
	</linearGradient>
</defs>
<path transform="translate(0,0)" fill="rgb(221,225,225)" d="M 0 0 L 2048 0 L 2048 1079 L 0 1079 L 0 0 z"/>
<path transform="translate(0,0)" fill="rgb(255,255,255)" d="M 20.1895 10.8456 C 95.1954 9.11654 177.594 10.6981 252.81 10.6973 L 705.332 10.6952 L 2038.1 10.7504 C 2037.45 45.3782 2038.17 81.0256 2038.19 115.756 L 2038.22 327.9 L 2038.12 1071.23 L 20.1848 1071.27 L 20.1895 10.8456 z"/>
<path transform="translate(0,0)" fill="rgb(255,255,255)" d="M 259.302 90.1943 L 1974.22 90.2261 L 1974.24 917.775 C 1916.12 919.481 1857.35 916.755 1799.2 916.862 C 1794.05 916.872 1788.58 917.032 1783.46 916.858 L 1773.1 917.128 C 1757.58 918.525 1725.74 917.754 1709.23 917.768 L 1588.73 917.765 C 1450.69 918.196 1312.66 917.903 1174.63 916.884 L 1166.62 917.121 C 1149.71 918.481 1118.25 917.746 1100.83 917.761 L 979.306 917.773 C 841.735 918.193 704.163 917.897 566.595 916.885 L 559.316 917.114 C 500.956 918.992 438.37 917.579 379.601 917.774 C 342.837 917.897 294.853 919.577 259.23 917.736 L 259.302 90.1943 z"/>
<path transform="translate(0,0)" fill="rgb(129,128,128)" d="M 259.302 90.1943 L 1974.22 90.2261 L 1974.24 917.775 C 1916.12 919.481 1857.35 916.755 1799.2 916.862 C 1794.05 916.872 1788.58 917.032 1783.46 916.858 L 1773.1 917.128 L 1777.01 913.984 C 1779.71 914.033 1782.59 913.657 1785.29 913.391 C 1798.31 912.887 1816.46 912.583 1829.48 913.414 L 1835.4 914.477 C 1842.72 910.836 1858.76 917.431 1865.55 911.11 L 1865.71 905.772 C 1897.18 906.192 1930.35 905.143 1962.23 905.165 L 1962.22 374.174 C 1949.46 373.913 1916.78 375.317 1905.91 373.543 C 1904.23 370.811 1904.64 365.511 1906.07 362.733 C 1911.23 361.547 1953.64 362.159 1962.18 362.182 L 1962.14 102.16 C 1899.25 101.331 1834.54 102.116 1771.54 102.115 L 1396.6 102.112 L 271.251 102.107 L 271.265 362.198 C 287.428 362.388 312.406 361.05 327.648 362.639 L 328.807 364.19 C 328.816 367.329 329.252 371.108 327.8 373.667 C 316.88 375.07 283.772 374.134 271.225 374.074 L 271.224 905.147 L 368.178 905.896 C 368.769 860.784 368.233 814.629 368.238 769.392 L 368.194 501.24 C 381.392 501.253 492.725 502.205 496.466 500.118 C 497.598 500.956 499.497 502.144 500.116 503.238 C 498.828 514.509 499.444 536.975 499.463 549.03 L 499.572 630.962 L 499.556 905.831 C 504.063 905.854 513.359 905.627 517.411 906.473 C 523.458 916.786 549.002 912.931 559.851 913.894 L 559.316 917.114 C 500.956 918.992 438.37 917.579 379.601 917.774 C 342.837 917.897 294.853 919.577 259.23 917.736 L 259.302 90.1943 z"/>
<path transform="translate(0,0)" fill="rgb(51,48,52)" d="M 1785.29 913.391 C 1798.31 912.887 1816.46 912.583 1829.48 913.414 L 1835.4 914.477 C 1828.84 918.72 1794.74 913.999 1783.46 916.858 L 1773.1 917.128 L 1777.01 913.984 C 1779.71 914.033 1782.59 913.657 1785.29 913.391 z"/>
<path transform="translate(0,0)" fill="rgb(231,209,118)" d="M 380.223 513.092 L 487.634 513.147 C 488.798 558.463 487.848 608.173 487.85 653.788 L 487.759 905.841 L 380.195 905.822 L 380.223 513.092 z"/>
<path transform="translate(0,0)" fill="rgb(129,128,128)" d="M 1715.08 507.7 C 1715.45 507.978 1716.94 509.034 1717.11 509.31 C 1714.39 515.07 1715.92 866.09 1716 905.855 L 1733.86 905.857 C 1734.04 907.588 1733.89 910.089 1735.07 910.698 C 1744.78 915.692 1765.8 912.902 1777.01 913.984 L 1773.1 917.128 C 1757.58 918.525 1725.74 917.754 1709.23 917.768 L 1588.73 917.765 C 1450.69 918.196 1312.66 917.903 1174.63 916.884 L 1166.62 917.121 L 1168.75 913.849 C 1171.83 914.035 1174.17 913.679 1177.21 913.347 C 1190 912.906 1208.33 912.547 1221.08 913.378 L 1225.16 914.01 C 1235.08 913.278 1246.93 914.762 1255.13 912.681 C 1257.9 910.213 1257.04 910.64 1257.43 905.801 L 1584.76 905.87 L 1584.65 508.36 L 1668.47 508.469 C 1680.58 508.478 1703.94 509.083 1715.08 507.7 z"/>
<path transform="translate(0,0)" fill="rgb(51,48,52)" d="M 1177.21 913.347 C 1190 912.906 1208.33 912.547 1221.08 913.378 L 1225.16 914.01 C 1222.41 916.851 1222.92 915.874 1217.91 916.13 C 1206.66 916.705 1184.76 914.786 1174.63 916.884 L 1166.62 917.121 L 1168.75 913.849 C 1171.83 914.035 1174.17 913.679 1177.21 913.347 z"/>
<path transform="translate(0,0)" fill="rgb(231,209,118)" d="M 1609.68 520.497 L 1704.09 520.645 L 1704.11 780.089 L 1703.98 864.144 C 1703.99 874.228 1705.78 894.618 1702.92 904.768 C 1702.62 905.848 1699.63 905.731 1698.25 905.85 L 1596.6 905.792 C 1595.41 863.621 1596.43 815.815 1596.43 773.162 L 1596.47 520.695 L 1609.68 520.497 z"/>
<path transform="translate(0,0)" fill="rgb(231,209,118)" d="M 988.352 472.439 L 1056.92 472.333 C 1068.37 472.318 1086.17 471.776 1097.1 472.988 L 1096.76 477.068 C 1095.5 483.569 1095.93 508.52 1095.94 516.801 L 1096.01 596.643 L 1095.98 905.847 L 988.353 905.811 L 988.352 472.439 z"/>
<path transform="translate(0,0)" fill="rgb(129,128,128)" d="M 976.366 460.613 C 1017.07 460.078 1058.17 461.146 1098.92 460.43 C 1098.28 464.433 1097.44 469.006 1097.1 472.988 C 1086.17 471.776 1068.37 472.318 1056.92 472.333 L 988.352 472.439 L 988.353 905.811 L 1095.98 905.847 L 1096.01 596.643 L 1095.94 516.801 C 1095.93 508.52 1095.5 483.569 1096.76 477.068 C 1099.71 487.034 1100.5 492.86 1108.87 499.423 C 1105.97 506.161 1108.03 868.248 1107.92 905.841 L 1131.59 905.8 C 1131.77 909.547 1131.17 910.134 1133.07 912.792 C 1144.65 914.218 1157.27 913.039 1168.75 913.849 L 1166.62 917.121 C 1149.71 918.481 1118.25 917.746 1100.83 917.761 L 979.306 917.773 C 841.735 918.193 704.163 917.897 566.595 916.885 L 559.316 917.114 L 559.851 913.894 C 562.791 914.068 566.289 913.626 569.271 913.363 C 579.782 912.938 602.262 912.439 612.683 913.435 L 619.538 914.218 C 625.275 912.088 637.785 915.502 647.166 912.722 C 649.761 910.212 648.934 910.532 649.181 905.815 L 976.432 905.91 L 976.366 460.613 z"/>
<path transform="translate(0,0)" fill="rgb(51,48,52)" d="M 569.271 913.363 C 579.782 912.938 602.262 912.439 612.683 913.435 L 619.538 914.218 C 614.82 918.332 579.062 914.692 566.595 916.885 L 559.316 917.114 L 559.851 913.894 C 562.791 914.068 566.289 913.626 569.271 913.363 z"/>
<path transform="translate(0,0)" fill="rgb(22,14,13)" d="M 1718.96 406.393 C 1716.86 406.95 1707.5 409.506 1705.97 407.642 C 1712.17 404.074 1717.88 403.006 1725.21 399.207 C 1725.65 416.212 1725.4 434.279 1725.45 451.365 C 1732.92 451.052 1745.22 449.518 1746.55 459.407 C 1745 463.447 1746.01 462.292 1742.97 464.526 C 1739.92 464.249 1741.03 464.749 1738.8 462.646 L 1738.56 460.041 C 1718.37 454.652 1717.04 462.927 1714.65 480.232 C 1723.5 472.144 1734.4 467.472 1743.69 478.173 C 1747.57 482.644 1749.45 488.507 1748.9 494.401 C 1747.16 511.302 1731.21 515.806 1717.11 509.31 C 1716.94 509.034 1715.45 507.978 1715.08 507.7 C 1702.69 496.291 1704.44 473.442 1713.5 460.259 L 1713.03 459 C 1710.23 458.952 1709.01 458.86 1706.25 458.388 L 1705.9 457.001 C 1707.65 455.728 1715.96 455.158 1718.78 454.812 C 1719.37 439.469 1718.97 421.901 1718.96 406.393 z"/>
<path transform="translate(0,0)" fill="rgb(255,255,255)" d="M 1725.21 474.813 C 1731.57 474.683 1733.56 476.661 1738.92 479.963 C 1741.91 492.981 1743.32 501.3 1731.28 508.789 C 1718.55 509.634 1714.3 501.34 1715.67 489.424 C 1716.56 481.72 1719.14 479.268 1725.21 474.813 z"/>
<path transform="translate(0,0)" fill="rgb(1,1,1)" d="M 1098.92 460.43 C 1100.42 457.221 1102.23 453.28 1104.66 450.646 C 1111.39 443.347 1134.05 431.98 1137.62 448.077 C 1138.15 450.44 1137.91 451.514 1136.84 453.625 C 1134.42 455.131 1135.57 454.868 1132.42 454.359 L 1129.99 452.454 C 1129.61 445.94 1133.4 448.313 1130.8 444.478 C 1117.01 438.521 1103.25 457.262 1107.76 467.076 C 1110.06 466.891 1110.67 465.933 1112.5 464.29 L 1114.05 465.984 C 1120.73 464.205 1123.71 464.296 1129.22 468.878 L 1129.45 464.014 C 1135.04 467.586 1139.06 471.092 1140.54 477.907 C 1141.59 482.92 1140.56 488.146 1137.67 492.376 C 1134.35 497.277 1129.18 500.623 1123.35 501.649 C 1117.83 502.658 1113.91 501.501 1108.87 499.423 C 1100.5 492.86 1099.71 487.034 1096.76 477.068 L 1097.1 472.988 C 1097.44 469.006 1098.28 464.433 1098.92 460.43 z"/>
<path transform="translate(0,0)" fill="rgb(255,255,255)" d="M 1114.05 465.984 C 1120.73 464.205 1123.71 464.296 1129.22 468.878 C 1133.17 475.925 1134.04 488.63 1128.18 494.19 C 1115.78 505.952 1105.89 493.547 1107.22 480.283 C 1108.06 471.828 1108.11 471.67 1114.05 465.984 z"/>
<path transform="translate(0,0)" fill="rgb(1,1,1)" d="M 493.145 459.065 C 500.942 460.696 497.095 464.507 497.929 472.036 L 499.676 472.32 C 509.841 464.265 521.417 463.573 529.636 474.883 C 532.473 478.844 533.56 483.796 532.642 488.582 C 531.56 494.14 528.318 499.041 523.626 502.212 C 516.418 507.136 507.78 507.174 500.116 503.238 C 499.497 502.144 497.598 500.956 496.466 500.118 C 487.621 488.295 487.552 472.299 493.145 459.065 z"/>
<path transform="translate(0,0)" fill="rgb(255,255,255)" d="M 508.082 468.895 C 528.029 468.175 529.522 493.444 515.088 502.781 C 494.971 503.814 492.847 479.654 508.082 468.895 z"/>
<path transform="translate(0,0)" fill="rgb(1,1,1)" d="M 510.164 395.738 C 513.063 392.701 513.168 391.603 516.647 390.594 C 520.979 396.22 514.747 423.854 520.039 431.131 C 521.471 433.101 525.96 432.483 528.951 434.535 C 526.153 437.01 516.961 434.755 517.066 442.832 C 521.517 446.566 535.1 445.98 528.142 458.308 C 525.358 459.349 526.593 459.312 523.402 458.095 C 520.08 453.066 523.309 455.18 522.022 451.025 C 517.656 450.303 515.128 450.375 510.673 450.409 L 507.904 449.235 L 508.163 446.3 C 510.471 444.507 510.934 441.015 510.268 438.346 C 506.411 434.844 491.235 435.944 485.074 435.89 L 484.621 433.701 L 487.246 432.751 C 487.87 428.493 506.871 405.297 511.156 401.321 C 510.961 399.295 510.591 397.729 510.164 395.738 z"/>
<path transform="translate(0,0)" fill="rgb(255,255,255)" d="M 487.246 432.751 C 487.87 428.493 506.871 405.297 511.156 401.321 C 510.734 411.712 510.623 422.114 510.822 432.512 C 503.842 432.519 493.994 432.25 487.246 432.751 z"/>
<path transform="translate(0,0)" fill="rgb(231,209,118)" d="M 517.814 864.407 L 529.686 864.457 C 529.704 878.176 529.578 892.179 529.793 905.872 C 539.844 905.799 557.654 905.223 566.932 906.207 C 568.883 908.2 568.652 910.154 569.271 913.363 C 566.289 913.626 562.791 914.068 559.851 913.894 C 549.002 912.931 523.458 916.786 517.411 906.473 C 518.422 895.703 517.778 875.96 517.814 864.407 z"/>
<path transform="translate(0,0)" fill="rgb(231,209,118)" d="M 1734.09 878.648 L 1746.05 878.673 L 1746.09 905.908 C 1752.28 905.869 1782 904.781 1784.69 907.384 L 1785.29 913.391 C 1782.59 913.657 1779.71 914.033 1777.01 913.984 C 1765.8 912.902 1744.78 915.692 1735.07 910.698 C 1733.89 910.089 1734.04 907.588 1733.86 905.857 C 1734.22 896.723 1734.14 887.776 1734.09 878.648 z"/>
<path transform="translate(0,0)" fill="rgb(231,209,118)" d="M 1829.48 913.414 L 1830.03 907.974 C 1835.83 902.375 1844.47 907.568 1851.03 905.779 C 1855.82 904.471 1851.83 891.323 1864.64 897.435 C 1865.95 898.059 1865.65 904.189 1865.71 905.772 L 1865.55 911.11 C 1858.76 917.431 1842.72 910.836 1835.4 914.477 L 1829.48 913.414 z"/>
<path transform="translate(0,0)" fill="rgb(231,209,118)" d="M 612.683 913.435 C 612.866 911.622 613.128 909.764 613.362 907.95 C 620.454 901.484 629.828 909.679 637.284 904.143 C 637.324 901.344 637.095 900.005 638.855 897.748 C 641.867 896.382 646.454 895.652 649.01 897.986 L 649.181 905.815 C 648.934 910.532 649.761 910.212 647.166 912.722 C 637.785 915.502 625.275 912.088 619.538 914.218 L 612.683 913.435 z"/>
<path transform="translate(0,0)" fill="rgb(231,209,118)" d="M 1221.08 913.378 C 1221.24 911.242 1221.58 909.746 1222.01 907.645 C 1227.16 902.786 1235.91 907.395 1242.74 905.903 C 1247.97 904.761 1243.17 901.184 1246.08 897.252 C 1249.63 896.634 1254.38 895.9 1257.23 898.428 L 1257.43 905.801 C 1257.04 910.64 1257.9 910.213 1255.13 912.681 C 1246.93 914.762 1235.08 913.278 1225.16 914.01 L 1221.08 913.378 z"/>
<path transform="translate(0,0)" fill="rgb(231,209,118)" d="M 1131.59 905.8 C 1138.54 905.757 1171.78 904.986 1176.22 906.763 C 1177.02 909.671 1177.11 910.332 1177.21 913.347 C 1174.17 913.679 1171.83 914.035 1168.75 913.849 C 1157.27 913.039 1144.65 914.218 1133.07 912.792 C 1131.17 910.134 1131.77 909.547 1131.59 905.8 z"/>
<path transform="translate(0,0)" fill="rgb(57,28,32)" d="M 510.164 395.738 C 510.591 397.729 510.961 399.295 511.156 401.321 C 506.871 405.297 487.87 428.493 487.246 432.751 L 484.621 433.701 L 485.074 435.89 C 483.679 435.834 483.7 435.693 482.486 434.949 C 482.416 429.862 505.445 401.882 510.164 395.738 z"/>
<path transform="translate(0,0)" fill="rgb(22,14,13)" d="M 508.163 446.3 L 507.904 449.235 L 510.673 450.409 C 500.27 452.697 499.376 462.915 497.929 472.036 C 497.095 464.507 500.942 460.696 493.145 459.065 C 494.341 457.292 495.551 455.527 496.772 453.771 C 501.442 447.077 501.054 447.557 508.163 446.3 z"/>
<path transform="translate(0,0)" fill="rgb(22,14,13)" d="M 1112.5 464.29 C 1118.64 461.497 1123.15 461.003 1129.45 464.014 L 1129.22 468.878 C 1123.71 464.296 1120.73 464.205 1114.05 465.984 L 1112.5 464.29 z"/>
<path transform="translate(0,0)" fill="rgb(1,1,1)" d="M 941.797 149.252 C 944.564 153.354 942.493 201.125 943.084 209.835 C 943.504 216.023 946.361 212.258 949.771 215.474 C 946.881 217.806 938.372 220.602 934.577 220.889 L 933.795 216.905 C 923.234 216.816 925.077 227.591 908.383 217.047 C 897.362 205.883 899.543 186.308 911.476 176.853 C 915.477 173.684 918.642 172.872 923.425 171.386 C 926.856 172.733 930.7 174.602 934.098 176.157 C 934.186 170.773 934.32 165.334 934.15 159.948 C 934.004 155.339 930.352 156.555 927.611 153.584 C 932.088 151.898 937.163 150.573 941.797 149.252 z"/>
<path transform="translate(0,0)" fill="rgb(255,255,255)" d="M 921.119 174.861 C 926.329 175.272 930.681 176.69 932.773 182.124 C 936.176 190.965 935.729 202.353 932.736 211.236 C 931.627 214.526 927.728 215.69 924.765 216.878 C 906.355 210.378 904.996 185.192 921.119 174.861 z"/>
<path transform="translate(0,0)" fill="rgb(255,255,255)" d="M 638.064 467.094 C 619.589 431.437 706.218 445.22 662.026 472.231 C 672.621 477.507 676.065 480.298 676.747 492.449 C 668.906 508.818 643.541 511.072 634.923 496.859 C 633.167 493.989 632.656 490.528 633.508 487.273 C 635.317 480.104 641.01 477.337 646.864 473.976 C 643.198 472.133 641.065 469.869 638.064 467.094 z"/>
<path transform="translate(0,0)" fill="rgb(255,255,255)" d="M 646.864 473.976 C 648.009 474.866 648.946 475.857 650.325 475.972 C 657.252 479.566 665.24 483.361 670.814 488.849 L 671.199 489.301 C 672.657 491.033 672.883 491.313 673.907 493.292 L 676.747 492.449 C 668.906 508.818 643.541 511.072 634.923 496.859 C 633.167 493.989 632.656 490.528 633.508 487.273 C 635.317 480.104 641.01 477.337 646.864 473.976 z"/>
<path transform="translate(0,0)" fill="rgb(22,14,13)" d="M 646.864 473.976 C 648.009 474.866 648.946 475.857 650.325 475.972 C 616.53 496.705 668.477 517.914 670.814 488.849 L 671.199 489.301 C 672.657 491.033 672.883 491.313 673.907 493.292 L 676.747 492.449 C 668.906 508.818 643.541 511.072 634.923 496.859 C 633.167 493.989 632.656 490.528 633.508 487.273 C 635.317 480.104 641.01 477.337 646.864 473.976 z"/>
<path transform="translate(0,0)" fill="rgb(1,1,1)" d="M 638.064 467.094 C 638.186 463.498 638.439 460.546 638.811 456.964 L 639.826 456.496 C 644.925 463.923 650.796 465.974 658.808 469.96 C 660.539 470.838 660.583 470.784 662.026 472.231 C 672.621 477.507 676.065 480.298 676.747 492.449 L 673.907 493.292 C 672.883 491.313 672.657 491.033 671.199 489.301 L 670.814 488.849 C 665.24 483.361 657.252 479.566 650.325 475.972 C 648.946 475.857 648.009 474.866 646.864 473.976 C 643.198 472.133 641.065 469.869 638.064 467.094 z"/>
<path transform="translate(0,0)" fill="rgb(22,14,13)" d="M 638.064 467.094 C 619.589 431.437 706.218 445.22 662.026 472.231 C 660.583 470.784 660.539 470.838 658.808 469.96 C 684.058 456.297 652.117 435.269 639.826 456.496 L 638.811 456.964 C 638.439 460.546 638.186 463.498 638.064 467.094 z"/>
<path transform="translate(0,0)" fill="rgb(1,1,1)" d="M 962.122 381.935 C 959.251 380.058 956.24 378.173 954.153 375.419 C 951.803 372.3 950.855 368.344 951.536 364.499 C 953.498 353.378 966.672 351.458 975.896 353.118 C 994.462 357.422 990.872 371.125 977.576 379.647 C 1017.44 402.486 960.668 431.03 947.787 400.275 C 948.733 389.256 952.429 386.315 962.122 381.935 z"/>
<path transform="translate(0,0)" fill="rgb(255,255,255)" d="M 962.122 381.935 L 963.949 383.581 C 1011.59 399.838 964.547 424.973 953.437 399.869 L 947.787 400.275 C 948.733 389.256 952.429 386.315 962.122 381.935 z"/>
<path transform="translate(0,0)" fill="rgb(22,14,13)" d="M 962.122 381.935 L 963.949 383.581 C 957.129 389.523 954.532 390.752 953.437 399.869 L 947.787 400.275 C 948.733 389.256 952.429 386.315 962.122 381.935 z"/>
<path transform="translate(0,0)" fill="rgb(255,255,255)" d="M 975.896 353.118 C 994.462 357.422 990.872 371.125 977.576 379.647 L 976.198 377.22 C 963.002 377.336 942.121 355.984 971.631 355.424 C 973.981 355.047 974.07 354.804 975.896 353.118 z"/>
<path transform="translate(0,0)" fill="rgb(22,14,13)" d="M 975.896 353.118 C 994.462 357.422 990.872 371.125 977.576 379.647 L 976.198 377.22 C 985.24 367.521 987.871 358.69 971.631 355.424 C 973.981 355.047 974.07 354.804 975.896 353.118 z"/>
<path transform="translate(0,0)" fill="rgb(1,1,1)" d="M 1077.29 172.187 C 1107.51 169.849 1116.4 209.014 1085.61 221.413 C 1074.12 222.184 1064.46 217.633 1060.15 206.459 C 1057.54 199.66 1057.81 192.096 1060.89 185.498 C 1064.66 177.574 1069.49 174.991 1077.29 172.187 z"/>
<path transform="translate(0,0)" fill="rgb(255,255,255)" d="M 1077.04 175.074 C 1097.79 175.184 1101.37 207.587 1086 218.442 C 1065.65 218.193 1061.3 186.477 1077.04 175.074 z"/>
<path transform="translate(0,0)" fill="rgb(1,1,1)" d="M 592.382 172.196 C 625.001 171.209 627.974 212.927 598.736 221.709 C 595.197 221.692 590.467 220.895 587.246 219.43 C 581.346 216.723 576.817 211.714 574.716 205.572 C 572.434 198.98 572.837 191.755 575.838 185.458 C 579.668 177.586 584.603 174.971 592.382 172.196 z"/>
<path transform="translate(0,0)" fill="rgb(255,255,255)" d="M 593.013 174.861 C 613.311 177.056 616.397 208.674 600.055 218.772 C 581.153 217.542 575.247 184.78 593.013 174.861 z"/>
<path transform="translate(0,0)" fill="rgb(1,1,1)" d="M 1111.77 352.176 C 1124.41 352.374 1131.5 358.474 1134.37 370.914 C 1138.63 390.252 1130.52 410.684 1109.55 414.6 C 1100.74 416.246 1096.55 411.095 1095.86 403.091 C 1097.14 399.787 1096.22 400.778 1099.2 399.274 C 1102.27 400.548 1101.17 399.817 1103.36 403.168 C 1101.91 406.219 1101.39 405.964 1102 408.822 C 1113.9 418.174 1131.04 395.355 1125.42 386.266 C 1123.41 387.58 1117.89 391.328 1115.89 391.793 C 1111.25 392.883 1106.38 392.197 1102.22 389.87 C 1085.72 380.465 1089.65 357.035 1111.77 352.176 z"/>
<path transform="translate(0,0)" fill="rgb(255,255,255)" d="M 1110.74 355.019 C 1129.67 354.982 1131.62 379.89 1116.12 389.312 C 1096.3 389.505 1094.98 363.598 1110.74 355.019 z"/>
<path transform="translate(0,0)" fill="rgb(1,1,1)" d="M 1222.78 149.478 C 1229.56 153.346 1247.49 211.948 1257.06 217.86 C 1258.11 218.507 1258.26 217.782 1259.61 219.689 C 1256.94 221.003 1235.8 221.18 1233.29 219.712 L 1234.21 218.572 C 1246.78 215.965 1238.47 207.034 1234.82 200.011 C 1233.67 197.801 1231.52 198.15 1229.25 197.904 L 1206.82 197.929 C 1205.1 202.081 1203.4 206.189 1201.98 210.448 C 1199.49 217.873 1206.37 216.31 1207.49 220.462 C 1200.29 220.48 1193.1 220.543 1185.91 220.65 C 1188.19 219.243 1192.59 216.398 1193.89 214.139 C 1204.74 195.193 1213.96 169.66 1222.78 149.478 z"/>
<path transform="translate(0,0)" fill="rgb(255,255,255)" d="M 1220.64 165.846 C 1222.6 167.932 1231.15 189.525 1232.82 193.602 L 1220.85 193.708 L 1208.9 193.572 C 1212.07 184.812 1216.76 174.178 1220.64 165.846 z"/>
<path transform="translate(0,0)" fill="rgb(1,1,1)" d="M 1710.56 148.859 L 1711.42 150.22 C 1708.73 158.929 1678.51 210.174 1672.17 220.505 C 1671.2 222.075 1670.16 222.113 1668.68 222.111 C 1668.49 217.027 1694.23 173.479 1697.9 166.973 C 1699.5 164.379 1701.57 161.856 1701.5 158.999 C 1697.33 156.425 1687.02 159.617 1686.84 160.68 C 1684.35 176.243 1672.48 204.672 1654.61 183.858 C 1649.3 177.406 1656.78 157.103 1663.36 154.771 C 1689.09 145.657 1683.34 166.872 1710.56 148.859 z"/>
<path transform="translate(0,0)" fill="rgb(255,255,255)" d="M 1674.31 153.606 C 1691.85 161.828 1681.58 178.085 1670.08 186.347 C 1665.93 186.251 1665.24 186.462 1662.17 184.321 C 1656.22 174.831 1667.14 159.77 1674.31 153.606 z"/>
<path transform="translate(0,0)" fill="rgb(1,1,1)" d="M 496.392 150.258 C 506.125 149.172 513.062 150.723 522.557 152.876 C 522.231 152.802 528.815 150.55 529.191 150.434 C 530.519 153.641 530.41 172.218 530.486 177.105 C 529.414 174.594 528.291 172.105 527.118 169.64 C 523.913 162.989 518.852 156.932 511.642 154.522 C 506.427 152.818 500.741 153.326 495.911 155.929 C 475.265 166.848 473.236 209.343 501.806 216.968 C 515.367 217.439 517.914 215.461 529.294 208.769 L 529.689 209.677 C 519.203 222.613 502.716 225.136 487.684 218.695 C 469.166 210.76 464.325 185.525 472.712 168.659 C 478.072 157.882 485.505 153.832 496.392 150.258 z"/>
<path transform="translate(0,0)" fill="rgb(255,255,255)" d="M 571.103 448.438 C 573.073 446.504 574.777 444.065 577.019 443.739 C 579.889 449.354 578.641 478.035 578.601 485.922 C 582.183 486.018 585.469 485.67 588.422 487.444 C 585.183 489.113 579.392 491.519 577.4 494.027 C 577.176 501.096 590.346 501.592 595.415 502.76 C 590.127 503.529 564.301 505.078 561.519 503.211 C 564.514 501.568 569.228 499.485 570.715 496.623 C 570.853 493.217 570.917 492.525 570.026 489.119 C 565.763 489.917 546.861 490.377 542.558 488.516 C 543.653 483.092 566.121 454.956 571.103 448.438 z"/>
<path transform="translate(0,0)" fill="rgb(1,1,1)" d="M 571.103 448.438 C 573.073 446.504 574.777 444.065 577.019 443.739 C 579.889 449.354 578.641 478.035 578.601 485.922 C 582.183 486.018 585.469 485.67 588.422 487.444 C 585.183 489.113 579.392 491.519 577.4 494.027 C 577.176 501.096 590.346 501.592 595.415 502.76 C 590.127 503.529 564.301 505.078 561.519 503.211 C 564.514 501.568 569.228 499.485 570.715 496.623 C 570.853 493.217 570.917 492.525 570.026 489.119 L 570.968 485.944 C 571.655 479.965 571.269 466.107 571.571 458.764 C 573.176 456.091 571.75 451.426 571.103 448.438 z"/>
<path transform="translate(0,0)" fill="rgb(57,28,32)" d="M 571.103 448.438 C 571.75 451.426 573.176 456.091 571.571 458.764 L 570.61 456.492 C 566.506 457.62 550.477 480.697 546.317 486 L 570.968 485.944 L 570.026 489.119 C 565.763 489.917 546.861 490.377 542.558 488.516 C 543.653 483.092 566.121 454.956 571.103 448.438 z"/>
<path transform="translate(0,0)" fill="rgb(255,255,255)" d="M 421.596 395.248 C 424.434 392.299 423.914 391.892 427.272 391.153 C 432.984 397.129 426.621 425.099 429.973 431.37 C 434.377 434.986 437.568 430.762 439.835 434.523 C 435.204 438.469 426.231 432.338 429.544 445.051 C 432.349 447.233 437.097 447.186 439.891 449.549 L 438.753 450.328 L 439.453 449.121 L 438.875 448.767 L 437.186 450.479 C 433.96 450.453 412.847 450.59 411.641 449.862 C 414.572 448.277 419.327 446.187 420.949 443.589 C 421.209 440.369 421.314 439.535 420.767 436.26 L 391.743 435.907 C 395.769 428.039 415.49 403.218 421.596 395.248 z"/>
<path transform="translate(0,0)" fill="rgb(1,1,1)" d="M 421.596 395.248 C 424.434 392.299 423.914 391.892 427.272 391.153 C 432.984 397.129 426.621 425.099 429.973 431.37 C 434.377 434.986 437.568 430.762 439.835 434.523 C 435.204 438.469 426.231 432.338 429.544 445.051 C 432.349 447.233 437.097 447.186 439.891 449.549 L 438.753 450.328 L 439.453 449.121 L 438.875 448.767 L 437.186 450.479 C 433.96 450.453 412.847 450.59 411.641 449.862 C 414.572 448.277 419.327 446.187 420.949 443.589 C 421.209 440.369 421.314 439.535 420.767 436.26 L 420.444 433.161 C 422.778 429.902 421.944 408.536 422.152 402.233 C 423.214 400.149 422.185 398.081 421.596 395.248 z"/>
<path transform="translate(0,0)" fill="rgb(57,28,32)" d="M 421.596 395.248 C 422.185 398.081 423.214 400.149 422.152 402.233 C 417.464 403.892 401.402 426.916 397.519 432.362 C 404.02 432.308 414.453 431.863 420.444 433.161 L 420.767 436.26 L 391.743 435.907 C 395.769 428.039 415.49 403.218 421.596 395.248 z"/>
<path transform="translate(0,0)" fill="rgb(1,1,1)" d="M 1461.51 172.101 C 1490.16 170.87 1475.99 199.972 1481.17 213.642 C 1483.71 215.511 1482.88 214.968 1486.89 214.412 L 1487.68 215.83 C 1480.19 229.619 1473.4 215.004 1469.7 216.095 C 1458.9 219.282 1456.68 227.273 1446.14 215.362 C 1442.85 199.572 1455.31 197.561 1466.38 191.956 C 1474.65 187.767 1473.37 174.511 1463.53 174.64 C 1455.78 174.741 1457.5 184.42 1453.17 188.486 L 1450.81 188.254 C 1447.51 185.643 1448.31 186.921 1447.04 183.439 C 1447.99 177.123 1456.21 173.73 1461.51 172.101 z"/>
<path transform="translate(0,0)" fill="rgb(255,255,255)" d="M 1469.97 192.902 C 1471.96 194.667 1471.55 194.423 1471.91 197.071 C 1473.52 208.997 1470.62 214.577 1458.49 215.429 C 1448.71 202.632 1459.77 197.705 1469.97 192.902 z"/>
<path transform="translate(0,0)" fill="rgb(1,1,1)" d="M 970.45 172.146 C 1003.39 170.843 981.345 203.545 991.365 214.331 L 996.555 214.466 L 996.884 215.679 C 991.824 225.557 987.468 222.219 980.683 215.998 C 970.742 215.589 970.08 228.214 956.219 216.919 C 950.758 200.246 963.184 198.29 974.846 192.489 C 983.933 187.969 983.629 176.207 971.696 174.277 C 962.416 177.379 968.802 188.418 960.642 188.367 C 957.066 186.071 957.982 187.266 956.341 183.92 C 956.721 177.49 965.288 173.81 970.45 172.146 z"/>
<path transform="translate(0,0)" fill="rgb(255,255,255)" d="M 979.081 192.835 L 980.402 193.501 C 983.73 205.506 981.504 214.448 967.988 215.395 C 957.527 202.822 968.907 197.855 979.081 192.835 z"/>
<path transform="translate(0,0)" fill="rgb(1,1,1)" d="M 730.955 151.293 C 736.429 150.749 753.721 150.896 758.899 151.44 C 758.442 154.225 755.675 151.845 752.382 155.249 C 751.356 160.746 768.243 195.784 771.655 203.495 C 775.643 193.996 787.804 166.707 788.848 158.36 C 787.355 154.141 786.637 154.21 781.96 151.689 C 785.002 150.713 798.508 150.874 802.004 151.337 L 802.648 152.259 L 800.887 152.439 C 792.462 159.123 775.208 209.07 769.34 222.944 C 759.375 202.159 749.956 176.12 738.094 156.502 C 736.889 154.509 733.083 152.411 730.955 151.293 z"/>
<path transform="translate(0,0)" fill="rgb(1,1,1)" d="M 813.415 172.129 C 845.055 170.313 825.407 207.46 835.413 215.02 L 839.38 214.451 L 840.55 215.449 C 834.811 224.995 830.612 222.103 823.648 215.947 C 813.907 216 812.438 228.115 799.514 216.904 C 793.039 199.45 811.481 194.838 824.166 189.651 C 824.07 183.858 824.575 175.345 817.657 174.037 C 811.689 175.951 808.324 182.51 804.836 187.737 C 802.285 188.427 800.097 187.281 798.998 185.011 C 801.194 177.455 806.448 174.531 813.415 172.129 z"/>
<path transform="translate(0,0)" fill="rgb(255,255,255)" d="M 822.158 192.828 L 823.755 193.939 L 823.913 194.956 C 825.754 207.077 824.708 214.67 810.906 215.381 C 800.601 203.123 812.434 197.644 822.158 192.828 z"/>
<path transform="translate(0,0)" fill="rgb(1,1,1)" d="M 1123.76 172.311 C 1124.44 174.744 1123.34 176.768 1125.46 179.135 L 1131.01 176.063 C 1159.91 159.9 1149.71 199.72 1152.37 214.083 C 1153 217.496 1156.28 217.193 1157.75 220.367 C 1154.42 220.407 1138.68 221.069 1137.04 219.928 C 1137.89 219.292 1141.95 216.186 1142.13 215.704 C 1144.48 209.34 1143.23 187.337 1142.41 181.371 C 1135.01 174.825 1131.29 178.805 1124.87 183.977 C 1124.82 189.263 1124.27 211.256 1125.23 215.042 C 1127.29 216.42 1129.11 217.524 1131.26 218.771 L 1131.34 219.985 C 1128.11 221.377 1115.4 220.551 1110.98 220.459 L 1110.21 219.622 C 1112.67 218.112 1113.41 217.632 1115.5 215.658 C 1116.58 210.992 1116.11 187.828 1115.76 181.491 C 1115.66 179.693 1112.78 179.003 1110.83 178.185 L 1110.54 177.145 C 1114.59 175.053 1119.39 173.708 1123.76 172.311 z"/>
<path transform="translate(0,0)" fill="rgb(1,1,1)" d="M 1711.18 182.028 C 1738.06 179.366 1727.33 212.622 1708.7 220.613 C 1683.74 220.556 1691.05 191.522 1711.18 182.028 z"/>
<path transform="translate(0,0)" fill="rgb(255,255,255)" d="M 1714.34 184.783 C 1733.74 185.897 1720.69 209.936 1710.71 217.031 C 1706.13 217.041 1706.08 217.125 1702.64 214.879 C 1697.07 205.682 1706.99 190.556 1714.34 184.783 z"/>
<path transform="translate(0,0)" fill="rgb(1,1,1)" d="M 1370.6 173.365 C 1370.54 184.916 1370.4 196.943 1370.88 208.501 C 1371 211.414 1372.89 212.766 1375.06 214.568 C 1387.2 218.276 1389.6 206.69 1389.78 197.386 C 1389.9 191.126 1390.58 179.365 1384.36 175.481 C 1383.22 174.769 1382.94 175.015 1382.46 173.683 C 1384.14 172.617 1395.23 173.37 1398.04 173.458 L 1398.03 185.5 C 1398 191.73 1397.53 204.986 1398.33 211.506 C 1398.55 213.297 1402.37 212.497 1404 216.289 C 1401.69 217.957 1392.4 221.199 1389.99 220.059 C 1389.81 217.959 1389.78 216.471 1389.78 214.362 C 1385.51 215.003 1383.69 219.164 1380.48 220.194 C 1352 229.313 1366.15 186.634 1360.81 177.141 C 1358.5 175.722 1357.86 175.355 1355.98 173.425 L 1370.6 173.365 z"/>
<path transform="translate(0,0)" fill="rgb(1,1,1)" d="M 1534.68 173.385 C 1538.45 173.318 1552.77 172.632 1555.1 174.391 C 1551.2 176.366 1551.29 175.51 1549.99 178.71 C 1552.45 186.698 1559.09 199.911 1562.83 207.902 C 1565.6 200.434 1570.76 187.394 1573.08 179.348 C 1573.69 177.216 1570 175.899 1569.94 173.431 C 1572.85 173.352 1579.61 172.713 1581.63 174.089 C 1576.09 180.448 1570.27 198.864 1566.98 207.567 C 1563.28 217.194 1557.1 240.456 1544.22 243.107 C 1539.45 244.09 1536.92 240.092 1537.03 235.376 C 1541.46 230.225 1542.34 233.928 1550.1 232.996 C 1555.44 229.957 1556.48 223.962 1558.37 218.132 C 1554.58 208.674 1541.23 179.329 1534.68 173.385 z"/>
<path transform="translate(0,0)" fill="rgb(1,1,1)" d="M 1769.26 479.513 C 1814.18 472.019 1784.15 442.544 1771.26 457.742 C 1771.51 460.721 1771.96 461.576 1773.08 464.277 C 1772.22 467.491 1769.97 467.813 1766.82 467.679 C 1765.26 466.341 1763.7 464.87 1764.17 462.515 C 1769.21 437.437 1822.22 456.494 1792.57 477.005 C 1791.69 477.61 1790.8 478.201 1789.9 478.777 C 1815.05 490.946 1804.75 511.166 1779.99 512.341 L 1778.8 509.307 C 1794.36 507.544 1802.15 494.22 1788.24 483.632 C 1783.21 479.81 1775.54 479.927 1769.26 479.513 z"/>
<path transform="translate(0,0)" fill="rgb(1,1,1)" d="M 1284.48 172.075 C 1292.39 171.794 1304.59 176.236 1302.79 185.836 L 1300.49 187.149 C 1290.61 187.207 1296.01 181 1289.48 175.945 C 1266.89 169.553 1264.77 220.802 1294.84 212.777 C 1298.18 210.323 1303.88 204.092 1306.98 200.897 C 1302.97 208.976 1299.58 216.27 1290.6 219.966 C 1286.24 221.791 1281.32 221.74 1277 219.822 C 1264.76 214.458 1261.2 197.569 1266.63 186.241 C 1270.7 177.766 1276.05 175.077 1284.48 172.075 z"/>
<path transform="translate(0,0)" fill="rgb(1,1,1)" d="M 1330.44 172.125 C 1337.14 171.885 1353.35 176.517 1349.31 184.995 C 1347.11 186.617 1346.42 187.431 1343.75 187.681 C 1340.92 186.046 1339.15 180.531 1336.87 176.757 C 1315.93 166.026 1308.99 218.691 1340.35 213.336 C 1344.19 210.865 1350.11 204.288 1353.51 200.774 C 1327.72 253.861 1285 189.755 1330.44 172.125 z"/>
<path transform="translate(0,0)" fill="rgb(1,1,1)" d="M 1510.41 172.127 C 1518.32 172.147 1527.94 173.176 1528.63 182.989 C 1527.33 186.619 1528.24 185.52 1525.43 187.537 C 1518.64 186.369 1519.78 177.955 1516.94 176.762 C 1494.03 167.14 1490.2 220.571 1521.24 212.896 C 1524.89 210.065 1529.47 204.663 1532.69 201.1 L 1532.45 201.681 C 1529.15 209.316 1525.62 216.64 1517.29 220.044 C 1512.99 221.814 1508.16 221.774 1503.9 219.933 C 1488.82 213.589 1486.39 191.267 1497.16 180.101 C 1501.41 175.687 1504.73 174.327 1510.41 172.127 z"/>
<path transform="translate(0,0)" fill="rgb(1,1,1)" d="M 857.982 149.27 C 861.559 153.681 857.003 206.731 860.255 215.795 C 860.956 217.75 864.236 218.416 866.697 219.431 L 865.77 220.527 C 858.845 220.597 851.92 220.627 844.995 220.617 C 843.875 220.589 844.427 220.729 843.44 219.856 C 852.872 214.799 851.237 209.558 850.877 200.011 C 850.347 185.925 851.983 170.672 849.771 156.984 C 849.554 155.644 844.956 155.014 843.666 154.701 L 843.105 153.602 C 847.749 151.789 853.12 150.541 857.982 149.27 z"/>
<path transform="translate(0,0)" fill="rgb(1,1,1)" d="M 639.208 172.047 C 643.535 171.841 650.753 173.826 655.218 174.847 C 655.079 179.423 655.961 187.095 656.366 191.871 C 653.448 185.07 645.912 167.489 635.613 176.967 C 630.331 190.857 656.061 193.79 659.613 207.129 C 661.797 215.331 650.804 220.539 645.11 221.747 C 639.986 221.307 633.233 219.735 628.061 218.689 L 628.072 201.013 C 631.425 210.837 637.982 227.52 651.149 215.276 C 654.788 202.047 605.232 187.691 639.208 172.047 z"/>
<path transform="translate(0,0)" fill="rgb(1,1,1)" d="M 680.209 172.028 C 685.338 171.991 690.93 173.774 695.957 175.091 L 696.315 189.572 C 694.292 184.699 692.959 179.819 687.922 177.032 C 685.12 174.979 677.424 172.272 675.81 177.349 C 671.458 191.044 698.006 194.4 700.53 207.972 C 701.899 215.333 691.148 220.493 686.189 221.71 C 680.735 221.352 674.058 219.8 668.598 218.707 L 668.855 200.839 C 670.905 207.607 671.801 212.981 678.322 217.097 C 682.279 219.594 688.684 221.361 691.158 215.723 C 693.987 209.024 688.959 205.428 683.992 202.276 C 670.021 193.409 657.475 181.553 680.209 172.028 z"/>
<path transform="translate(0,0)" fill="rgb(1,1,1)" d="M 1020.78 355.222 C 1023.98 353.475 1024.46 353.202 1028.09 352.556 C 1030.5 356.056 1029.35 399.763 1029.66 407.696 C 1033.44 407.826 1039.63 407.489 1042.48 409.411 L 1042.2 410.931 C 1037.5 412.354 1012.88 412.226 1009.03 409.871 C 1011.5 407.539 1017.72 407.879 1021.39 407.804 C 1021.52 402.378 1021.52 396.065 1021.83 390.729 C 1021.1 388.122 1021.46 363.64 1021.48 359.454 C 1017.99 360.198 1012.72 361.66 1009.55 360.222 C 1011.69 357.624 1017.23 356.406 1020.78 355.222 z"/>
<path transform="translate(0,0)" fill="rgb(22,14,13)" d="M 1021.48 359.454 C 1017.99 360.198 1012.72 361.66 1009.55 360.222 C 1011.69 357.624 1017.23 356.406 1020.78 355.222 C 1023.06 360.954 1023.39 385.978 1021.83 390.729 C 1021.1 388.122 1021.46 363.64 1021.48 359.454 z"/>
<path transform="translate(0,0)" fill="rgb(1,1,1)" d="M 1435.14 172.56 L 1436.47 172.322 C 1440.33 173.741 1439.02 172.764 1441.49 175.969 C 1441.62 179.684 1442.03 178.254 1439.9 181.343 C 1436.22 182.804 1435.29 181.227 1430.18 179.817 C 1427.01 180.42 1425.8 182.522 1423.6 185.086 C 1423.6 194.111 1422.81 205.235 1424.01 213.985 C 1424.41 216.926 1428.58 218.476 1431.34 220.027 L 1429.01 220.581 L 1431.4 220.195 L 1429.67 219.243 L 1428.47 220.613 C 1422.62 220.411 1416.06 220.555 1410.14 220.569 C 1408.32 220.631 1409.12 220.894 1407.68 219.658 C 1409.22 218.72 1414.69 215.787 1414.72 214.041 C 1414.85 203.925 1415.23 193.028 1414.59 182.996 C 1412.29 179.632 1413.04 180.632 1408.8 178.905 L 1408.72 178.017 C 1412.57 175.981 1418.68 172.755 1423.03 173.779 C 1423.65 175.613 1423.83 176.906 1424.17 178.816 C 1429.49 177.798 1424.47 175.134 1435.14 172.56 z"/>
<path transform="translate(0,0)" fill="rgb(1,1,1)" d="M 563.548 171.497 C 568.098 172.521 570.278 174.252 570.542 178.789 L 568.806 180.608 C 564.54 181.61 555.642 176.619 553.192 184.535 C 550.87 192.038 552.108 203.407 552.535 211.267 C 552.799 216.148 554.696 216.766 558.225 219.571 L 557.262 219.179 L 556.498 220.618 C 551.355 220.408 544.994 220.563 539.75 220.564 C 537.343 220.555 537.809 220.946 536.536 219.693 C 537.792 219.009 541.755 217.251 542.063 216.062 C 544.496 206.676 543.842 191.858 542.95 182.1 C 542.792 180.375 538.433 179.269 536.508 178.514 C 541.998 175.693 544.938 174.778 550.694 172.952 L 551.874 173.596 L 552.125 179.58 L 552.975 180.337 C 557.195 175.938 558.43 174.756 563.548 171.497 z"/>
<path transform="translate(0,0)" fill="rgb(1,1,1)" d="M 1641.72 150.086 L 1641.83 150.151 C 1642.64 152.302 1640.16 153.843 1638.25 155.627 C 1621.27 171.433 1621.99 208.656 1633.34 227.446 C 1634.64 229.589 1640.14 234.963 1642.24 237.466 L 1641.81 238.389 L 1639.3 237.58 C 1609.52 211.275 1606.34 172.86 1641.72 150.086 z"/>
<path transform="translate(0,0)" fill="rgb(1,1,1)" d="M 1736.07 149.843 C 1739.4 150.585 1741.68 152.569 1744.29 154.609 C 1765.19 170.94 1768.77 202.877 1753.44 224.185 C 1750.16 228.739 1746.92 231.629 1742.61 235.396 C 1739.42 237.653 1737.66 238.306 1734.1 239.825 C 1746.13 228.981 1751.94 220.956 1753.82 203.874 C 1755.22 191.184 1753.64 173.896 1747.16 162.658 C 1746.34 161.241 1737.86 152.033 1736.07 149.843 z"/>
<path transform="translate(0,0)" fill="rgb(1,1,1)" d="M 1011.92 160.767 C 1014.94 163.821 1011.33 168.486 1014.03 172.858 C 1016.63 173.329 1018.91 173.593 1021.52 173.887 L 1022.57 175.349 C 1020.22 178.886 1016.82 174.944 1013.48 178.599 C 1012.05 187.17 1013.16 200.115 1013.23 209.059 C 1013.26 211.807 1014.95 213.187 1016.69 214.705 C 1019.86 215.659 1020.61 215.308 1023.57 214.109 L 1024.41 213.762 L 1025.39 214.455 L 1024.18 215.846 C 1021.01 219.394 1017.44 221.843 1012.53 221.916 C 998.259 215.394 1008.05 184.8 1003.76 177.345 L 1000.03 176.646 L 999.56 175.465 C 1004.7 170.013 1007.68 166.933 1011.92 160.767 z"/>
<path transform="translate(0,0)" fill="rgb(231,209,118)" d="M 1732.98 609.641 L 1746.06 609.728 L 1746.07 654.642 L 1734.09 654.751 C 1734.27 639.272 1733.33 625.048 1732.98 609.641 z"/>
<path transform="translate(0,0)" fill="rgb(231,209,118)" d="M 532.251 553.539 L 577.177 553.541 L 577.212 565.761 L 532.427 565.769 L 532.251 553.539 z"/>
<path transform="translate(0,0)" fill="rgb(231,209,118)" d="M 1144.47 549.641 L 1189.16 549.699 L 1189.19 561.778 L 1144.4 561.832 L 1144.47 549.641 z"/>
<path transform="translate(0,0)" fill="rgb(231,209,118)" d="M 1734.15 699.421 L 1746.06 699.36 C 1746.12 705.43 1747.13 740.997 1744.91 744.313 L 1733.01 744.587 C 1732.85 730.631 1734.04 714.106 1734.15 699.421 z"/>
<path transform="translate(0,0)" fill="rgb(231,209,118)" d="M 1732.93 789.03 L 1746.07 789.021 L 1746.04 833.964 L 1734.08 834.019 C 1734.17 818.488 1734.12 804.516 1732.93 789.03 z"/>
<path transform="translate(0,0)" fill="rgb(231,209,118)" d="M 1245.2 807.144 L 1257.24 807.202 L 1257.28 852.038 L 1245.23 852 L 1245.2 807.144 z"/>
<path transform="translate(0,0)" fill="rgb(231,209,118)" d="M 637.161 807.134 L 649.098 807.101 L 649.132 852.025 L 637.121 852.039 L 637.161 807.134 z"/>
<path transform="translate(0,0)" fill="rgb(231,209,118)" d="M 1125.97 588.071 L 1137.95 588.054 L 1137.95 632.966 L 1126 632.98 L 1125.97 588.071 z"/>
<path transform="translate(0,0)" fill="rgb(231,209,118)" d="M 1233.98 549.668 L 1257.23 549.692 L 1257.29 583.065 L 1245.23 583.027 L 1245.3 561.934 C 1241.68 561.972 1238.17 562.447 1235.1 560.822 C 1233.21 557.999 1233.87 553.301 1233.98 549.668 z"/>
<path transform="translate(0,0)" fill="rgb(231,209,118)" d="M 647.129 553.527 L 648.473 554.211 C 650.578 562.438 653.734 587.913 637.806 582.626 C 636.558 579.521 637.053 573.375 637.113 569.75 C 637.26 568.002 637.029 567.899 636.224 566.365 C 632.345 564.907 626.376 565.591 622.058 565.779 L 621.995 553.611 L 647.129 553.527 z"/>
<path transform="translate(0,0)" fill="rgb(231,209,118)" d="M 1125.99 677.671 L 1137.93 677.702 L 1138.01 722.373 L 1125.98 722.435 L 1125.99 677.671 z"/>
<path transform="translate(0,0)" fill="rgb(231,209,118)" d="M 517.799 775.011 L 529.764 775.017 L 529.675 819.845 L 517.805 819.988 L 517.799 775.011 z"/>
<path transform="translate(0,0)" fill="rgb(231,209,118)" d="M 1245.17 717.873 C 1248.8 717.759 1253.9 717.292 1256.82 719.115 C 1257.97 728.266 1257.28 752.369 1257.23 762.662 L 1245.27 762.739 L 1245.17 717.873 z"/>
<path transform="translate(0,0)" fill="rgb(231,209,118)" d="M 1245.18 627.904 C 1248.29 627.833 1254.59 627.292 1256.79 629.123 C 1257.96 638.298 1257.31 662.518 1257.28 672.842 L 1245.19 672.806 L 1245.18 627.904 z"/>
<path transform="translate(0,0)" fill="rgb(231,209,118)" d="M 517.785 595.703 L 529.715 595.75 L 529.611 640.48 L 517.812 640.536 L 517.785 595.703 z"/>
<path transform="translate(0,0)" fill="rgb(231,209,118)" d="M 1853.52 807.195 L 1865.4 807.125 C 1865.9 821.623 1865.6 837.373 1865.56 851.976 L 1853.61 851.922 L 1853.52 807.195 z"/>
<path transform="translate(0,0)" fill="rgb(231,209,118)" d="M 1853.5 717.85 L 1865.47 717.831 C 1865.71 732.793 1865.72 747.757 1865.49 762.718 L 1853.6 762.57 L 1853.5 717.85 z"/>
<path transform="translate(0,0)" fill="rgb(231,209,118)" d="M 517.765 685.152 L 529.686 685.125 L 529.745 730.011 C 526.197 730.166 521.103 730.652 518.233 728.87 C 517.056 720.085 517.72 695.174 517.765 685.152 z"/>
<path transform="translate(0,0)" fill="rgb(231,209,118)" d="M 637.118 717.862 C 640.665 717.828 645.638 717.342 648.603 718.9 C 649.823 726.442 649.148 753.568 649.092 762.636 L 637.13 762.687 L 637.118 717.862 z"/>
<path transform="translate(0,0)" fill="rgb(231,209,118)" d="M 1853.53 627.951 L 1865.47 627.878 C 1865.86 642.501 1865.6 658.105 1865.59 672.804 L 1853.57 672.74 L 1853.53 627.951 z"/>
<path transform="translate(0,0)" fill="rgb(231,209,118)" d="M 637.117 627.91 C 640.124 627.846 646.558 627.35 648.671 629.153 C 649.834 637.958 649.148 662.806 649.096 672.838 L 637.099 672.86 L 637.117 627.91 z"/>
<path transform="translate(0,0)" fill="rgb(231,209,118)" d="M 1125.99 767.13 L 1137.94 767.128 L 1137.98 812.201 C 1134.49 812.267 1129.15 812.662 1126.41 810.815 C 1125.23 802.526 1125.93 776.764 1125.99 767.13 z"/>
<path transform="translate(0,0)" fill="rgb(231,209,118)" d="M 1125.98 856.994 C 1129.25 856.919 1135.05 856.4 1137.45 858.286 C 1138.69 866.048 1138.06 892.599 1138.02 901.827 L 1125.99 901.842 L 1125.98 856.994 z"/>
<path transform="translate(0,0)" fill="rgb(231,209,118)" d="M 1863.99 560.507 L 1865.14 561.517 C 1866.09 567.523 1865.61 576.773 1865.47 583.116 C 1862 583.227 1858.79 583.649 1855.64 582.264 C 1853.05 578.693 1853.8 579.011 1853.18 574.077 C 1850.9 571.786 1851.43 572.495 1847.25 572.362 L 1831.18 572.312 L 1831.21 560.561 C 1842 560.758 1853.17 560.557 1863.99 560.507 z"/>
<path transform="translate(0,0)" fill="rgb(231,209,118)" d="M 1741.85 560.524 C 1749.61 560.56 1778.26 560.165 1784.14 561.307 C 1785.4 564.298 1785.01 568.864 1784.96 572.276 C 1777.34 572.352 1748.66 573.02 1742.65 571.699 C 1741.36 568.658 1741.79 563.996 1741.85 560.524 z"/>
<path transform="translate(0,0)" fill="rgb(1,1,1)" d="M 1859.16 476.652 C 1865.85 473.581 1871.2 471.594 1878.56 474.224 C 1883.81 476.078 1888.06 480.003 1890.34 485.082 C 1895.55 496.712 1889.69 504.487 1879.53 510.181 C 1865.89 517.832 1837.46 500.233 1854.38 491.373 C 1858 492.258 1856.69 491.483 1859.24 494.469 L 1859.45 497.052 C 1857.99 498.558 1856.88 499.667 1855.31 501.053 C 1856.88 514.204 1889.14 510.445 1883.29 488.215 C 1879.27 472.939 1868.8 473.79 1857.37 481.598 L 1859.16 476.652 z"/>
<path transform="translate(0,0)" fill="url(#Gradient1)" d="M 1638.94 427.404 C 1644.63 429.382 1650.17 431.973 1652.99 437.705 C 1654.56 440.864 1654.75 444.527 1653.53 447.834 C 1645.62 469.481 1604.77 461.181 1611.5 444.441 C 1614.88 441.884 1613.29 442.54 1617.57 442.035 C 1620.76 443.831 1619.81 442.743 1621.18 446.114 C 1619.96 451.416 1620.05 447.825 1616.59 452.482 C 1625.42 464.96 1648.73 455.345 1644.25 439.064 C 1641.06 427.431 1631.79 431.765 1624.92 427.546 C 1627.39 425.819 1629.33 425.928 1632.36 425.605 C 1635.41 426.021 1636.94 425.672 1638.94 427.404 z"/>
<path transform="translate(0,0)" fill="rgb(1,1,1)" d="M 1042.54 172.92 L 1043.6 172.866 C 1047.17 175.713 1043.64 207.795 1045.14 213.705 C 1045.74 216.11 1049.82 215.868 1051.96 220.041 C 1050.2 220.993 1034.37 220.598 1031.06 220.627 C 1029.23 220.613 1030.04 220.884 1028.58 219.778 C 1031.63 218.354 1033.29 217.814 1035.59 215.251 C 1036.37 209.273 1037.24 187.5 1035.19 181.064 C 1034.81 179.85 1030.24 179.137 1028.55 178.77 C 1030.58 176.758 1039.32 174.071 1042.54 172.92 z"/>
<path transform="translate(0,0)" fill="rgb(1,1,1)" d="M 885.632 172.928 L 887.327 173.111 C 889.936 178.103 886.147 207.505 888.916 214.896 C 889.983 217.748 891.783 217.738 895.218 219.388 L 894.68 220.555 C 888.126 220.502 881.572 220.517 875.018 220.6 C 872.71 220.778 873.772 220.999 871.724 219.905 C 872.99 219.238 878.011 216.69 878.351 215.506 C 880.359 208.51 879.5 191.6 879.161 184.247 C 878.855 177.627 875.256 181.22 871.83 178.526 C 873.985 176.744 882.52 174.039 885.632 172.928 z"/>
<path transform="translate(0,0)" fill="rgb(1,1,1)" d="M 1592.6 410.214 L 1591.63 410.087 C 1585.66 409.343 1567.24 407.928 1562.71 411.379 L 1561.03 417.093 L 1559.58 417.802 L 1558.41 417.011 C 1558.39 413.028 1559.55 401.658 1561.64 398.399 C 1564.27 399.014 1567.37 400.693 1568.54 400.824 C 1579.97 402.106 1592.66 400.847 1604.04 401.699 C 1601.03 405.534 1597.88 409.716 1594.63 413.315 L 1592.6 410.214 z"/>
<path transform="translate(0,0)" fill="rgb(1,1,1)" d="M 375.288 401.84 L 374.287 401.71 C 367.443 400.864 354.149 400.683 347.444 401.768 C 344.318 406.118 346.123 408.329 343.093 409.675 C 341.665 406.807 343.616 393.229 345.395 390.362 C 365.985 395.419 366.874 392.31 386.533 393.411 C 383.94 396.784 381.256 400.422 378.452 403.592 L 375.288 401.84 z"/>
<path transform="translate(0,0)" fill="rgb(1,1,1)" d="M 1632.36 425.605 L 1633.13 425.323 C 1644.01 421.225 1646.6 407.584 1634.43 402.619 C 1630.74 401.116 1622.77 403.331 1620.19 406.374 C 1621.37 408.345 1622.14 409.76 1623.14 411.833 C 1622.3 415.03 1622.96 413.839 1620.07 416.278 C 1616.62 416.476 1617.94 416.915 1615.19 414.506 C 1612.56 408.233 1616.2 403.12 1621.95 400.951 C 1642.45 393.219 1667.53 414.155 1638.94 427.404 C 1636.94 425.672 1635.41 426.021 1632.36 425.605 z"/>
<path transform="translate(0,0)" fill="rgb(1,1,1)" d="M 1162 466.025 C 1191.75 455.277 1206.71 483.225 1183.91 499.274 L 1182.69 494.12 C 1191.74 476.494 1183.56 457.446 1160.97 470.588 L 1162 466.025 z"/>
<path transform="translate(0,0)" fill="rgb(22,14,13)" d="M 1592.6 410.214 L 1594.63 413.315 C 1572.88 437.7 1582.78 453.775 1577.6 460.245 C 1574.1 460.961 1575.57 461.013 1571.87 459.609 C 1563.14 447.698 1585.34 418.997 1592.6 410.214 z"/>
<path transform="translate(0,0)" fill="rgb(1,1,1)" d="M 1250.9 466.164 C 1281.54 454.523 1295.3 485.212 1273.18 498.92 L 1271.76 494.09 C 1280.02 477.962 1273.47 457.503 1251.25 469.76 C 1250.56 468.146 1250.8 468.026 1250.9 466.164 z"/>
<path transform="translate(0,0)" fill="rgb(22,14,13)" d="M 375.288 401.84 L 378.452 403.592 C 362.89 420.717 363.042 428.444 361.04 450.4 C 360.911 451.809 359.268 452.087 357.929 452.657 C 354.839 452.007 355.892 452.688 354.012 450.071 C 352.359 428.524 362.699 417.317 375.288 401.84 z"/>
<path transform="translate(0,0)" fill="rgb(1,1,1)" d="M 1158.81 440.618 C 1174.1 444.408 1178.64 443.551 1193.87 440.047 C 1181.91 450.89 1177.78 452.575 1161.56 450.894 L 1160.81 450.672 C 1158.91 448.335 1159.05 443.859 1158.81 440.618 z"/>
<path transform="translate(0,0)" fill="rgb(1,1,1)" d="M 1249.79 441.364 C 1264.04 444.001 1268.73 443.478 1282.88 439.984 C 1270.8 451.303 1266.47 452.452 1250.13 450.834 C 1248.14 447.522 1248.16 444.82 1249.79 441.364 z"/>
<path transform="translate(0,0)" fill="rgb(1,1,1)" d="M 1857.12 451.356 C 1871.65 454.32 1876.14 453.854 1890.68 450.487 C 1879.06 461.245 1874.51 463.204 1858.67 460.922 L 1857.99 460.611 C 1856.54 458.106 1857.06 454.456 1857.12 451.356 z"/>
<path transform="translate(0,0)" fill="rgb(22,14,13)" d="M 1273.18 498.92 C 1262.88 504.706 1245.54 501.394 1241.11 487.856 C 1239.94 484.276 1246.77 477.745 1251.34 482.962 C 1251.36 486.755 1249.03 488.114 1247.28 491.819 L 1248.6 494.838 C 1254.28 500.204 1264.83 499.237 1270.98 494.674 L 1271.76 494.09 L 1273.18 498.92 z"/>
<path transform="translate(0,0)" fill="rgb(22,14,13)" d="M 1183.91 499.274 C 1177.73 501.66 1170.57 503.302 1164.05 501.005 C 1160.23 499.638 1157.12 496.783 1155.43 493.089 C 1153.48 488.817 1152.92 483.224 1158.07 481.237 C 1160.67 482.335 1160.89 482.575 1162.29 485.037 C 1161.45 489.416 1159.76 487.455 1158.07 491.925 C 1163.8 500.213 1174.12 500.436 1181.84 494.752 L 1182.69 494.12 L 1183.91 499.274 z"/>
<path transform="translate(0,0)" fill="rgb(22,14,13)" d="M 1779.99 512.341 C 1773.04 511.742 1763.24 508.186 1760.36 501.259 C 1760.44 495.435 1762.16 493.42 1767.92 493.487 C 1770.9 495.863 1770.08 494.602 1771.07 498.205 C 1769.89 500.748 1769.48 501.491 1767.79 503.756 L 1767.39 504.295 C 1770.08 507.139 1774.92 508.132 1778.8 509.307 L 1779.99 512.341 z"/>
<path transform="translate(0,0)" fill="rgb(57,28,32)" d="M 1857.37 481.598 L 1856.59 482.324 C 1854.54 477.92 1854.7 456.939 1855.64 452.051 L 1857.12 451.356 C 1857.06 454.456 1856.54 458.106 1857.99 460.611 L 1858.67 460.922 C 1859.01 466.402 1859.11 471.187 1859.16 476.652 L 1857.37 481.598 z"/>
<path transform="translate(0,0)" fill="rgb(57,28,32)" d="M 1251.25 469.76 L 1250.15 471.264 L 1248.48 471.373 C 1246.18 467.192 1246.42 445.949 1247.88 441.581 L 1249.79 441.364 C 1248.16 444.82 1248.14 447.522 1250.13 450.834 C 1250.91 456.664 1250.89 460.361 1250.9 466.164 C 1250.8 468.026 1250.56 468.146 1251.25 469.76 z"/>
<path transform="translate(0,0)" fill="rgb(57,28,32)" d="M 1160.97 470.588 C 1160.72 471.378 1160.8 471.041 1159.81 471.7 C 1156.87 468.298 1158.03 445.728 1158.81 440.618 C 1159.05 443.859 1158.91 448.335 1160.81 450.672 L 1161.56 450.894 C 1162.39 456.045 1162.12 460.831 1162 466.025 L 1160.97 470.588 z"/>
<path transform="translate(0,0)" fill="rgb(1,1,1)" d="M 1824.49 500.435 C 1826.98 499.015 1830.15 499.838 1831.63 502.29 C 1833.11 504.742 1832.37 507.93 1829.96 509.476 C 1828.34 510.513 1826.29 510.59 1824.6 509.679 C 1822.91 508.767 1821.85 507.01 1821.82 505.089 C 1821.8 503.169 1822.82 501.387 1824.49 500.435 z"/>
<path transform="translate(0,0)" fill="rgb(1,1,1)" d="M 1067.15 401.432 C 1068.96 400.758 1070.98 401.117 1072.45 402.371 C 1073.91 403.624 1074.57 405.573 1074.18 407.458 C 1073.78 409.342 1072.4 410.864 1070.56 411.43 C 1067.83 412.269 1064.92 410.786 1064 408.083 C 1063.08 405.379 1064.48 402.433 1067.15 401.432 z"/>
<path transform="translate(0,0)" fill="rgb(1,1,1)" d="M 1037.42 149.613 C 1039.96 148.303 1043.07 149.251 1044.44 151.75 C 1045.82 154.249 1044.94 157.386 1042.48 158.819 C 1040.83 159.777 1038.79 159.766 1037.15 158.791 C 1035.51 157.815 1034.53 156.028 1034.59 154.122 C 1034.65 152.216 1035.73 150.49 1037.42 149.613 z"/>
<path transform="translate(0,0)" fill="rgb(1,1,1)" d="M 1674.92 448.757 C 1676.65 447.985 1678.66 448.203 1680.18 449.329 C 1681.7 450.455 1682.5 452.313 1682.27 454.193 C 1682.04 456.072 1680.81 457.682 1679.06 458.405 C 1676.41 459.501 1673.37 458.263 1672.23 455.625 C 1671.1 452.987 1672.3 449.928 1674.92 448.757 z"/>
<path transform="translate(0,0)" fill="rgb(1,1,1)" d="M 880.673 149.552 C 882.437 148.707 884.526 148.916 886.087 150.095 C 887.649 151.273 888.423 153.224 888.094 155.152 C 887.766 157.081 886.39 158.665 884.526 159.26 C 881.905 160.098 879.083 158.762 878.068 156.205 C 877.053 153.647 878.191 150.74 880.673 149.552 z"/>
<path transform="translate(0,0)" fill="rgb(1,1,1)" d="M 1041.03 969.389 C 1048.06 968.187 1073.73 968.244 1080.69 970.683 C 1084.45 972.045 1087.52 974.848 1089.22 978.473 C 1092.73 986.146 1089.43 992.801 1081.67 995.863 L 1080.76 996.215 C 1083.22 1003.94 1100.59 999.736 1091.07 1020.75 C 1090.84 1020.98 1088.76 1022.94 1088.78 1022.89 C 1086.24 1029.85 1044.56 1028.87 1042.9 1026.93 C 1045.66 1025.89 1046.83 1025.38 1049.39 1023.94 C 1051.16 1018.75 1050.59 980.272 1049.73 973.807 C 1047.85 971.175 1044.2 970.437 1041.03 969.389 z"/>
<path transform="translate(0,0)" fill="rgb(255,255,255)" d="M 1059.78 998.929 C 1074.46 998.788 1090.79 1003.28 1079.99 1021.2 C 1073.16 1025.19 1067.84 1024.66 1060.09 1024.63 C 1059.53 1016.87 1059.78 1006.87 1059.78 998.929 z"/>
<path transform="translate(0,0)" fill="rgb(255,255,255)" d="M 1059.95 972.208 C 1073.43 972.12 1088.37 975.726 1078.27 992.461 C 1072.71 995.779 1066.23 995.385 1059.81 995.583 C 1059.74 987.791 1059.78 979.998 1059.95 972.208 z"/>
<path transform="translate(0,0)" fill="rgb(1,1,1)" d="M 1609.98 969.396 C 1620.59 967.776 1644.47 967.066 1653.89 973.537 C 1660.41 978.018 1663.18 984.077 1657.66 990.904 C 1654.62 994.673 1652.23 992.69 1649.76 996.377 C 1653.44 1004.35 1670.54 1000.89 1659.47 1021.61 C 1649.01 1030.69 1638.62 1027.18 1625.91 1028.13 C 1621.41 1028.47 1616.52 1028.46 1612.11 1027.49 L 1612.44 1026.71 L 1617.98 1024.68 C 1620.23 1016.61 1620 982.249 1618.87 973.674 C 1616.84 971.177 1613.23 970.48 1609.98 969.396 z"/>
<path transform="translate(0,0)" fill="rgb(255,255,255)" d="M 1628.85 998.929 C 1643.27 998.837 1660.19 1003.29 1649 1021.23 C 1641.81 1025.32 1637.16 1024.67 1629.02 1024.54 C 1628.78 1016.2 1628.89 1007.32 1628.85 998.929 z"/>
<path transform="translate(0,0)" fill="rgb(255,255,255)" d="M 1629.01 972.22 C 1642.23 972.126 1657.64 975.63 1647.34 992.469 C 1641.72 995.833 1635.36 995.375 1628.88 995.526 C 1628.83 987.757 1628.88 979.988 1629.01 972.22 z"/>
<path transform="translate(0,0)" fill="rgb(1,1,1)" d="M 397.251 969.334 C 408.074 967.645 438.925 966.425 445.415 977.433 C 450.947 986.817 444.719 991.628 437.496 996.349 C 441.352 1004.18 457.916 1002.15 446.569 1021.72 C 436.415 1030.1 412.334 1029.22 399.561 1027.56 C 399.82 1025.24 403.087 1027.14 406.398 1023.49 C 407.13 1014.81 407.735 981.514 406.103 973.836 C 404.175 970.939 400.71 970.404 397.251 969.334 z"/>
<path transform="translate(0,0)" fill="rgb(255,255,255)" d="M 416.076 998.875 C 430.452 998.973 449.107 1004.64 435.48 1021.93 C 429.015 1025.08 423.206 1024.67 416.223 1024.51 C 415.938 1016.31 416.104 1007.16 416.076 998.875 z"/>
<path transform="translate(0,0)" fill="rgb(255,255,255)" d="M 416.206 972.197 C 429.797 971.965 445.115 976.08 434.353 992.739 C 428.759 995.781 422.377 995.407 416.072 995.562 C 415.978 987.876 416.147 979.908 416.206 972.197 z"/>
<path transform="translate(0,0)" fill="rgb(255,255,255)" d="M 162.245 349.904 C 166.921 339.493 176.674 337.505 186.917 338.118 C 201.235 343.809 201.881 351.642 203.451 365.47 C 205.588 384.279 195.786 405.101 173.967 397.556 C 156.522 391.524 155.614 363.925 162.245 349.904 z"/>
<path transform="translate(0,0)" fill="rgb(1,1,1)" d="M 186.917 338.118 C 201.235 343.809 201.881 351.642 203.451 365.47 C 205.588 384.279 195.786 405.101 173.967 397.556 C 156.522 391.524 155.614 363.925 162.245 349.904 L 165.249 350.768 C 167.873 356.482 166.588 369.344 167.99 372.639 C 168.481 380.375 168.043 392.105 176.515 395.307 C 188.464 400.139 195.303 387.777 195.331 377.537 C 195.365 364.771 198.515 346.219 184.131 340.54 L 186.917 338.118 z"/>
<path transform="translate(0,0)" fill="rgb(22,14,13)" d="M 162.245 349.904 C 166.921 339.493 176.674 337.505 186.917 338.118 L 184.131 340.54 C 162.505 342.19 170.688 358.813 167.99 372.639 C 166.588 369.344 167.873 356.482 165.249 350.768 L 162.245 349.904 z"/>
<path transform="translate(0,0)" fill="rgb(255,255,255)" d="M 161.992 894.722 C 165.435 881.044 180.667 877.026 192.519 883.004 C 209.348 895.443 208.101 939.334 184.239 941.889 C 159.432 944.546 156.545 911.485 161.992 894.722 z"/>
<path transform="translate(0,0)" fill="rgb(1,1,1)" d="M 192.519 883.004 C 209.348 895.443 208.101 939.334 184.239 941.889 C 159.432 944.546 156.545 911.485 161.992 894.722 C 171.7 897.751 164.299 908.035 168.022 913.735 C 168.44 922.224 168.384 933.269 176.881 938.474 C 182.931 942.18 190.628 935.387 192.762 929.809 C 197.199 918.209 196.395 899.637 192.211 887.962 L 192.519 883.004 z"/>
<path transform="translate(0,0)" fill="rgb(22,14,13)" d="M 161.992 894.722 C 165.435 881.044 180.667 877.026 192.519 883.004 L 192.211 887.962 C 186.749 883.626 178.501 879.062 173.09 886.562 C 166.952 895.069 169.366 904.596 168.022 913.735 C 164.299 908.035 171.7 897.751 161.992 894.722 z"/>
<path transform="translate(0,0)" fill="rgb(22,14,13)" d="M 109.65 345.11 C 137.605 324.616 153.944 352.399 148.084 378.988 C 144.611 394.749 136.289 400.098 120.875 398.958 C 114.823 396.01 113.649 395.077 108.621 390.706 C 104.481 377.585 103.722 357.832 109.65 345.11 z"/>
<path transform="translate(0,0)" fill="rgb(255,255,255)" d="M 113.514 375.731 C 113.468 368.38 110.355 326.652 135.538 344.949 C 143.344 350.62 142.4 388.474 133.812 393.763 C 131.485 396.141 127.033 396.296 123.921 396.452 C 113.44 391.455 114.151 386.294 113.514 375.731 z"/>
<path transform="translate(0,0)" fill="rgb(1,1,1)" d="M 109.65 345.11 L 112.147 346.598 C 112.58 352.595 111.791 373.34 113.514 375.731 C 114.151 386.294 113.44 391.455 123.921 396.452 L 120.875 398.958 C 114.823 396.01 113.649 395.077 108.621 390.706 C 104.481 377.585 103.722 357.832 109.65 345.11 z"/>
<path transform="translate(0,0)" fill="rgb(1,1,1)" d="M 936.881 969.302 C 949.415 967.644 996.081 965.223 983.652 990.372 C 980.718 996.307 975.265 998.167 969.305 999.746 C 973.05 1004.45 986.643 1022.01 990.358 1024.55 L 994.559 1027.37 C 991.657 1028.33 984.654 1028.09 981.272 1028.12 L 976.414 1022.38 C 972.199 1017.09 961.971 1000.27 955.644 1000.95 C 954.055 1004.42 955.035 1013.04 954.791 1016.83 C 954.083 1027.85 958.8 1023.45 961.834 1027.5 C 955.204 1028.13 945.044 1028.81 938.674 1027.42 C 939.906 1025.45 944.225 1025.64 944.436 1023.76 C 945.917 1010.57 945.551 994.332 945.686 980.971 C 945.769 972.704 942.658 971.723 936.881 969.302 z"/>
<path transform="translate(0,0)" fill="rgb(255,255,255)" d="M 955.116 972.252 C 969.533 971.76 983.779 978.391 971.544 993.867 C 966.34 996.44 961.055 998.998 956.145 995.19 C 953.256 989.304 954.757 979.193 955.116 972.252 z"/>
<path transform="translate(0,0)" fill="rgb(1,1,1)" d="M 511.465 969.185 C 523.104 967.975 555.288 965.441 559.447 980.142 C 562.949 992.52 553.951 997.057 543.966 999.794 C 552.391 1009.8 560.162 1022.84 571.721 1027.99 L 555.924 1028.11 L 551.149 1022.31 C 544.913 1014.21 537.462 1003.6 530.132 996.952 C 529.11 1001.7 528.288 1017.85 530.023 1022.97 C 530.674 1024.89 534.187 1025.78 536.423 1026.72 L 536.461 1027.61 C 532.376 1028.05 516.487 1028.67 513.56 1027.14 L 518.155 1024.96 C 521.733 1019.58 520.119 981.59 519.994 972.988 L 511.465 969.185 z"/>
<path transform="translate(0,0)" fill="rgb(255,255,255)" d="M 529.751 972.246 C 544.519 971.922 559.64 979.179 545.671 994.216 C 540.64 996.596 536.082 998.437 531.041 995.755 C 527.219 989.951 529.212 979.559 529.751 972.246 z"/>
<path transform="translate(0,0)" fill="rgb(1,1,1)" d="M 1731.21 969.308 C 1742.51 967.664 1790.72 965.236 1777.99 990.138 C 1774.82 996.342 1770.15 997.889 1763.74 999.816 C 1772.17 1010.53 1777.86 1019.28 1788.96 1027.41 C 1786.98 1028.34 1778.19 1028.08 1775.43 1028.1 L 1769.23 1020.52 C 1765.83 1015.9 1755.67 999.129 1750.18 1001.96 C 1748.22 1005.97 1748.52 1018.58 1749.35 1023.21 C 1749.63 1024.82 1753.55 1026.05 1755.61 1027.08 C 1750.36 1028.33 1738.52 1028.42 1733.15 1027.61 L 1733.36 1026.6 C 1736.05 1025.69 1737.45 1025.55 1739.12 1023.3 C 1740.05 1013.46 1740.74 982.836 1738.95 973.834 C 1737.11 971.072 1734.45 970.544 1731.21 969.308 z"/>
<path transform="translate(0,0)" fill="rgb(255,255,255)" d="M 1749.25 972.255 C 1763.35 971.707 1777.16 977.686 1766.38 993.409 C 1762.09 995.767 1756.15 998.558 1751.44 996.336 C 1747.02 991.341 1748.89 979.47 1749.25 972.255 z"/>
<path transform="translate(0,0)" fill="rgb(1,1,1)" d="M 1155.97 969.228 C 1167.42 967.843 1199.8 965.619 1203.76 980.147 C 1207.12 992.476 1198.38 996.878 1188.56 999.805 C 1194.23 1006.98 1205.63 1022.91 1212.96 1026.81 L 1213.78 1027.24 C 1211.43 1028.51 1203.45 1028.1 1200.29 1028.1 L 1195.51 1022.43 C 1191.27 1016.86 1181.61 1000.99 1175.07 1000.8 C 1172.84 1003.61 1173.77 1017.64 1173.98 1021.89 C 1174.12 1024.84 1177.81 1024.96 1181.11 1027.35 C 1177.29 1028.43 1162.42 1028.17 1158.29 1027.59 L 1158.32 1026.57 C 1161.02 1025.63 1162.09 1025.45 1163.98 1023.26 C 1165.03 1014.47 1165.55 981.909 1163.9 973.875 C 1162.08 971.12 1159.2 970.496 1155.97 969.228 z"/>
<path transform="translate(0,0)" fill="rgb(255,255,255)" d="M 1174.15 972.246 C 1188.63 971.709 1202.61 978.457 1190.64 993.886 C 1186.15 995.998 1180.43 998.646 1175.86 995.94 C 1172 990.957 1173.78 979.139 1174.15 972.246 z"/>
<path transform="translate(0,0)" fill="rgb(22,14,13)" d="M 1037.37 1000.94 C 1038.65 1008.21 1038.06 1014.78 1033.54 1020.78 C 1015.56 1044.66 986.872 1013.82 1003.12 993.799 C 1007.48 988.423 1014.61 987.149 1021.17 986.923 C 1028.42 989.285 1032.49 991.155 1036.13 998.318 C 1036.57 999.18 1036.98 1000.05 1037.37 1000.94 z"/>
<path transform="translate(0,0)" fill="rgb(255,255,255)" d="M 1024.18 1024.76 C 1013.05 1028.6 1008.33 1020.24 1006.78 1010.66 C 1005.09 1000.18 1007.28 990.784 1018.77 989.184 L 1023.71 992.456 C 1026.89 995.935 1027.32 996.902 1029.32 1001.22 C 1029.68 1009.38 1031.25 1019.06 1024.18 1024.76 z"/>
<path transform="translate(0,0)" fill="rgb(1,1,1)" d="M 1021.17 986.923 C 1028.42 989.285 1032.49 991.155 1036.13 998.318 C 1036.57 999.18 1036.98 1000.05 1037.37 1000.94 C 1036 1003.16 1034.41 1010.51 1033.57 1013.54 C 1032.7 1012.52 1031.13 1004.36 1029.32 1001.22 C 1027.32 996.902 1026.89 995.935 1023.71 992.456 L 1018.77 989.184 L 1018.74 988.783 L 1021.17 986.923 z"/>
<path transform="translate(0,0)" fill="rgb(22,14,13)" d="M 1696.42 970.888 L 1697.66 968.555 C 1703.19 971.085 1718.27 1014.19 1723.01 1021.89 C 1725.38 1025.73 1726.18 1024.52 1728.91 1027.25 C 1724.86 1028.92 1712.94 1028.06 1708.36 1027.63 L 1708.14 1027.16 L 1708.78 1026.55 C 1715.09 1020.44 1711.87 1013.39 1705.94 1008.45 C 1701.67 1009.21 1688.91 1008.93 1683.91 1008.93 C 1682.15 1013.19 1680.09 1017.53 1679.54 1022.08 C 1680.96 1026.42 1680.3 1023.99 1684.56 1027.33 C 1680.57 1028.83 1672.86 1028.06 1668.58 1027.51 C 1683.04 1011.69 1685.56 990.166 1696.42 970.888 z"/>
<path transform="translate(0,0)" fill="rgb(1,1,1)" d="M 1696.42 970.888 L 1697.66 968.555 C 1703.19 971.085 1718.27 1014.19 1723.01 1021.89 C 1725.38 1025.73 1726.18 1024.52 1728.91 1027.25 C 1724.86 1028.92 1712.94 1028.06 1708.36 1027.63 L 1708.14 1027.16 L 1708.78 1026.55 C 1715.09 1020.44 1711.87 1013.39 1705.94 1008.45 C 1706.52 1006.25 1706.48 1006.18 1705.81 1003.94 L 1696.44 980.837 C 1695.66 979.048 1696.29 973.153 1696.42 970.888 z"/>
<path transform="translate(0,0)" fill="rgb(255,255,255)" d="M 1696.44 980.837 L 1705.81 1003.94 C 1702.85 1005.83 1690.13 1005.11 1685.86 1005.06 C 1688.74 997.809 1692.45 987.155 1696.44 980.837 z"/>
<path transform="translate(0,0)" fill="rgb(1,1,1)" d="M 456.29 969.192 C 466.43 968.041 493.482 968.84 504.942 968.932 L 505.139 984.961 C 498.71 968.042 490.374 971.809 474.407 972.396 C 474.284 979.937 474.384 987.71 474.386 995.272 C 488.886 995.568 494.358 998.654 499.982 983.728 L 500.132 1010.71 C 495.268 1000.4 496.112 998.1 482.447 998.767 C 480.039 998.885 476.768 998.847 474.265 998.894 C 474.238 1007.36 474.332 1015.83 474.546 1024.29 C 493.93 1026.07 498.843 1026.1 510.18 1010.38 L 506.107 1027.96 C 494.577 1028.19 469.243 1028.62 458.555 1027.67 L 458.252 1026.93 C 459.56 1026.44 464.487 1024.82 464.571 1023.37 C 465.513 1007.04 465.029 989.217 464.897 972.988 L 456.29 969.192 z"/>
<path transform="translate(0,0)" fill="rgb(1,1,1)" d="M 1106.15 1025.95 L 1107.82 1024.93 C 1111.78 1019.39 1109.6 982.942 1109.02 974.114 C 1108.87 971.952 1103.73 971.479 1102.3 969.418 C 1105.95 968.112 1142.65 968.922 1149.12 968.948 C 1149.35 974.625 1149.55 980.302 1149.71 985.981 C 1143.24 967.932 1136.17 971.79 1118.89 972.399 L 1118.87 995.249 C 1124.41 995.337 1131.17 995.629 1136.67 994.889 C 1140.4 994.387 1140.96 990.716 1143.45 986.996 L 1144.28 988.051 C 1144.41 993.245 1144.96 1002.08 1143.95 1006.88 C 1141 1006.18 1142.86 1003.39 1139.52 999.946 C 1135.58 998.413 1123.68 998.862 1118.8 998.862 C 1118.74 1007.56 1118.55 1016.22 1119.31 1024.89 C 1115.51 1028.25 1110.92 1026.84 1106.15 1025.95 z"/>
<path transform="translate(0,0)" fill="rgb(1,1,1)" d="M 1279.09 1003.98 C 1284.48 1000.99 1284.74 996.853 1281.96 991.307 C 1279.27 989.041 1280.57 989.667 1276.81 989.168 C 1270.07 991.302 1269.49 998.403 1264.77 1000.58 C 1263.11 998.71 1263.13 998.606 1262.94 996.019 C 1266.92 985.181 1283.94 983.557 1289.4 993.114 C 1293.66 1000.57 1286.31 1017.17 1292.45 1023.43 L 1292.98 1023.37 C 1294.95 1023.15 1295.19 1023.1 1297.11 1023.41 C 1296.26 1027.18 1292.23 1029.78 1288.42 1028.47 C 1285.33 1027.41 1282.87 1022.93 1280.85 1024.69 C 1270.39 1033.84 1254.76 1027.08 1263.23 1011.93 C 1270.27 1007.58 1271.42 1007.06 1279.09 1003.98 z"/>
<path transform="translate(0,0)" fill="rgb(255,255,255)" d="M 1279.09 1003.98 L 1280.49 1005 L 1282.83 1005.81 C 1284.54 1012.44 1284.58 1021.45 1276.64 1023.88 C 1271.79 1023.52 1270.51 1022.45 1267.71 1018.54 C 1267.77 1015.84 1267.98 1015.14 1266.91 1012.77 L 1263.23 1011.93 C 1270.27 1007.58 1271.42 1007.06 1279.09 1003.98 z"/>
<path transform="translate(0,0)" fill="rgb(22,14,13)" d="M 1279.09 1003.98 L 1280.49 1005 C 1273.17 1008.73 1269.75 1009.7 1267.71 1018.54 C 1267.77 1015.84 1267.98 1015.14 1266.91 1012.77 L 1263.23 1011.93 C 1270.27 1007.58 1271.42 1007.06 1279.09 1003.98 z"/>
<path transform="translate(0,0)" fill="rgb(1,1,1)" d="M 1787.76 968.855 C 1802.71 968.629 1823.68 968.331 1838.23 969.248 C 1838.35 972.413 1838.91 981.464 1837.28 983.626 C 1833.94 980.493 1833.17 978.091 1831.27 973.888 C 1828.14 972.081 1821.27 972.631 1817.28 972.629 C 1817.24 989.176 1816.81 1007.94 1817.7 1024.28 C 1820.24 1025.19 1821.73 1025.67 1824.13 1027.03 L 1822.83 1028.08 C 1818.7 1028.51 1803.9 1028.45 1800.67 1027.04 C 1806.74 1025.05 1807.89 1023.34 1808.15 1016.37 C 1808.68 1001.79 1808.33 987.031 1808.21 972.423 C 1792.31 972.55 1792.54 973.265 1786.93 987.713 C 1787.27 981.43 1787.55 975.144 1787.76 968.855 z"/>
<path transform="translate(0,0)" fill="rgb(1,1,1)" d="M 1211.54 968.88 C 1228.39 968.767 1245.23 968.779 1262.08 968.916 L 1262.52 987.473 C 1257.11 972.466 1256.75 972.715 1241.31 972.538 C 1241.3 987.941 1240.69 1009.39 1241.89 1024.29 C 1244.38 1025.24 1245.48 1025.56 1247.73 1027.04 C 1243.97 1029.6 1230.71 1027.9 1225.65 1027.51 L 1225.1 1026.84 C 1226.18 1026.52 1229.37 1025.62 1229.73 1025.03 C 1234.52 1017.25 1232.43 981.275 1232.32 972.45 C 1216.02 972.519 1216.39 973.549 1211.23 988.484 C 1211.12 982.096 1211.39 975.304 1211.54 968.88 z"/>
<path transform="translate(0,0)" fill="rgb(1,1,1)" d="M 567.249 968.864 C 583.297 968.643 599.741 968.838 615.822 968.849 L 616.075 978.142 C 614.856 978.925 610.966 974.584 608.714 973.581 C 605.789 972.277 600.443 972.539 597.213 972.542 C 597.176 979.51 596.367 1019.04 598.139 1023.99 L 599.749 1024.72 C 601.649 1025.41 602.6 1026.01 604.364 1027.01 C 601.924 1028.72 584.054 1028.05 580.57 1027.6 L 580.674 1026.78 C 582.177 1026.32 587.076 1024.94 587.217 1023.47 C 588.687 1008.02 588.008 987.428 587.937 972.459 C 572.079 972.596 572.08 973.306 566.875 987.768 L 567.249 968.864 z"/>
<path transform="translate(0,0)" fill="rgb(1,1,1)" d="M 73.5359 338.081 L 74.4337 338.251 C 76.6813 341.139 75.7705 386.061 75.7638 393.191 C 78.8475 393.405 85.4535 393.448 87.5896 395.457 C 83.2263 397.851 62.3996 397.158 56.2686 397.112 L 56.3567 394.985 C 58.7384 393.192 64.3098 393.437 67.6194 393.294 C 68.3726 378.651 67.551 360.114 67.8849 344.623 C 66.53 345.059 65.1662 345.467 63.7945 345.847 C 61.7337 346.402 58.2861 347.088 56.4278 345.998 C 60.223 343.145 68.6134 340.191 73.5359 338.081 z"/>
<path transform="translate(0,0)" fill="rgb(22,14,13)" d="M 1119.31 1024.89 C 1139.63 1023.37 1141.99 1028.51 1154.63 1010.08 L 1150.4 1027.96 C 1144.36 1027.99 1104.61 1028.74 1102.57 1027.18 C 1103.97 1026.5 1104.57 1026.09 1106.15 1025.95 C 1110.92 1026.84 1115.51 1028.25 1119.31 1024.89 z"/>
</svg>
