<svg version="1.1" xmlns="http://www.w3.org/2000/svg" style="display: block;" viewBox="0 0 2048 837" width="1050" height="429" preserveAspectRatio="none">
<path transform="translate(0,0)" fill="rgb(255,255,255)" d="M 0 0 L 2048 0 L 2048 5.87124 L 2048 837 L 28.1686 837 L 0 837 L 0 0 z"/>
<path transform="translate(0,0)" fill="rgb(217,212,223)" d="M 0 0 L 2048 0 L 2048 5.87124 L 11.7658 6.03863 L 11.8017 835.767 C 16.2558 835.922 24.1489 835.96 28.1686 837 L 0 837 L 0 0 z"/>
<path transform="translate(0,0)" fill="rgb(217,212,223)" d="M 330.403 62.5867 C 331.713 67.2105 342.695 97.9845 342.431 99.0138 C 338.994 99.0431 337.312 98.9341 334.015 99.8709 C 332.262 102.63 333.012 157.69 333.012 166.895 L 332.984 400.398 C 338.189 400.512 347.254 399.018 350.315 403.634 L 348.99 405.197 C 344.562 407.318 338.117 406.707 333.002 406.662 L 333.008 649.149 C 337.819 649.055 348.817 648.151 352.276 650.998 C 354.583 652.469 386.244 651.495 390.695 651.453 C 392.124 649.305 391.832 644.066 391.907 641.182 C 390.149 636.073 390.99 622.823 391.266 616.908 C 391.981 614.192 392 600.053 391.246 597.058 C 390.763 588.88 390.947 581.773 391.14 573.627 C 392.162 571.774 391.92 555.989 391.227 553.158 C 390.734 545.121 390.965 537.89 391.164 529.878 C 391.847 528.475 391.867 512.993 391.958 510.063 C 390.194 505.252 391.014 491.495 391.177 485.751 C 392.064 484.149 391.916 468.69 391.286 465.982 C 390.745 457.798 390.938 450.806 391.132 442.654 C 392.077 440.176 391.965 425.132 391.249 422.102 C 390.794 417.706 390.95 409.801 390.914 405.116 C 386.43 405.109 379.774 405.761 376.015 403.981 L 376.333 402.951 C 382.546 401.142 388.396 401.943 394.777 402.599 C 402.994 404.062 509.258 404.093 514.758 402.436 L 516.929 402.589 C 519.132 405.704 518.078 417.195 517.882 421.356 C 517.165 424.653 516.534 440.294 517.861 442.623 C 518.002 450.129 518.274 457.865 517.843 465.343 C 517.141 468.707 516.604 483.05 517.803 485.755 C 517.976 491.501 518.822 505.259 517.056 510.072 C 517.211 514.183 516.848 527.441 517.829 529.818 C 518.007 537.489 518.361 545.495 517.732 553.116 C 517.408 556.143 516.458 571.642 517.846 573.606 C 518.009 581.232 518.257 588.745 517.857 596.369 C 516.774 600.038 516.943 613.086 517.71 616.889 C 518.128 625.626 518.163 631.395 517.852 640.136 C 517.364 644.302 516.224 647.444 517.928 650.656 C 524.602 652.26 591.777 651.682 601.86 651.683 L 838.975 651.637 L 912.176 651.646 C 924.01 651.648 935.833 651.561 947.666 651.785 C 956.173 651.947 950.695 657.853 953.738 661.644 C 954.778 665.204 954.611 670.033 954.673 673.834 C 963.888 678.47 971.825 680.694 981.819 682.927 C 972.844 685.8 963.629 689.189 954.713 692.324 C 954.78 696.023 955.425 700.374 953.139 703.074 L 951.37 703.188 C 946.497 699.365 944.236 692.359 944.903 686.3 C 897.601 685.72 849.082 686.266 801.636 686.264 L 519.571 686.249 C 519.464 691.378 520.915 699.658 516.573 702.768 L 515.023 701.454 C 513.077 697.097 513.784 691.202 513.934 686.28 L 395.069 686.266 C 395.068 691.376 396.616 699.839 392.145 702.783 L 390.576 701.387 C 388.637 697.068 389.394 691.15 389.576 686.259 L 332.993 686.265 L 332.999 766.893 C 333.011 778.815 333.196 790.726 333.216 802.644 C 333.221 805.566 331.531 807.96 328.613 808.186 C 326.053 805.093 327.152 772.734 327.153 766.114 L 327.185 686.27 C 320.48 686.258 271.028 686.999 268.534 685.347 C 268.068 682.178 267.832 683.34 269.111 680.761 C 279.278 679.338 315.04 680.243 327.119 680.296 L 327.163 655.124 C 322.285 655.19 313.116 656.561 310.714 651.917 L 312.146 650.319 C 316.41 648.314 322.245 649.034 327.114 649.183 L 327.172 406.675 C 321.266 406.748 314.23 408.007 310.061 403.478 L 311.311 401.965 C 315.995 399.604 321.761 400.359 327.133 400.516 L 327.132 99.445 L 316.038 99.561 C 322.953 86.5971 326.063 76.4474 330.403 62.5867 z"/>
<path transform="translate(0,0)" fill="rgb(2,1,1)" d="M 330.403 62.5867 C 331.713 67.2105 342.695 97.9845 342.431 99.0138 C 338.994 99.0431 337.312 98.9341 334.015 99.8709 C 332.262 102.63 333.012 157.69 333.012 166.895 L 332.984 400.398 C 338.189 400.512 347.254 399.018 350.315 403.634 L 348.99 405.197 C 344.562 407.318 338.117 406.707 333.002 406.662 L 333.008 649.149 C 337.819 649.055 348.817 648.151 352.276 650.998 C 350.835 653.469 350.949 654.395 348.366 654.839 C 344.021 655.585 337.57 655.182 333.009 655.123 L 333.036 680.232 L 944.845 680.29 C 944.674 676.749 944.234 674.15 945.961 671.037 C 947.661 670.977 948.119 671.398 949.688 672.211 L 951.604 671.162 C 952.226 667.542 952.733 665.174 953.738 661.644 C 954.778 665.204 954.611 670.033 954.673 673.834 C 963.888 678.47 971.825 680.694 981.819 682.927 C 972.844 685.8 963.629 689.189 954.713 692.324 C 954.78 696.023 955.425 700.374 953.139 703.074 L 951.37 703.188 C 946.497 699.365 944.236 692.359 944.903 686.3 C 897.601 685.72 849.082 686.266 801.636 686.264 L 519.571 686.249 C 519.464 691.378 520.915 699.658 516.573 702.768 L 515.023 701.454 C 513.077 697.097 513.784 691.202 513.934 686.28 L 395.069 686.266 C 395.068 691.376 396.616 699.839 392.145 702.783 L 390.576 701.387 C 388.637 697.068 389.394 691.15 389.576 686.259 L 332.993 686.265 L 332.999 766.893 C 333.011 778.815 333.196 790.726 333.216 802.644 C 333.221 805.566 331.531 807.96 328.613 808.186 C 326.053 805.093 327.152 772.734 327.153 766.114 L 327.185 686.27 C 320.48 686.258 271.028 686.999 268.534 685.347 C 268.068 682.178 267.832 683.34 269.111 680.761 C 279.278 679.338 315.04 680.243 327.119 680.296 L 327.163 655.124 C 322.285 655.19 313.116 656.561 310.714 651.917 L 312.146 650.319 C 316.41 648.314 322.245 649.034 327.114 649.183 L 327.172 406.675 C 321.266 406.748 314.23 408.007 310.061 403.478 L 311.311 401.965 C 315.995 399.604 321.761 400.359 327.133 400.516 L 327.132 99.445 L 316.038 99.561 C 322.953 86.5971 326.063 76.4474 330.403 62.5867 z"/>
<path transform="translate(0,0)" fill="rgb(87,23,119)" d="M 390.914 405.116 C 386.43 405.109 379.774 405.761 376.015 403.981 L 376.333 402.951 C 382.546 401.142 388.396 401.943 394.777 402.599 C 394.424 406.81 394.341 417.772 393.215 420.659 L 391.249 422.102 C 390.794 417.706 390.95 409.801 390.914 405.116 z"/>
<path transform="translate(0,0)" fill="rgb(87,23,119)" d="M 517.857 596.369 C 512.713 594.796 514.323 578.978 515.664 574.685 L 517.846 573.606 C 518.009 581.232 518.257 588.745 517.857 596.369 z"/>
<path transform="translate(0,0)" fill="rgb(87,23,119)" d="M 517.843 465.343 C 512.76 463.646 514.296 447.989 515.648 443.669 L 517.861 442.623 C 518.002 450.129 518.274 457.865 517.843 465.343 z"/>
<path transform="translate(0,0)" fill="rgb(87,23,119)" d="M 517.732 553.116 C 512.907 550.501 514.307 535.528 515.685 530.918 L 517.829 529.818 C 518.007 537.489 518.361 545.495 517.732 553.116 z"/>
<path transform="translate(0,0)" fill="rgb(87,23,119)" d="M 517.852 640.136 L 516.316 639.687 C 513.391 635.458 513.674 620.702 517.71 616.889 C 518.128 625.626 518.163 631.395 517.852 640.136 z"/>
<path transform="translate(0,0)" fill="rgb(87,23,119)" d="M 517.056 510.072 C 513.387 506.431 514.692 494.877 515.17 489.935 C 515.42 487.343 515.982 487.455 517.803 485.755 C 517.976 491.501 518.822 505.259 517.056 510.072 z"/>
<path transform="translate(0,0)" fill="rgb(87,23,119)" d="M 391.14 573.627 L 393.448 574.73 C 394.972 580.98 394.363 588.086 393.682 594.425 C 392.888 595.597 392.509 596.426 391.246 597.058 C 390.763 588.88 390.947 581.773 391.14 573.627 z"/>
<path transform="translate(0,0)" fill="rgb(87,23,119)" d="M 391.132 442.654 L 393.467 443.735 C 394.987 449.973 394.356 457.09 393.654 463.413 C 392.879 464.536 392.49 465.341 391.286 465.982 C 390.745 457.798 390.938 450.806 391.132 442.654 z"/>
<path transform="translate(0,0)" fill="rgb(87,23,119)" d="M 391.164 529.878 L 393.317 530.868 C 394.721 535.304 395.823 550.624 391.227 553.158 C 390.734 545.121 390.965 537.89 391.164 529.878 z"/>
<path transform="translate(0,0)" fill="rgb(87,23,119)" d="M 391.266 616.908 C 393.665 618.865 393.987 619.287 394.076 622.633 C 394.205 627.504 395.349 637.613 391.907 641.182 C 390.149 636.073 390.99 622.823 391.266 616.908 z"/>
<path transform="translate(0,0)" fill="rgb(87,23,119)" d="M 391.177 485.751 C 393.421 487.635 393.757 487.35 393.918 490.549 C 394.162 495.394 395.405 506.493 391.958 510.063 C 390.194 505.252 391.014 491.495 391.177 485.751 z"/>
<path transform="translate(0,0)" fill="rgb(87,23,119)" d="M 514.758 402.436 L 516.929 402.589 C 519.132 405.704 518.078 417.195 517.882 421.356 C 516.642 421.163 516.266 420.709 515.293 419.93 C 514.264 415.736 514.686 407.13 514.758 402.436 z"/>
<path transform="translate(0,0)" fill="rgb(2,1,1)" d="M 1277.37 669.417 C 1279.24 669.323 1281.12 669.263 1283 669.237 L 1474.13 669.141 L 1837.4 669.15 C 1879.48 669.152 1943.16 669.138 1987.34 669.183 C 1987.84 669.678 1988.27 670.102 1988.63 670.453 C 1988.74 673.308 1989.06 674.8 1987.43 677.129 C 1982.05 678.362 1936.27 677.708 1928.01 677.694 C 1928.01 684.256 1929.55 714.321 1926.19 717.64 C 1922.99 717.787 1922.57 718.407 1920.57 716.807 C 1919.27 712.751 1919.76 704.825 1919.85 700.25 L 1919.84 677.695 L 1603.2 677.699 C 1603.1 686.482 1604.71 710.687 1602.06 717.358 C 1598.8 718.097 1600.1 718.227 1597.15 717.006 C 1593.25 711.219 1594.93 686.072 1595.04 677.719 C 1558.59 677.068 1520.16 677.664 1483.58 677.661 L 1278.6 677.738 C 1278.4 688.655 1279.04 703.042 1278.54 714.134 C 1278.44 716.215 1275.84 717.828 1274.12 718.745 C 1271.74 717.903 1270.08 716.295 1270.27 713.653 C 1271.09 702.363 1264.94 674.68 1277.37 669.417 z"/>
<path transform="translate(0,0)" fill="rgb(2,1,1)" d="M 1239.11 90.0413 C 1241.91 90.0068 1243.16 89.9852 1245.97 90.4044 C 1249.23 95.7904 1247.3 167.981 1247.3 182.719 L 1247.29 520.837 C 1247.28 559.699 1247.54 599.756 1247.05 638.646 C 1247.03 640.707 1245.4 642.835 1243.62 643.676 C 1235.27 647.624 1207.46 647.681 1199.71 645.556 C 1198.11 642.492 1199.04 640.672 1201.19 638.471 C 1204.14 637.488 1233.16 638.098 1239.02 638.065 L 1239.04 613.5 L 1239.05 425.574 C 1230.45 425.443 1205.91 427.054 1199.65 424.455 C 1198.81 422.139 1198.78 421.855 1199.44 419.486 C 1204.49 415.196 1231.06 416.973 1239.03 417.069 L 1239.05 204.614 C 1230.97 204.542 1203.87 207.107 1199.15 201.751 C 1198.96 198.441 1198.51 199.191 1200.08 196.837 C 1208.94 195.237 1229.14 196.027 1239.04 196.103 L 1239.11 90.0413 z"/>
<path transform="translate(0,0)" fill="rgb(106,176,91)" d="M 1338.97 244.804 C 1482.38 245.173 1636.91 241.604 1769.45 303.368 C 1776.58 306.692 1799.57 315.774 1804.36 320.134 C 1814.67 329.505 1854.17 348.429 1860.34 357.676 L 1859.44 361.387 C 1858.77 361.748 1856.67 363.083 1855.9 362.634 C 1824.31 344.2 1799.13 323.982 1764.65 310.312 C 1739.21 298.284 1714.02 289.626 1686.91 282.019 C 1603.32 258.564 1516.64 255.224 1429.73 254.037 L 1370.81 253.315 C 1364.52 253.265 1345.54 253.576 1340.51 252.678 C 1338.42 250.311 1339.08 248.565 1338.97 244.804 z"/>
<path transform="translate(0,0)" fill="rgb(31,22,26)" d="M 610.306 748.325 C 615.054 750.315 625.167 781.235 627.671 788.011 L 611.5 788.101 L 593.9 788.023 C 598.348 777.268 605.002 757.714 610.306 748.325 z"/>
<path transform="translate(0,0)" fill="rgb(255,255,255)" d="M 609.411 755.724 C 612.149 757.959 619.469 780.817 620.686 785.335 C 618.713 786.299 612.33 785.914 609.75 785.891 L 597.919 785.854 L 609.411 755.724 z"/>
<path transform="translate(0,0)" fill="rgb(2,1,1)" d="M 141.803 388.687 C 143.351 389.48 143.775 390.175 144.943 391.507 L 144.58 392.686 L 139.302 393.165 C 138.225 394.763 139.716 398.702 139.922 402.225 C 137.191 410.89 128.735 405.192 123.405 410.281 C 126.479 418.342 143.735 410.109 144.976 420.396 C 143.613 424.097 142.885 424.681 140.016 427.467 C 135.857 429.296 126.701 432.041 122.323 430.401 C 117.363 424.355 121.82 422.546 121.361 417.725 C 117.655 378.816 130.1 397.734 141.803 388.687 z"/>
<path transform="translate(0,0)" fill="rgb(255,255,255)" d="M 123.603 417.422 C 129.454 417.254 137.413 416.029 141.095 420.966 C 140.752 424.401 140.837 423.414 138.615 426.5 C 132.894 428.294 127.684 429.515 123.135 425.021 C 122.034 421.925 122.687 420.59 123.603 417.422 z"/>
<path transform="translate(0,0)" fill="rgb(217,212,223)" d="M 126.408 392.406 C 136.785 393.194 137.371 398.009 133.958 406.766 C 132.584 406.816 130.366 406.555 128.929 406.432 C 123.101 402.482 124.549 398.574 126.408 392.406 z"/>
<path transform="translate(0,0)" fill="rgb(255,255,255)" d="M 1568.47 757.464 C 1569.82 756.624 1571.17 755.803 1572.53 755.002 C 1576.79 752.527 1577.3 752.887 1581.65 754.025 C 1590.92 763.314 1591.79 779.509 1580.71 787.695 C 1579.66 788.284 1577.84 788.671 1576.65 788.591 C 1563.57 787.71 1567.28 766.173 1568.47 757.464 z"/>
<path transform="translate(0,0)" fill="rgb(49,59,97)" d="M 1568.47 757.464 C 1569.82 756.624 1571.17 755.803 1572.53 755.002 C 1576.79 752.527 1577.3 752.887 1581.65 754.025 L 1580.45 754.953 C 1568.26 756.421 1569.63 777.193 1574.45 784.422 C 1576.81 786.216 1577.17 786.3 1580.05 786.652 L 1580.71 787.695 C 1579.66 788.284 1577.84 788.671 1576.65 788.591 C 1563.57 787.71 1567.28 766.173 1568.47 757.464 z"/>
<path transform="translate(0,0)" fill="rgb(2,1,1)" d="M 1581.65 754.025 C 1590.92 763.314 1591.79 779.509 1580.71 787.695 L 1580.05 786.652 C 1585.42 778.175 1584.3 763.895 1580.45 754.953 L 1581.65 754.025 z"/>
<path transform="translate(0,0)" fill="rgb(31,22,26)" d="M 1148.14 623.486 L 1148.95 623.598 C 1164.95 625.931 1165.06 650.454 1151.52 659.868 C 1134.89 657.582 1136.19 633.326 1148.14 623.486 z"/>
<path transform="translate(0,0)" fill="rgb(255,255,255)" d="M 1148.29 625.454 C 1159.96 627.622 1156.81 650.394 1152.29 657.555 L 1148.52 656.873 C 1140.58 651.592 1143.77 632.383 1148.29 625.454 z"/>
<path transform="translate(0,0)" fill="rgb(31,22,26)" d="M 1148.19 181.695 C 1164.72 183.32 1165.2 208.309 1152.14 217.645 L 1151.34 217.568 C 1134.83 215.861 1136.13 191.249 1148.19 181.695 z"/>
<path transform="translate(0,0)" fill="rgb(255,255,255)" d="M 1148.88 183.462 C 1159.68 186.183 1157.33 209.242 1151.35 216.22 C 1140.11 211.905 1142.5 190.678 1148.88 183.462 z"/>
<path transform="translate(0,0)" fill="rgb(31,22,26)" d="M 1148.24 402.747 L 1148.96 402.84 C 1164.91 405.024 1164.83 429.285 1152.07 438.677 L 1151.3 438.604 C 1135.36 436.971 1135.76 412.351 1148.24 402.747 z"/>
<path transform="translate(0,0)" fill="rgb(255,255,255)" d="M 1148.99 404.301 C 1159.64 408.537 1157.42 429.939 1151.41 437.272 C 1139.87 433.013 1142.72 411.819 1148.99 404.301 z"/>
<path transform="translate(0,0)" fill="rgb(31,22,26)" d="M 222.394 637.304 L 224.879 638.462 L 225.742 641.331 C 227.525 641.225 229.312 641.184 231.099 641.209 C 245.719 641.536 239.069 658.06 232.232 664.353 L 231.768 664.774 C 228.455 667.833 225.065 667.293 220.489 667.243 C 218.222 669.761 217.925 676.528 217.973 679.837 L 220.222 680.486 C 216.516 681.223 213.331 680.891 209.585 680.697 L 209.118 679.823 L 212.159 677.51 C 213.703 674.229 218.961 653.643 218.216 651.25 L 214.452 652.788 C 214.596 649.834 220.087 646.822 222.28 637.794 L 222.394 637.304 z"/>
<path transform="translate(0,0)" fill="rgb(255,255,255)" d="M 226.484 643.367 C 228.928 643.555 229.509 643.731 231.847 644.493 C 238.026 650.749 232.482 660.117 227.632 665.319 C 225.123 665.237 224.796 665.201 222.524 664.146 C 219.445 659.081 223.37 647.83 226.484 643.367 z"/>
<path transform="translate(0,0)" fill="rgb(31,22,26)" d="M 222.17 387.167 L 225.174 388.235 C 225.295 389.558 225.402 390.112 225.669 391.375 C 226.925 391.273 228.182 391.183 229.439 391.106 C 234.466 390.804 234.979 390.826 238.282 393.743 C 238.999 395.322 240.033 397.69 239.675 399.353 C 236.759 412.892 232.853 416.82 220.615 416.563 C 218.314 419.041 217.224 425.848 218.897 428.867 L 219.689 429.209 L 219.717 429.911 C 215.14 430.424 213.87 430.246 209.261 429.623 C 215.299 424.032 217.775 408.824 218.727 400.534 L 214.484 402.652 C 214.205 401.326 221.109 393.45 222.17 387.167 z"/>
<path transform="translate(0,0)" fill="rgb(255,255,255)" d="M 225.495 393.905 C 228.421 393.605 229.016 393.462 231.868 394.38 C 238.019 399.933 232.356 409.78 228.208 414.791 C 224.238 415.287 223.469 415.04 221.564 411.989 C 220.867 406.238 223.205 399.156 225.495 393.905 z"/>
<path transform="translate(0,0)" fill="rgb(37,17,20)" d="M 1272.54 752.767 C 1284.06 753.14 1285.45 766.269 1283.96 775.155 C 1282.67 782.869 1281.99 784.6 1275.59 789.251 C 1259.43 785.973 1260.18 761.944 1272.54 752.767 z"/>
<path transform="translate(0,0)" fill="rgb(255,255,255)" d="M 1273.28 754.356 C 1284.12 757.725 1281.81 780.293 1275.44 787.468 C 1264.16 782.101 1266.84 762.46 1273.28 754.356 z"/>
<path transform="translate(0,0)" fill="rgb(2,1,1)" d="M 57.708 378.259 C 61.1409 378.27 69.6809 377.688 71.8359 379.292 C 68.6358 386.052 68.6692 387.638 69.0628 395.14 L 89.1133 395.152 C 89.312 385.008 90.6404 386.962 85.2423 379.252 C 87.4839 377.691 95.871 378.22 98.6502 378.705 C 96.8495 380.474 95.9385 381.561 94.3779 383.503 C 93.9361 391.679 93.7919 403.393 94.3751 411.82 C 94.4482 412.875 96.8958 414.494 97.8918 415.139 L 98.547 415.558 L 97.6884 416.528 C 94.499 416.674 89.2875 417.309 86.5918 416.05 C 86.5811 415.086 86.5139 414.351 86.9858 413.472 C 89.9099 408.025 89.4432 403.835 89.185 397.691 L 69.136 397.848 C 68.9933 402.775 68.5607 408.267 69.5731 413.035 L 73.3982 415.261 L 73.444 416.464 C 68.907 416.638 64.3656 416.67 59.8266 416.559 L 59.2414 415.542 C 61.0941 414.725 61.3372 414.629 62.9138 413.381 C 65.689 406.699 64.6593 391.04 63.4035 383.673 C 62.8917 380.672 60.2508 379.794 57.708 378.259 z"/>
<path transform="translate(0,0)" fill="rgb(31,22,26)" d="M 116.853 640.924 C 135.354 640.272 139.254 659.35 123.533 667.715 C 106.845 669.321 102.491 649.396 116.853 640.924 z"/>
<path transform="translate(0,0)" fill="rgb(255,255,255)" d="M 116.287 642.664 C 129.618 643.063 131.228 656.757 124.462 665.468 C 117.975 665.238 113.304 662.87 112.445 655.787 C 111.911 651.074 113.295 646.345 116.287 642.664 z"/>
<path transform="translate(0,0)" fill="rgb(2,1,1)" d="M 1729.32 617.458 C 1735.84 622.979 1735.52 616.793 1743.35 619.364 C 1746.51 621.454 1748.14 624.503 1749.03 628.112 C 1751.44 637.846 1738.9 640.63 1732.24 641.814 L 1730.33 644.814 C 1731.29 647.406 1732.78 649.427 1734.33 651.698 L 1733.48 653.762 C 1730.78 654.153 1727.76 653.053 1725.06 652.305 L 1724.58 650.849 L 1727.88 648.427 C 1728.62 639.034 1728.12 628.158 1726.21 618.949 L 1729.32 617.458 z"/>
<path transform="translate(0,0)" fill="rgb(255,255,255)" d="M 1734.71 620.331 C 1746.6 620.502 1745.74 631.055 1741.29 639.088 C 1738.16 639.331 1736.4 639.761 1733.74 638.147 C 1729.92 633.031 1730.89 625.119 1734.71 620.331 z"/>
<path transform="translate(0,0)" fill="rgb(31,22,26)" d="M 147.825 640.98 L 151.291 641.138 C 153.992 641.277 156.431 641.43 159.122 641.709 C 160.386 643.193 163.143 655.984 165.656 661.865 C 167.349 657.812 170.868 650.23 171.533 645.92 C 171.717 644.721 169.952 643.499 168.81 642.388 L 169.667 641.457 L 176.737 641.308 L 177.347 642.308 C 171.964 652.322 169.075 658.642 164.505 669.046 C 161.668 663.986 159.392 657.022 157.383 651.441 L 149.717 668.365 C 145.412 660.657 142.531 648.722 136.865 642.669 L 137.179 641.731 C 140.956 641.597 144.066 641.378 147.825 640.98 z"/>
<path transform="translate(0,0)" fill="rgb(217,212,223)" d="M 147.825 640.98 L 151.291 641.138 L 151.413 642.079 C 158.255 649.561 154.307 653.877 150.591 661.801 C 148.156 654.366 142.62 647.239 147.825 640.98 z"/>
<path transform="translate(0,0)" fill="rgb(2,1,1)" d="M 1881.14 641.092 C 1877.32 640.876 1873.93 641.452 1871.61 639.287 C 1872.89 632.991 1875.21 625.323 1871 619.881 C 1872.89 618.03 1872.39 618.58 1875.54 618.205 L 1876.81 620.798 C 1882.61 620.667 1885.94 616.092 1890.72 620.538 C 1892.58 628.984 1889.34 634.288 1894.85 639.914 C 1892.86 641.249 1886.98 640.716 1883.91 640.95 L 1881.14 641.092 z"/>
<path transform="translate(0,0)" fill="rgb(217,212,223)" d="M 1881.14 641.092 C 1874.65 634.905 1874.19 623.427 1883.46 620.987 C 1890.51 623.296 1889.75 636.572 1883.91 640.95 L 1881.14 641.092 z"/>
<path transform="translate(0,0)" fill="rgb(31,22,26)" d="M 1761.1 618.691 C 1767.03 617.162 1773.11 620.626 1774.81 626.511 C 1776.52 632.397 1773.23 638.571 1767.4 640.451 C 1763.47 641.717 1759.16 640.746 1756.16 637.915 C 1753.15 635.085 1751.92 630.843 1752.95 626.844 C 1753.98 622.845 1757.1 619.722 1761.1 618.691 z"/>
<path transform="translate(0,0)" fill="rgb(255,255,255)" d="M 1760.57 619.471 C 1772.3 620.522 1773.17 631.261 1767.66 639.585 C 1755.37 638.609 1755.3 628.242 1760.57 619.471 z"/>
<path transform="translate(0,0)" fill="rgb(31,22,26)" d="M 1852.19 618.704 C 1858.13 617.179 1864.21 620.666 1865.89 626.566 C 1867.58 632.467 1864.25 638.634 1858.4 640.473 C 1854.47 641.708 1850.18 640.713 1847.2 637.875 C 1844.22 635.037 1843.01 630.803 1844.05 626.819 C 1845.08 622.835 1848.2 619.727 1852.19 618.704 z"/>
<path transform="translate(0,0)" fill="rgb(255,255,255)" d="M 1851.77 619.512 C 1863.39 621.217 1864.52 630.959 1858.58 639.511 C 1846.39 638.694 1846.27 628.054 1851.77 619.512 z"/>
<path transform="translate(0,0)" fill="rgb(31,22,26)" d="M 148.762 376.157 C 152.554 376.009 152.808 375.326 155.222 377.107 C 157.182 382.177 156.127 389.423 156.003 395.38 C 174.147 384.841 172.155 394.553 172.997 409.512 C 173.229 413.636 173.441 412.982 176.453 415.566 L 175.664 416.472 C 172.71 416.62 170 417.016 167.27 415.933 L 166.786 413.976 C 168.731 408.579 168.583 406.989 168.419 401.339 C 168.315 399.386 167.945 397.55 167.613 395.625 C 165.326 393.713 165.762 394.271 162.396 393.82 C 154.388 397.241 152.966 410.415 159.155 415.491 L 158.081 416.496 C 154.836 416.51 149.778 417.158 147.588 415.629 L 150.47 413.514 C 152.32 409.686 150.949 387.99 150.462 382.505 C 150 377.301 148.434 380.757 148.762 376.157 z"/>
<path transform="translate(0,0)" fill="rgb(87,23,119)" d="M 610.979 526.91 L 611.157 526.339 C 612.05 523.393 612.091 521.583 612.278 518.521 L 613.573 518.014 C 621.966 521.771 630.417 525.472 639.261 528.06 C 634.369 529.342 614.23 537.529 612.378 537.635 C 612.208 536.093 611.619 530.41 611.246 529.16 C 600.254 529.27 590.339 529.279 579.365 528.789 L 579.086 528.065 C 584.971 525.67 603.486 526.744 610.979 526.91 z"/>
<path transform="translate(0,0)" fill="rgb(2,1,1)" d="M 1126.57 183.974 L 1128.69 182.324 C 1131.3 184.906 1128.86 199.353 1130.63 203.613 C 1132.46 204.112 1134 204.532 1135.25 204.871 C 1132.47 208.905 1125.79 205.195 1132.69 216.289 C 1130.5 217.54 1125.71 217.06 1123.64 215.43 C 1123.59 210.069 1127.29 211.276 1125.25 207.523 C 1120.9 206.392 1118.62 206.837 1114.22 207.284 L 1112.41 205.8 C 1112.24 201.344 1123.32 187.879 1126.57 183.974 z"/>
<path transform="translate(0,0)" fill="rgb(68,52,56)" d="M 1114.22 207.284 L 1112.41 205.8 C 1112.24 201.344 1123.32 187.879 1126.57 183.974 C 1126.82 191.502 1119.09 201.272 1114.22 207.284 z"/>
<path transform="translate(0,0)" fill="rgb(2,1,1)" d="M 75.9 628.931 C 80.6993 628.912 85.8105 628.689 90.5035 629.548 C 82.3127 634.657 87.176 649.273 85.9419 658.041 C 85.5545 660.793 86.6786 662.597 88.4446 664.526 C 93.946 666.471 99.6767 662.448 102.901 658.234 L 103.134 657.925 L 104.253 658.513 C 103.947 661.886 103.754 662.852 102.792 666.101 C 100.012 667.659 78.4472 667.457 76.1945 665.945 C 78.2321 664.892 78.8017 664.736 80.3199 662.988 C 82.5397 655.63 81.1181 642.963 80.4894 635.023 C 80.2089 631.481 78.4304 630.848 75.9 628.931 z"/>
<path transform="translate(0,0)" fill="rgb(2,1,1)" d="M 405.012 762.194 C 407.512 762.119 409.583 761.802 411.698 763.157 L 411.338 767.305 C 413.937 768.672 415.753 762.221 421.56 761.923 C 430.49 765.803 420.286 779.026 422.588 784.21 L 426.415 783.053 L 426.444 784.158 C 423.602 787.109 422.115 788.646 417.896 788.146 C 416.699 784.945 417.595 783.511 418.294 779.801 C 419.516 775.227 421.503 769.796 419.905 765.645 L 418.237 765.426 C 413.154 767.52 407.725 781.488 404.09 787.377 L 403.256 787.323 C 404.051 782.448 406.997 767.261 404.666 764.02 L 405.012 762.194 z"/>
<path transform="translate(0,0)" fill="rgb(31,22,26)" d="M 635.847 761.787 C 638.126 761.912 640.053 761.83 642.047 762.975 L 642.234 767.577 C 647.013 767.061 646.695 760.214 654.383 762.522 C 658.336 768.922 652.069 777.468 653.396 783.848 C 655.054 783.451 655.096 783.418 656.786 783.455 C 655.834 786.863 654.533 788.257 651.216 788.94 L 649.099 787.199 C 647.366 783.656 648.711 780.13 649.628 776.245 C 650.545 772.673 652.244 768.907 649.461 766.195 C 646.048 766.821 643.255 770.329 640.708 772.894 C 639.449 777.816 638.027 784.76 635.487 788.913 C 633.671 784.427 636.494 771.72 636.581 765.598 L 634.617 763.604 L 635.847 761.787 z"/>
<path transform="translate(0,0)" fill="rgb(31,22,26)" d="M 716.293 762.102 C 720.022 762.19 719.608 761.645 722.418 763.354 C 722.284 764.838 722.26 766.151 722.229 767.64 C 728.346 766.479 726.481 760.174 734.955 763.038 C 737.767 768.274 732.848 776.003 731.773 783.495 L 732.615 784.597 C 734.431 784.055 735.67 783.684 737.539 783.368 L 736.58 785.045 C 733.431 786.637 731.558 788.319 728.559 787.834 C 727.578 785.314 728.841 781.654 729.497 778.878 C 730.366 774.006 731.063 768.573 731.806 763.632 C 727.148 766.813 725.092 768.789 721.036 772.641 C 719.031 778.294 719.131 785.81 715.155 788.593 L 713.782 787.562 C 714.05 786.156 714.299 784.747 714.527 783.335 C 715.314 778.567 718 767.471 715.554 764.059 L 716.293 762.102 z"/>
<path transform="translate(0,0)" fill="rgb(222,236,219)" d="M 1826.81 166.4 C 1835.27 170.944 1845.34 175.122 1851.84 181.997 C 1852.66 185.688 1852.21 184.933 1850.4 189.102 C 1845.73 187.262 1828.35 176.871 1824.01 173.872 C 1823.6 171.337 1825.43 169.042 1826.81 166.4 z"/>
<path transform="translate(0,0)" fill="rgb(222,236,219)" d="M 1650.28 103.575 C 1660.5 105.196 1670.33 105.828 1679.28 110.877 C 1681.37 113.926 1680.59 113.475 1679.77 118.315 C 1670.61 116.574 1660.13 113.902 1650.78 111.915 C 1649.37 109.552 1650.02 106.441 1650.28 103.575 z"/>
<path transform="translate(0,0)" fill="rgb(222,236,219)" d="M 1588.99 93.9871 C 1599.67 95.8498 1608.21 94.6054 1618.12 99.2058 C 1620.28 102.261 1619.51 101.703 1618.72 106.602 C 1609.21 105.017 1597.73 105.029 1589.73 101.702 C 1587.74 98.569 1588.54 98.6142 1588.99 93.9871 z"/>
<path transform="translate(0,0)" fill="rgb(222,236,219)" d="M 1526.52 90.0008 C 1536.19 90.8216 1547.83 89.6125 1555.94 92.7842 C 1558.27 95.6181 1557.45 95.2656 1557.06 100.137 C 1548.17 99.6229 1535.54 100.5 1528.01 97.4636 C 1525.52 94.6651 1526.38 94.9336 1526.52 90.0008 z"/>
<path transform="translate(0,0)" fill="rgb(222,236,219)" d="M 1711.52 117.879 C 1720.63 120.664 1731.85 120.969 1738.69 126.854 C 1740.44 130.602 1739.79 130.032 1739.29 134.756 C 1730.84 131.862 1717.68 129.5 1711.38 125.257 C 1709.86 121.98 1710.57 122.239 1711.52 117.879 z"/>
<path transform="translate(0,0)" fill="rgb(222,236,219)" d="M 1770.93 139.481 C 1771.75 139.678 1772.56 139.891 1773.37 140.119 C 1778.08 141.416 1797.09 148.071 1799.16 151.716 C 1797.21 153.405 1796.75 154.144 1795.32 156.179 L 1794.39 156.784 C 1787.15 154.883 1774.55 150.969 1769.22 145.79 C 1768.52 142.56 1768.98 143.176 1770.93 139.481 z"/>
<path transform="translate(0,0)" fill="rgb(2,1,1)" d="M 1627.69 753.468 L 1629.09 754.493 C 1628.02 759.792 1618.95 755.033 1613.94 760.201 C 1612.48 769.146 1626.22 765.221 1630.43 772.235 C 1633.96 778.138 1626.72 784.417 1622.49 787.792 C 1619.92 789.851 1614.21 787.927 1611.41 786.985 C 1610.43 784.496 1610.43 785.476 1611.16 783.222 C 1615.79 784.29 1617.36 785.997 1621.8 785.099 C 1625.9 781.291 1625.91 775.406 1623.51 770.55 C 1618.67 767.495 1617.11 771.855 1612.63 767.998 C 1610.95 764.013 1612.42 758.133 1613.09 753.64 L 1627.69 753.468 z"/>
<path transform="translate(0,0)" fill="rgb(2,1,1)" d="M 1779.37 622.574 C 1783.09 619.205 1789.46 615.859 1793.91 619.451 L 1794.08 622.549 L 1793.09 623.485 C 1788.72 619.807 1790.6 620.411 1785.55 620.217 L 1784.31 621.365 C 1786.99 628.858 1796.28 630.748 1794.21 638.186 C 1789.84 643.314 1786.4 642.384 1781.05 639.261 C 1779.38 637.306 1779.84 634.725 1779.93 632.102 L 1779.37 622.574 z"/>
<path transform="translate(0,0)" fill="rgb(217,212,223)" d="M 1779.93 632.102 L 1779.37 622.574 C 1781 626.554 1780.27 626.288 1783.77 628.874 C 1786.69 631.037 1791.73 634.171 1790.65 638.19 C 1787.7 639.392 1787.25 639.301 1784.11 638.806 C 1781.78 637.159 1781.07 634.75 1779.93 632.102 z"/>
<path transform="translate(0,0)" fill="rgb(31,22,26)" d="M 55.5967 374.952 C 55.9175 376.727 52.435 382.522 51.4329 385.079 C 46.5062 397.649 46.1679 408.172 51.9319 420.598 C 53.2345 423.406 54.6491 424.452 55.8621 427.405 L 54.2088 427.765 C 38.7398 411.454 39.2764 390.051 55.5967 374.952 z"/>
<path transform="translate(0,0)" fill="rgb(222,236,219)" d="M 1461.9 89.9964 C 1466.88 89.9061 1491.96 88.801 1494.81 90.8911 L 1495.54 97.0783 C 1487.53 96.6452 1472.46 97.1898 1464.31 95.0891 C 1462.72 94.6779 1462.41 91.8771 1461.9 89.9964 z"/>
<path transform="translate(0,0)" fill="rgb(31,22,26)" d="M 179.794 374.943 C 197.94 387.111 194.903 411.218 182.532 426.472 L 180.76 427.48 L 180.188 426.726 C 192.611 405.612 188.452 395.793 179.794 374.943 z"/>
<path transform="translate(0,0)" fill="rgb(31,22,26)" d="M 179.063 625.515 C 186.679 629.119 191.814 639.428 192.362 647.571 C 193.222 660.34 189.859 667.89 181.811 677.619 L 180.807 678.321 L 179.898 677.62 C 190.877 658.126 190.772 644.575 179.063 625.515 z"/>
<path transform="translate(0,0)" fill="rgb(2,1,1)" d="M 560.838 757.344 L 563.159 758.777 C 564.609 762.15 564.099 767.327 564.018 771.153 C 567.889 771.1 571.718 770.705 575.208 772.325 L 575.474 773.526 C 572.24 775.384 567.861 774.902 564.024 774.871 C 564.096 779.963 563.948 783.835 563.606 788.916 L 560.781 787.387 C 559.262 783.881 559.879 778.77 560.03 774.807 C 556.143 774.946 552.282 775.431 548.746 773.875 L 548.295 772.548 C 551.707 770.542 555.913 771.1 559.946 771.195 C 559.944 765.704 559.887 762.791 560.838 757.344 z"/>
<path transform="translate(0,0)" fill="rgb(68,52,56)" d="M 662.743 745.977 C 682.881 759.353 680.521 781.489 665.745 798.005 L 663.815 798.522 C 675.534 779.883 675.36 764.135 662.743 745.977 z"/>
<path transform="translate(0,0)" fill="rgb(37,17,20)" d="M 953.746 748.107 C 956.424 751.926 953.227 774.781 955.544 779.973 L 959.576 781.471 L 959.878 782.641 C 957.155 783.32 947.896 783.026 944.537 782.996 C 945.407 781.432 947.402 780.863 949.164 780.072 C 951.058 776.564 950.675 759.944 949.928 755.11 C 949.643 753.271 946.367 754.005 944.381 753.206 C 945.636 751.249 951.276 749.205 953.746 748.107 z"/>
<path transform="translate(0,0)" fill="rgb(31,22,26)" d="M 1925.84 754.064 C 1929.12 756.832 1925.21 780.904 1928.02 784.918 C 1929.77 785.62 1930.94 785.844 1931.96 787.401 C 1929.68 788.969 1919.12 787.82 1915.93 787.578 C 1917.98 786.516 1919.86 785.625 1921.95 784.664 C 1923.44 781.503 1923.69 762.088 1921.32 759.553 L 1916.34 759.646 C 1917.56 757.38 1923.16 755.316 1925.84 754.064 z"/>
<path transform="translate(0,0)" fill="rgb(31,22,26)" d="M 249.005 397.029 C 250.219 397.034 251.433 397.086 252.643 397.187 C 271.284 398.919 248.695 418.369 248.084 422.77 C 254.416 423.975 255.019 423.982 259.476 419.298 C 261.017 422.37 261.074 421.332 260.304 424.127 C 256.34 426.85 257.698 426.069 252.327 426.483 C 248.393 426.565 245.446 427.38 243.572 423.708 C 245.404 416.586 257.702 412.331 255.537 401.942 C 253.347 398.791 254.512 399.513 251.039 398.598 C 247.361 400.167 247.853 401.379 245.571 405.631 L 243.956 405.035 L 243.391 403.311 C 244.722 400.104 246.255 399.214 249.005 397.029 z"/>
<path transform="translate(0,0)" fill="rgb(37,17,20)" d="M 71.3574 626.018 C 71.5717 627.827 67.5413 633.773 66.6542 636.685 C 61.8013 652.615 62.1989 662.277 71.3929 676.703 L 70.7135 678.157 C 69.5201 676.929 68.3727 675.658 67.2736 674.345 C 55.9364 660.638 57.2302 637.535 71.3574 626.018 z"/>
<path transform="translate(0,0)" fill="rgb(68,52,56)" d="M 1116.62 429.319 C 1123 422.821 1133.35 415.01 1125.94 406.102 C 1122.39 405.004 1123.75 404.93 1120.24 405.944 C 1115.55 411.213 1121.23 410.396 1115.89 413.041 L 1114.18 412.43 C 1113.29 399.571 1134.81 400.711 1133.67 411.941 C 1132.89 419.602 1121.88 426.134 1117.92 433.158 L 1116.62 429.319 z"/>
<path transform="translate(0,0)" fill="rgb(37,17,20)" d="M 505.735 747.977 L 506.419 748.649 C 497.064 761.808 498.482 779.452 503.804 793.911 L 502.871 794.76 C 490.971 778.58 492.154 762.657 505.735 747.977 z"/>
<path transform="translate(0,0)" fill="rgb(37,17,20)" d="M 393.652 745.685 C 394.378 746.346 394.488 746.982 394.893 747.953 C 393.537 755.24 381.423 793.593 378.328 800.183 L 377.369 799.336 C 376.47 795.573 391.025 751.972 393.652 745.685 z"/>
<path transform="translate(0,0)" fill="rgb(2,1,1)" d="M 1817.56 610.505 C 1818.52 610.956 1819.23 611.82 1819.99 612.584 C 1819.51 620.422 1821.08 616.724 1826.02 619.761 L 1820.88 621.273 C 1817.55 626.89 1818.83 629.827 1820.9 635.913 C 1821.72 638.308 1824.3 638.464 1826.66 639.295 C 1823.03 640.787 1821.54 641.142 1818.26 639.851 C 1813.5 633.401 1814.02 617.438 1817.56 610.505 z"/>
<path transform="translate(0,0)" fill="rgb(37,17,20)" d="M 704.673 745.675 L 705.647 746.624 C 706.271 751.379 691.757 791.288 689.203 799.267 L 687.743 798.543 C 689.198 790.523 701.018 752.848 704.673 745.675 z"/>
<path transform="translate(0,0)" fill="rgb(2,1,1)" d="M 108.196 390.225 C 112.829 391.605 112.004 409.213 113.355 415.416 C 111.364 416.739 107.654 416.591 104.947 416.802 C 104.124 416.665 103.371 416.155 102.596 415.743 C 104.853 414.606 105.124 414.411 106.82 412.538 C 107.955 407.653 106.45 397.064 104.959 392.187 L 108.196 390.225 z"/>
<path transform="translate(0,0)" fill="rgb(2,1,1)" d="M 519.991 762.221 C 521.615 762.188 523.427 762.326 525.063 762.411 C 529.75 769.352 520.809 778.618 523.579 784.323 L 527.114 783.268 L 527.087 784.656 L 526.489 783.906 L 526.562 785.666 L 525.509 786.678 C 521.816 788.172 522.433 788.596 519.179 787.844 C 516.319 783.095 521.325 773.079 522.196 765.946 L 519.619 763.958 L 519.991 762.221 z"/>
<path transform="translate(0,0)" fill="rgb(31,22,26)" d="M 360.854 762.156 C 374.902 761.288 362.108 777.652 363.593 784.077 L 367.188 783.189 L 367.974 783.806 L 366.749 786.305 C 363.115 788.067 363.976 788.272 360.383 788.013 C 356.961 781.445 362.804 773.794 362.717 765.914 L 360.577 764.094 L 360.854 762.156 z"/>
<path transform="translate(0,0)" fill="rgb(2,1,1)" d="M 252.801 647.009 C 255.49 649.697 252.987 665.67 254.605 672.008 C 256.202 672.79 257.012 672.992 258.032 674.378 C 255.405 675.344 248.889 674.85 245.757 674.77 C 246.431 673.939 248.171 673.091 249.189 672.518 C 251.777 668.848 252.013 654.365 249.757 651.229 L 246.506 651.365 L 246.477 650.208 L 252.801 647.009 z"/>
<path transform="translate(0,0)" fill="rgb(87,23,119)" d="M 714.005 402.331 C 720.484 401.959 727.85 401.451 734.055 403.173 L 734.268 404.047 C 729.193 405.663 723.404 405.18 718.014 405.093 C 712.814 406.932 718.732 415.498 714.51 420.804 L 713.518 419.977 C 712.447 415.889 712.172 406.11 714.005 402.331 z"/>
<path transform="translate(0,0)" fill="rgb(31,22,26)" d="M 1835.76 618.033 L 1836.48 618.726 C 1837.76 622.61 1836.59 630.034 1836.82 634.184 C 1836.87 634.958 1839.98 637.372 1839.66 640.712 L 1831.23 640.742 L 1830.44 640.199 C 1837.1 629.83 1830.23 624.363 1831.75 619.015 L 1835.76 618.033 z"/>
<path transform="translate(0,0)" fill="rgb(222,236,219)" d="M 1407.13 90.3968 C 1415.34 90.1664 1423.76 89.8255 1431.78 91.7937 C 1432.58 92.8853 1432.43 92.2919 1432.57 93.505 C 1430.63 94.1226 1430.32 94.0433 1428.25 94.0163 C 1422.73 94.0921 1405.82 94.6905 1402.1 91.9838 C 1403.61 90.1967 1404.14 90.7192 1407.13 90.3968 z"/>
<path transform="translate(0,0)" fill="rgb(222,236,219)" d="M 1339.29 90.4797 C 1346.38 90.2865 1363.6 89.4498 1369.64 91.3569 L 1370.74 93.6468 C 1364.72 93.8162 1344.27 94.828 1339.97 92.92 L 1339.29 90.4797 z"/>
<path transform="translate(0,0)" fill="rgb(2,1,1)" d="M 1117.92 433.158 C 1123.53 436.541 1128.12 433.378 1132.69 430.631 L 1133.41 431.446 L 1132.62 437.782 C 1126.17 437.61 1118.2 439.69 1113.92 436.203 C 1114.03 432.419 1114.4 433.001 1116.62 429.319 L 1117.92 433.158 z"/>
<path transform="translate(0,0)" fill="rgb(112,49,139)" d="M 837.571 573.258 C 838.501 573.802 839.19 574.756 839.907 575.591 C 840.916 582.647 840.518 589.885 839.532 596.924 L 837.554 594.809 C 836.361 587.952 836.984 580.192 837.571 573.258 z"/>
<path transform="translate(0,0)" fill="rgb(112,49,139)" d="M 837.408 617.388 C 838.621 617.718 838.953 618.21 839.844 619.084 C 841.023 626.043 840.407 633.328 839.625 640.313 C 835.115 638.542 837.169 622.113 837.408 617.388 z"/>
<path transform="translate(0,0)" fill="rgb(112,49,139)" d="M 837.625 442.285 C 838.541 442.821 839.22 443.766 839.926 444.59 C 840.905 451.587 840.507 458.836 839.525 465.815 L 837.569 463.785 C 836.409 456.779 836.866 449.328 837.625 442.285 z"/>
<path transform="translate(0,0)" fill="rgb(112,49,139)" d="M 837.818 529.445 C 838.406 529.883 839.317 530.979 839.852 531.571 C 840.81 538.278 840.622 546.285 839.547 552.97 C 838.691 552.306 838.041 551.291 837.384 550.406 C 836.476 543.566 836.788 536.259 837.818 529.445 z"/>
<path transform="translate(0,0)" fill="rgb(112,49,139)" d="M 837.294 486.283 C 838.594 486.593 838.927 487.129 839.86 488.081 C 840.94 494.881 840.374 502.124 839.64 508.95 C 835.242 507.66 837.133 490.729 837.294 486.283 z"/>
<path transform="translate(0,0)" fill="rgb(112,49,139)" d="M 801.335 402.436 C 807.244 401.929 816.975 401.451 822.632 402.555 L 823.96 404.597 C 818.113 405.036 807.797 405.898 802.306 404.49 L 801.335 402.436 z"/>
<path transform="translate(0,0)" fill="rgb(87,23,119)" d="M 713.355 573.488 C 717.832 574.994 715.788 591.852 715.569 596.401 L 714.015 595.812 C 711.625 592.451 713.052 577.838 713.355 573.488 z"/>
<path transform="translate(0,0)" fill="rgb(87,23,119)" d="M 713.482 442.364 C 714.115 442.858 715.026 443.966 715.6 444.608 C 716.527 451.203 716.072 458.972 715.322 465.593 C 714.718 465.147 713.796 464.034 713.25 463.428 C 712.318 456.759 712.739 449.055 713.482 442.364 z"/>
<path transform="translate(0,0)" fill="rgb(87,23,119)" d="M 713.254 617.402 L 714.592 618.008 C 717.207 621.745 715.852 634.763 715.566 639.964 L 714.39 639.681 C 711.563 635.925 713.001 622.893 713.254 617.402 z"/>
<path transform="translate(0,0)" fill="rgb(87,23,119)" d="M 713.632 529.444 L 715.437 531.286 C 716.583 538.2 716.022 545.688 715.436 552.661 C 714.324 551.872 714.115 551.458 713.242 550.418 C 712.334 543.558 712.621 536.279 713.632 529.444 z"/>
<path transform="translate(0,0)" fill="rgb(87,23,119)" d="M 713.162 486.307 L 714.593 486.919 C 717.151 490.725 715.844 503.408 715.581 508.698 L 714.565 508.495 C 711.548 505.173 712.961 491.677 713.162 486.307 z"/>
<path transform="translate(0,0)" fill="rgb(112,49,139)" d="M 757.69 402.446 C 763.518 402.098 776.883 400.264 780.505 404.653 C 774.651 405 764.169 405.871 758.716 404.481 L 757.69 402.446 z"/>
<path transform="translate(0,0)" fill="rgb(112,49,139)" d="M 837.273 403.247 C 838.612 403.571 838.972 404.124 839.945 405.091 C 841.004 410.273 840.264 416.278 839.904 421.625 C 838.767 421.057 838.444 420.659 837.481 419.841 C 836.354 414.714 837.003 408.571 837.273 403.247 z"/>
</svg>
