<svg version="1.1" xmlns="http://www.w3.org/2000/svg" style="display: block;" viewBox="0 0 2048 1497" width="936" height="684" preserveAspectRatio="none">
<path transform="translate(0,0)" fill="rgb(253,253,254)" d="M 0 0 L 2048 0 L 2048 1497 L 2032.81 1497 L 15.1595 1497 L 0 1497 L 0 0 z"/>
<path transform="translate(0,0)" fill="rgb(222,224,226)" d="M 0 0 L 2048 0 L 2048 1497 L 2032.81 1497 L 2032.8 15.2305 L 15.1811 15.3726 L 15.1595 1497 L 0 1497 L 0 0 z"/>
<path transform="translate(0,0)" fill="rgb(207,198,210)" d="M 573.45 703.027 L 574.755 705.389 C 580.18 705.282 598.052 699.726 604.767 698.29 C 622.803 694.46 641.071 691.82 659.453 690.387 C 771.177 681.496 881.438 720.363 962.889 797.351 C 969.318 803.595 975.802 809.783 982.339 815.915 L 984.584 818.475 C 1022.51 851.866 1071.22 948.113 1079.35 998.033 C 1102.24 1077.22 1086.75 1197.29 1046.55 1269.64 C 1045.31 1271.86 1043.51 1275.21 1042.14 1277.22 L 1042.24 1277.81 C 994.502 1366.51 915.144 1434 819.932 1466.87 C 720.208 1500.96 611.069 1494.42 516.134 1448.65 C 419.438 1401.64 345.603 1317.85 311.131 1216.01 C 277.781 1116.42 284.925 1007.71 331.021 913.342 C 382.485 810.376 464.593 742.671 573.179 706.33 L 573.45 703.027 z"/>
<path transform="translate(0,0)" fill="rgb(253,253,254)" d="M 573.45 703.027 L 574.755 705.389 C 580.18 705.282 598.052 699.726 604.767 698.29 C 622.803 694.46 641.071 691.82 659.453 690.387 C 771.177 681.496 881.438 720.363 962.889 797.351 C 969.318 803.595 975.802 809.783 982.339 815.915 L 984.584 818.475 C 1022.51 851.866 1071.22 948.113 1079.35 998.033 C 1102.24 1077.22 1086.75 1197.29 1046.55 1269.64 C 1045.31 1271.86 1043.51 1275.21 1042.14 1277.22 C 971.763 1211.43 936.4 1120.42 929.998 1025.55 C 884.755 1022.68 848.728 1016.92 805.974 1000.39 C 707.508 961.944 630.205 883.194 593.589 784.032 C 588.601 770.506 584.983 757.154 581.122 743.342 C 578.534 734.082 577.052 714.036 573.179 706.33 L 573.45 703.027 z"/>
<path transform="translate(0,0)" fill="rgb(222,224,226)" d="M 931 1025.05 C 973.239 1025.01 1011.46 1019.83 1051.88 1007.38 C 1084.04 997.47 1080.13 1000.85 1069.91 968.822 C 1055.39 924.24 1033.45 882.43 1005.01 845.158 C 997.531 835.395 988.962 827.305 982.957 819.585 L 984.584 818.475 C 1022.51 851.866 1071.22 948.113 1079.35 998.033 C 1102.24 1077.22 1086.75 1197.29 1046.55 1269.64 C 1045.31 1271.86 1043.51 1275.21 1042.14 1277.22 C 971.763 1211.43 936.4 1120.42 929.998 1025.55 C 929.871 1017.89 931.035 999.753 930.373 993.56 C 931.206 996.871 930.991 1020 931 1025.05 z"/>
<path transform="translate(0,0)" fill="rgb(1,1,1)" d="M 980.191 1121.69 C 984.097 1113.59 992.405 1094.1 993.98 1085.62 C 992.9 1082.47 993.515 1083.55 989.606 1081.57 L 989.334 1080.66 C 993.385 1079.28 1001.56 1079.53 1005.69 1080.59 L 1003.89 1080.73 C 997.336 1086.76 983.374 1126.6 978.303 1138.21 C 970.978 1121.57 962.525 1099.9 953.051 1084.38 C 952.119 1082.86 948.723 1081.13 947.033 1080.3 C 952.002 1079.59 965.104 1079.61 970.035 1080.42 L 970.024 1081.42 C 967.751 1082.03 967.019 1082.34 964.913 1083.23 C 963.9 1087.98 977.388 1115.28 980.191 1121.69 z"/>
<path transform="translate(0,0)" fill="rgb(1,1,1)" d="M 1008.25 1080.49 C 1013.49 1079.67 1028.94 1079.44 1034.02 1080.41 L 1034.01 1081.36 C 1031.59 1081.82 1029.75 1081.96 1027.69 1083.27 C 1025.67 1087.76 1025.89 1124.77 1025.83 1132.4 L 1035.75 1134.5 C 1030.83 1135.64 1013.47 1137.93 1010.09 1134.08 C 1013.35 1133.23 1013.77 1133.22 1016.57 1131.46 C 1017.55 1123.96 1018.23 1090.04 1016.36 1083.69 C 1013.27 1081.68 1011.79 1081.48 1008.25 1080.49 z"/>
<path transform="translate(0,0)" fill="rgb(222,224,226)" d="M 998.922 899.813 C 1003.2 898.202 1021.58 897.055 1024.82 899.569 C 1021.06 902.332 1020.81 899.035 1017.17 902.518 C 1016.65 909.794 1015.07 945.982 1018.09 950.347 L 1024.47 953.342 C 1020.94 956.3 1003.85 954.69 999.28 953.217 L 998.245 953.343 C 990.469 955.72 978.137 954.581 969.829 954.039 C 972.332 953.002 976.962 951.96 979.736 951.243 C 980.483 935.799 980.063 917.303 979.789 901.787 C 976.057 900.706 972.307 899.69 968.539 898.74 C 975.512 898.452 992.737 897.221 998.36 899.754 L 998.922 899.813 z"/>
<path transform="translate(0,0)" fill="rgb(1,1,1)" d="M 968.539 898.74 C 975.512 898.452 992.737 897.221 998.36 899.754 C 994.941 900.374 992.144 900.395 989.789 902.728 C 988.4 909.795 988.628 942.695 989.719 949.955 C 991.764 952.432 994.887 952.587 998.245 953.343 C 990.469 955.72 978.137 954.581 969.829 954.039 C 972.332 953.002 976.962 951.96 979.736 951.243 C 980.483 935.799 980.063 917.303 979.789 901.787 C 976.057 900.706 972.307 899.69 968.539 898.74 z"/>
<path transform="translate(0,0)" fill="rgb(1,1,1)" d="M 998.922 899.813 C 1003.2 898.202 1021.58 897.055 1024.82 899.569 C 1021.06 902.332 1020.81 899.035 1017.17 902.518 C 1016.65 909.794 1015.07 945.982 1018.09 950.347 L 1024.47 953.342 C 1020.94 956.3 1003.85 954.69 999.28 953.217 C 1002.54 952.579 1005.39 952.533 1007.46 950.195 C 1008.61 943.068 1008.62 909.825 1007.33 902.688 C 1004.91 900.235 1002.47 900.348 998.922 899.813 z"/>
<path transform="translate(0,0)" fill="rgb(1,1,1)" d="M 909.727 898.456 C 914.744 898.346 919.761 898.278 924.779 898.254 C 927.141 898.262 931.059 898.128 932.586 899.66 L 927.316 902.296 C 926.799 906.506 940.188 934.263 942.931 940.26 C 948.309 927.677 953.135 917.942 955.526 904.421 C 954.483 901.101 954.884 902.179 951.594 899.657 L 952.175 898.872 C 956.645 897.826 962.594 898.524 967.329 898.813 L 968.049 899.629 L 963.883 901.322 C 958.874 907.655 945.594 945.907 941.126 956.604 C 933.49 941.863 927.27 924.801 919.267 909.972 C 915.281 902.585 916.715 902.038 909.598 899.673 L 909.727 898.456 z"/>
<path transform="translate(0,0)" fill="rgb(1,1,1)" d="M 822.717 858.539 C 827.17 848.691 832.8 835.772 836.064 825.489 C 838.292 818.468 833.212 820.908 831.127 817.684 C 834.612 816.383 843.662 816.672 847.44 817.375 L 846.074 818.035 L 845.399 818.804 C 839.544 825.358 825.768 863.868 821.098 874.876 C 812.316 858.702 805.42 835.564 794.831 820.327 C 794.183 819.393 790.641 817.843 789.386 817.324 C 794.386 816.765 807.182 816.487 811.983 817.423 C 812.463 820.453 809.101 817.132 806.924 821.734 C 809.118 829.235 819.119 850.416 822.717 858.539 z"/>
<path transform="translate(0,0)" fill="rgb(1,1,1)" d="M 761.583 817.493 C 766.776 816.698 781.844 816.333 786.888 817.45 L 786.736 818.443 L 780.557 820.336 C 779.098 824.266 779.865 861.629 779.935 869.052 C 783.008 869.802 784.373 870.181 787.31 871.325 L 786.665 872.29 C 779.983 872.647 768.947 873.775 763.03 871.616 L 762.857 870.779 C 766.964 869.893 767.586 870.496 770.024 867.784 C 770.959 858.991 771.422 830.829 769.544 821.224 C 769.232 819.627 763.564 818.106 761.583 817.493 z"/>
<path transform="translate(0,0)" fill="rgb(1,1,1)" d="M 564.945 1126.5 C 571.104 1125.35 584.635 1125.45 590.787 1126.49 L 590.693 1127.41 C 587.442 1128.34 585.777 1128.43 583.538 1130.77 C 582.387 1139.05 582.719 1167.73 583.44 1176.44 C 585.632 1179.43 587.468 1179.37 591.419 1180.96 C 587.186 1181.89 569.897 1183.11 566.743 1180.68 C 569.753 1179.77 571.791 1178.78 572.715 1175.57 C 574.829 1168.23 575.217 1134.54 572.545 1129.2 C 570.04 1128.23 567.505 1127.32 564.945 1126.5 z"/>
<path transform="translate(0,0)" fill="rgb(237,223,156)" d="M 1308.5 629.767 L 1309.04 630.83 C 1420.7 635.903 1511.53 672.646 1587.98 756.241 C 1637.6 811.492 1669.87 880.131 1680.75 953.597 C 1683.14 969.985 1685.25 1006.26 1684.51 1022.87 C 1680.8 1125.19 1635.61 1221.6 1559.35 1289.93 C 1484.91 1356.72 1387.02 1391.28 1287.14 1386.02 C 1198.08 1381.68 1104.85 1341.62 1042.24 1277.81 L 1042.14 1277.22 C 1043.51 1275.21 1045.31 1271.86 1046.55 1269.64 C 1086.75 1197.29 1102.24 1077.22 1079.35 998.033 C 1071.22 948.113 1022.51 851.866 984.584 818.475 L 982.339 815.915 C 1045.27 704.862 1172.45 633.894 1297 631.453 C 1300.28 631.389 1305.84 631.323 1308.5 629.767 z"/>
<path transform="translate(0,0)" fill="rgb(224,212,197)" d="M 1308.5 629.767 L 1309.04 630.83 C 1309.31 657.558 1309.81 677.389 1306.5 704.136 C 1296.13 782.684 1260.84 855.835 1205.82 912.844 C 1170.12 949.344 1127.16 979.646 1079.35 998.033 C 1071.22 948.113 1022.51 851.866 984.584 818.475 L 982.339 815.915 C 1045.27 704.862 1172.45 633.894 1297 631.453 C 1300.28 631.389 1305.84 631.323 1308.5 629.767 z"/>
<path transform="translate(0,0)" fill="rgb(1,1,1)" d="M 1108.06 820.499 C 1112.55 809.712 1117.91 797.259 1121.34 786.045 C 1122.07 783.643 1118.85 780.362 1117.29 778.679 C 1123.62 777.988 1125.74 777.989 1132.11 778.41 L 1132.04 779.32 C 1124.7 785.074 1110.36 826.679 1106.26 837.777 C 1100.5 824.18 1085.49 785.78 1074.97 778.272 C 1079.95 778.152 1084.93 778.064 1089.91 778.01 C 1093.02 777.996 1096 777.632 1097.92 779.534 C 1096.03 780.279 1094.56 780.99 1092.75 781.869 C 1091.51 786.019 1105.33 814.366 1108.06 820.499 z"/>
<path transform="translate(0,0)" fill="rgb(1,1,1)" d="M 1437.91 1065.98 C 1437.95 1055.02 1438.74 1029.53 1437.22 1017.75 C 1437.06 1016.46 1432.56 1015.61 1430.57 1015.04 L 1430.5 1014.03 C 1434.1 1012.75 1449.82 1012.85 1453.6 1013.56 L 1454.33 1015.14 C 1452.39 1015.55 1450.61 1016.06 1448.71 1016.59 C 1445.05 1021.88 1445.64 1060.93 1450.22 1066.81 C 1452.34 1067.21 1453.24 1067.18 1454.9 1068.58 C 1452.08 1069.74 1403.94 1069.56 1402.01 1068.11 C 1405.08 1067.03 1406.38 1066.56 1409.24 1065.05 C 1410.42 1061.07 1410.03 1025.63 1409.82 1019.43 C 1408.05 1016.49 1407.42 1016.48 1403.72 1015.07 L 1402.41 1014.58 L 1403.4 1013.44 C 1408.49 1013.3 1423.23 1012.18 1426.73 1014.75 L 1420.46 1017.05 C 1417.55 1021.22 1418.96 1058.29 1419.03 1065.85 C 1428.29 1068.46 1428.38 1068.28 1437.91 1065.98 z"/>
<path transform="translate(0,0)" fill="rgb(1,1,1)" d="M 1458.35 1013.49 C 1462.73 1013.35 1480.25 1011.91 1482.65 1014.68 C 1479.04 1015.85 1477.69 1015.88 1475.47 1018.69 C 1474.31 1022.03 1474.63 1030.15 1475.07 1034.09 C 1476.28 1044.84 1468.63 1064.54 1482.41 1067.37 L 1482.47 1069 C 1476.25 1069.24 1462.97 1069.75 1457.25 1068.4 C 1459.44 1065.82 1461.44 1068.44 1465.51 1064.51 C 1466.75 1056.05 1466.79 1027.57 1465.29 1017.89 C 1465.02 1016.19 1461.41 1015.92 1459.38 1015.47 L 1458.35 1013.49 z"/>
<path transform="translate(0,0)" fill="rgb(207,198,210)" d="M 573.45 703.027 C 573.005 699.372 572.6 695.713 572.235 692.049 C 562.766 594.447 592.118 497.044 653.936 420.924 C 716.129 344.607 806.273 296.348 904.269 286.906 C 1001.74 277.407 1098.99 307.062 1174.58 369.334 C 1256.18 436.566 1298.5 525.758 1308.5 629.767 C 1305.84 631.323 1300.28 631.389 1297 631.453 C 1172.45 633.894 1045.27 704.862 982.339 815.915 C 975.802 809.783 969.318 803.595 962.889 797.351 C 881.438 720.363 771.177 681.496 659.453 690.387 C 641.071 691.82 622.803 694.46 604.767 698.29 C 598.052 699.726 580.18 705.282 574.755 705.389 L 573.45 703.027 z"/>
<path transform="translate(0,0)" fill="rgb(1,1,1)" d="M 898.886 518.512 C 905.079 517.543 947.426 517.382 952.642 518.501 L 952.467 519.555 L 948.074 521.077 C 945.351 525.964 946.106 563.006 947.167 569.372 C 949.113 571.822 952.264 572.074 955.521 572.894 C 949.484 574.985 910.776 574.034 902.547 573.614 L 902.262 572.708 C 905.25 571.501 907.033 571.188 908.88 568.736 C 909.876 557.563 909.767 533.111 907.362 522.352 C 905.052 519.55 903.126 519.904 898.886 518.512 z"/>
<path transform="translate(0,0)" fill="rgb(207,198,210)" d="M 928.107 519.293 C 931.185 519.47 934.623 520.058 936.695 522.415 C 937.695 528.955 938.166 563.512 936.505 569.842 C 934.125 572.044 931.438 572.051 928.107 572.62 C 924.328 572.142 923.418 572.239 920.127 570.535 C 917.68 567.397 917.463 528.574 916.948 521.694 C 920.778 520.534 924.195 519.992 928.107 519.293 z"/>
<path transform="translate(0,0)" fill="rgb(1,1,1)" d="M 97.0868 1340.5 C 119.732 1337.84 157.616 1338.37 154.261 1371.22 C 153.276 1380.87 150.153 1385.02 142.892 1391.07 C 129.916 1397.29 112.615 1397.53 98.514 1395.69 L 98.3599 1394.57 C 101.464 1393.71 102.305 1393.73 104.574 1391.63 C 106.023 1382.15 105.157 1356.59 104.788 1345.88 C 104.714 1343.71 99.7432 1341.92 97.0868 1340.5 z"/>
<path transform="translate(0,0)" fill="rgb(253,253,254)" d="M 113.956 1343.78 C 142.191 1342.8 154.786 1365.03 138.619 1387.17 C 130.022 1393.27 124.229 1392.96 114.023 1393 C 113.771 1376.6 113.748 1360.19 113.956 1343.78 z"/>
<path transform="translate(0,0)" fill="rgb(1,1,1)" d="M 1701.7 1105.51 C 1715.77 1104.23 1753.71 1101.48 1745.03 1126.07 C 1743.3 1130.97 1735.57 1133.2 1731.13 1134.65 C 1737.04 1141.72 1742.67 1149.8 1749.07 1156.33 C 1750.48 1157.77 1753.06 1158.22 1755.72 1160.38 C 1752.38 1161.58 1745.65 1161.2 1741.82 1161.18 L 1736.88 1154.95 C 1733.55 1150.43 1724.12 1135.42 1718.94 1136.19 C 1715.12 1141.11 1716.11 1151.19 1718.55 1156.73 C 1719.58 1159.07 1721.71 1158.93 1724.08 1159.51 L 1724.42 1160.45 C 1720.17 1161.81 1706.78 1161.51 1702.3 1160.71 L 1702.21 1159.57 L 1705.39 1158.79 C 1710.66 1153.52 1708.95 1117.6 1707.48 1109.24 C 1707.32 1108.3 1703.46 1107.43 1702.44 1107.11 L 1701.7 1105.51 z"/>
<path transform="translate(0,0)" fill="rgb(253,253,254)" d="M 1717.15 1108.68 C 1730.87 1108.1 1744.16 1113.55 1733.41 1128.73 C 1728.5 1131.35 1723.11 1133.77 1718.32 1130.24 C 1715.82 1124.7 1716.94 1115.24 1717.15 1108.68 z"/>
<path transform="translate(0,0)" fill="rgb(1,1,1)" d="M 749.745 107.294 C 760.061 105.802 777.572 106.275 787.497 108.968 C 801.802 121.496 796.568 131.261 780.031 136.034 C 783.208 139.506 797.903 154.882 800.749 156.668 C 802.079 157.498 803.423 158.306 804.779 159.092 C 802.283 160.803 797.723 160.094 794.356 160.328 C 791.369 160.534 790.07 158.357 788.418 156.423 C 783.194 148.961 773.583 139.746 766.869 133.389 C 766.718 137.964 766.462 143.566 766.53 148.026 C 766.732 161.378 769.963 155.648 773.812 159.477 C 768.334 160.388 756.919 160.9 751.594 159.721 L 751.518 158.543 C 753.104 157.562 753.658 157.18 755.424 156.531 L 756.632 156.096 C 758.402 150.971 758.313 117.118 756.815 111.322 C 754.316 109.698 752.39 108.682 749.745 107.294 z"/>
<path transform="translate(0,0)" fill="rgb(253,253,254)" d="M 765.934 109.986 C 779.445 109.868 793.962 115.259 782.324 130.521 C 776.654 133.359 772.882 133.286 766.58 133.853 C 765.615 124.417 765.549 119.294 765.934 109.986 z"/>
<path transform="translate(0,0)" fill="rgb(1,1,1)" d="M 863.478 124.212 C 864.823 124.082 866.171 123.983 867.52 123.915 C 885.162 123.197 888.449 146.829 876.29 156.571 C 868.037 163.184 865.788 159.932 857.454 159.544 C 854.045 165.074 855.786 170.277 859.328 175.376 C 861.671 176.152 862.431 176.59 864.403 178.084 C 858.905 178.429 849.554 179.245 844.649 177.507 C 845.757 176.019 847.526 175.562 849.419 174.686 C 850.946 171.138 849.433 144.719 850.052 138.989 C 850.77 132.33 849.931 131.218 844.545 128.608 C 846.003 126.607 853.617 124.754 856.214 124.917 L 857.269 128.357 C 859.583 128.167 861.606 125.869 863.478 124.212 z"/>
<path transform="translate(0,0)" fill="rgb(253,253,254)" d="M 862.922 128.945 C 879.299 129.245 878.972 147.827 869.854 157.818 C 866.049 158.064 861.324 158.642 858.951 154.757 C 855.537 149.166 855.631 144.244 856.821 138.042 C 858.008 131.858 857.926 132.509 862.922 128.945 z"/>
<path transform="translate(0,0)" fill="rgb(1,1,1)" d="M 1813.77 1151.06 C 1815.43 1147.95 1818.93 1141.77 1819.98 1138.59 C 1823.27 1128.64 1816.01 1126.43 1814.75 1124 C 1817.29 1122.67 1828.37 1122.59 1830.68 1124.44 C 1829.68 1125.26 1828.59 1125.84 1827.44 1126.42 C 1825.82 1131.64 1832.68 1145.17 1835.07 1150.72 C 1837.48 1144.94 1843.52 1133.66 1843.13 1127.41 C 1843.03 1125.91 1841.15 1125.04 1839.6 1123.86 C 1842.69 1123.07 1846.45 1122.77 1849.43 1124.04 C 1848.61 1129.09 1835.73 1157.65 1833.29 1163.49 C 1830.02 1157.59 1825.95 1146.26 1823.35 1139.64 C 1819.48 1147.84 1815.98 1155.39 1811.49 1163.27 C 1806.35 1152.59 1800.3 1132.04 1793.65 1123.35 C 1796.73 1123.25 1805.78 1122.58 1807.75 1124.13 C 1802.78 1129.78 1810.87 1143.71 1813.77 1151.06 z"/>
<path transform="translate(0,0)" fill="rgb(1,1,1)" d="M 933.017 138.748 C 933.443 132.528 934.813 127.818 927.744 125.869 C 920.852 128.188 919.916 135.47 915.792 136.692 C 913.924 134.388 914.6 135.705 914.159 132.411 C 921.646 119.411 935.78 118.415 939.592 134.012 C 941.167 140.456 939.35 151.229 941.893 155.17 C 943.471 155.57 945.046 155.987 946.616 156.42 C 944.817 159.418 944.744 160.053 941.7 161.285 C 936.372 161.002 934.105 156.492 932.625 156.911 C 926.624 158.611 917.83 163.158 912.083 157.603 C 910.748 154.067 912.526 150.139 913.888 146.486 C 915.232 145.676 916.492 144.85 917.912 144.193 C 923.493 141.888 927.23 140.342 933.017 138.748 z"/>
<path transform="translate(0,0)" fill="rgb(253,253,254)" d="M 917.912 144.193 C 923.493 141.888 927.23 140.342 933.017 138.748 L 933.145 140.401 C 933.525 147.002 934.378 154.121 926.287 156.455 C 920.149 155.029 919.77 151.457 919.714 145.716 L 917.912 144.193 z"/>
<path transform="translate(0,0)" fill="rgb(36,36,37)" d="M 917.912 144.193 C 923.493 141.888 927.23 140.342 933.017 138.748 L 933.145 140.401 C 930.21 141.655 922.374 145.208 919.714 145.716 L 917.912 144.193 z"/>
<path transform="translate(0,0)" fill="rgb(1,1,1)" d="M 317.859 1380.1 C 312.454 1392.06 304.512 1401.1 290.61 1395.32 C 270.871 1387.11 287.714 1348.08 306.906 1358.42 C 310.957 1360.61 313.519 1366.65 314.396 1371.16 L 314.603 1372.26 C 309.12 1373.61 295.678 1373.14 289.281 1373.23 L 288.563 1374.58 C 289.098 1383.56 291.658 1390.65 302.349 1390.48 C 309.492 1390.37 313.429 1384.98 317.859 1380.1 z"/>
<path transform="translate(0,0)" fill="rgb(253,253,254)" d="M 289.837 1370.06 L 289.555 1366.97 C 293.859 1357.08 302.539 1359.03 306.196 1368.88 C 301.602 1370.76 295.058 1370.12 289.837 1370.06 z"/>
<path transform="translate(0,0)" fill="rgb(1,1,1)" d="M 256.92 1380.1 C 254.023 1385.97 248.939 1394.14 242.502 1396.51 C 219.803 1405.09 212.975 1363.32 233.12 1358.2 C 246.172 1354.89 250.759 1361.55 253.63 1372.34 C 247.186 1373.63 235.079 1373.27 228.459 1372.73 L 227.317 1375.01 C 227.991 1382.93 230.051 1390.29 239.724 1390.58 C 247.639 1390.82 251.833 1385.33 256.92 1380.1 z"/>
<path transform="translate(0,0)" fill="rgb(253,253,254)" d="M 228.058 1369.66 C 228.897 1358.75 241.48 1355.33 244.772 1370.74 C 241.544 1370.09 232.033 1369.91 228.058 1369.66 z"/>
<path transform="translate(0,0)" fill="rgb(1,1,1)" d="M 195.587 1380.1 C 179.507 1412.37 151.358 1395.35 162.508 1366.29 C 165.72 1357.92 178.354 1355.33 185.448 1359.6 C 189.827 1362.23 191.048 1367.66 192.317 1372.35 C 185.391 1373.53 173.926 1373.22 166.583 1373.26 C 164.162 1379.35 169.224 1391.49 177.909 1390.46 C 188.165 1389.24 189.011 1386.97 195.587 1380.1 z"/>
<path transform="translate(0,0)" fill="rgb(253,253,254)" d="M 167.066 1370.08 C 164.807 1362.69 172.475 1359.71 179.228 1362.01 C 182.515 1364.46 182.543 1366.19 183.686 1370.21 L 167.066 1370.08 z"/>
<path transform="translate(0,0)" fill="rgb(1,1,1)" d="M 1776.64 1122.15 C 1784.36 1123.59 1790.23 1126.81 1791.05 1135.43 C 1786.69 1141.7 1776 1135.14 1767.29 1138.9 C 1762.23 1145.66 1772.52 1167.7 1791.36 1148.41 L 1792.13 1148.33 L 1792.48 1149.62 C 1789.77 1154.56 1785.62 1160.14 1779.8 1161.32 C 1753.14 1166.7 1750.8 1127.31 1776.64 1122.15 z"/>
<path transform="translate(0,0)" fill="rgb(253,253,254)" d="M 1770.17 1125.93 C 1775.57 1125.42 1783.34 1127.36 1781.7 1134.25 L 1779.18 1135.16 C 1774.69 1135.28 1769.33 1136.11 1766.06 1133.56 C 1766.04 1130.31 1768.02 1128.62 1770.17 1125.93 z"/>
<path transform="translate(0,0)" fill="rgb(1,1,1)" d="M 1947.61 1122.06 C 1954.07 1123.18 1964 1128.22 1962.5 1135.83 C 1958.36 1139.51 1943.13 1138.29 1936.36 1138.36 C 1940.32 1155.77 1947.41 1162.73 1962.45 1149.19 C 1963.06 1148.63 1962.59 1148.98 1964.09 1148.6 C 1963.78 1152.76 1956.96 1159.4 1953.15 1160.58 C 1926.16 1168.93 1921.86 1129.1 1947.61 1122.06 z"/>
<path transform="translate(0,0)" fill="rgb(253,253,254)" d="M 1942.29 1125.86 C 1947.81 1125.33 1955.41 1127.46 1953.78 1134.26 L 1951.19 1135.18 C 1946.52 1135.3 1941.34 1136.16 1937.99 1133.46 C 1938.05 1130.22 1940.1 1128.51 1942.29 1125.86 z"/>
<path transform="translate(0,0)" fill="rgb(1,1,1)" d="M 999.908 124.15 C 1008.82 123.372 1015.25 124.571 1018.52 134.414 C 1019.32 136.831 1018.94 136.536 1017.74 138.572 C 1010.17 141.767 998.052 135.856 993.719 142.037 C 994.427 153.279 1005.82 159.265 1015.26 151.241 C 1016.35 150.17 1017.58 149.088 1018.72 148.049 L 1019.46 149.151 C 1018.3 152.208 1014.36 157.132 1011.45 158.507 C 986.997 170.068 976.973 136.734 999.908 124.15 z"/>
<path transform="translate(0,0)" fill="rgb(253,253,254)" d="M 999.054 126.9 C 1004.47 126.77 1012.41 129.871 1009.49 136.098 L 1007.1 136.649 C 1002.62 136.781 996.343 138.133 994.191 133.851 C 994.959 130.625 996.724 129.322 999.054 126.9 z"/>
<path transform="translate(0,0)" fill="rgb(1,1,1)" d="M 821.105 124.155 C 834.213 123.251 837.989 126.708 840.875 139.085 C 835.243 139.259 818.109 137.878 814.762 141.239 C 814.962 152.337 826.289 158.917 836.733 151.288 C 838.294 149.399 838.266 149.225 840.488 147.998 L 840.779 149.535 C 839.411 152.339 836.309 156.415 833.667 157.878 C 809.218 171.425 797.685 137.328 821.105 124.155 z"/>
<path transform="translate(0,0)" fill="rgb(253,253,254)" d="M 820.121 126.977 C 825.868 126.66 833.421 129.627 830.64 136.296 L 828.25 136.642 C 823.89 136.805 817.965 138.039 815.364 134.281 C 816.02 130.819 817.696 129.588 820.121 126.977 z"/>
<path transform="translate(0,0)" fill="rgb(1,1,1)" d="M 209.4 1339.27 L 210.687 1339.39 C 212.627 1344.98 210.129 1381.04 211.469 1389.48 C 212.109 1393.51 213.089 1392.54 216.77 1395.42 C 212.148 1396.55 204.966 1396.21 199.963 1396.19 C 199.144 1395.81 199.641 1396.11 198.69 1395 C 200.834 1394.22 201.363 1394.15 203.257 1392.81 C 204.768 1387.7 204.438 1352.5 203.385 1345.05 C 203.243 1344.05 199.896 1343.15 198.439 1342.6 C 200.836 1340.4 205.91 1339.95 209.4 1339.27 z"/>
<path transform="translate(0,0)" fill="rgb(1,1,1)" d="M 268.674 1347.89 C 270.022 1350.09 269.354 1352.51 269.21 1355.54 C 271.785 1360.37 273.584 1355.78 278.557 1359.24 C 277.06 1361.16 273.954 1360.76 270.167 1361.78 C 268.595 1366.32 269.053 1386.42 270.705 1391.12 C 273.876 1393.06 272.932 1392.41 277.883 1391.31 L 279.378 1392.47 C 277.156 1394.41 272.513 1397.73 269.561 1397.19 C 251.848 1393.89 267.26 1368.8 258.263 1359.68 C 259.765 1356.51 265.813 1350.97 268.674 1347.89 z"/>
<path transform="translate(0,0)" fill="rgb(1,1,1)" d="M 897.156 106.255 L 898.236 105.985 C 898.847 106.173 899.661 106.057 900.07 106.549 C 903.172 110.282 899.523 153.892 902.88 157.275 C 903.791 158.193 905.751 157.978 907.072 159.37 C 903.898 160.551 896.778 160.227 893.004 160.237 L 889.245 159.59 C 890.1 158.751 893.553 155.807 893.621 155.076 C 894.532 145.353 895.244 120.342 892.931 111.563 C 890.978 110.41 890.582 110.363 889.185 108.533 C 891.172 106.829 894.187 106.807 897.156 106.255 z"/>
<path transform="translate(0,0)" fill="rgb(1,1,1)" d="M 963.912 124.069 C 969.907 123.728 975.481 123.982 979.797 128.605 C 981.021 132.436 981.084 130.959 980.215 134.667 C 973.915 138.819 966.595 119.264 960.652 127.731 C 951.628 140.59 956.539 155.188 972.755 154.843 C 976.122 152.455 976.295 151.005 980.671 149.426 L 981.307 150.53 C 977.232 157.846 964.554 164.594 958.06 159.383 C 943.406 147.622 949.494 131.074 963.912 124.069 z"/>
<path transform="translate(0,0)" fill="rgb(1,1,1)" d="M 1864.64 1123.08 L 1866.54 1123.63 L 1866.98 1126.97 L 1868.17 1127.41 C 1871.99 1123.97 1879.34 1118.77 1881.57 1126.99 C 1880.07 1130.06 1881.18 1129.02 1878.37 1130.47 C 1875.21 1129.12 1874.61 1128.7 1871.26 1128.42 C 1865.43 1132.15 1865.49 1152.64 1867.69 1157.97 C 1870.11 1158.61 1870.65 1158.84 1872.85 1159.8 L 1872.39 1160.66 C 1867.91 1161.49 1858.63 1161.6 1854.31 1160.41 C 1856.86 1158.61 1857.24 1158.29 1859.34 1155.99 C 1859.4 1148.08 1859.71 1138.69 1859.2 1130.9 C 1857.47 1128.81 1857.25 1128.57 1855.04 1126.94 L 1854.52 1126.56 C 1857.88 1125.37 1861.26 1124.21 1864.64 1123.08 z"/>
<path transform="translate(0,0)" fill="rgb(1,1,1)" d="M 1917.58 1112.71 C 1918.05 1114.59 1918.02 1118.99 1918.08 1121.14 C 1920.13 1124.46 1920.74 1121.8 1926.47 1123.82 L 1926.23 1125.16 C 1923.26 1125.67 1918.89 1126.6 1918.17 1129.85 C 1916.94 1135.37 1917.04 1150.36 1919.1 1155.09 C 1923.72 1158.29 1921.93 1155.59 1927.47 1157.08 L 1926.15 1159.85 C 1921.97 1161.78 1919.43 1162.78 1915 1161.08 C 1906.37 1153.7 1913.23 1135.7 1910.78 1126.64 C 1908.87 1126.01 1907.98 1125.97 1906.73 1124.45 C 1910.71 1120.51 1913.89 1116.93 1917.58 1112.71 z"/>
<path transform="translate(0,0)" fill="rgb(1,1,1)" d="M 1894.95 1123.12 C 1897.59 1125.56 1894.42 1149.58 1896.14 1156.83 C 1898.26 1158.18 1898.86 1158.43 1900.51 1160.43 C 1896.47 1161.77 1888.24 1161.1 1883.59 1160.96 C 1883.84 1157.33 1887.72 1160.06 1888.27 1157.77 C 1889.89 1151 1889.64 1135.06 1887.72 1129.1 C 1886.39 1128.21 1886.19 1128.14 1884.71 1127.7 L 1883.46 1127.34 L 1883.88 1126.31 L 1894.95 1123.12 z"/>
</svg>
