<svg version="1.1" xmlns="http://www.w3.org/2000/svg" style="display: block;" viewBox="0 0 2048 363" width="1446" height="256" preserveAspectRatio="none">
<path transform="translate(0,0)" fill="rgb(255,255,255)" d="M 0 0 L 6.97733 0 L 2048 0 L 2048 363 L 6.97169 363 L 0 363 L 0 0 z"/>
<path transform="translate(0,0)" fill="rgb(220,227,228)" d="M 6.97733 0 L 2048 0 L 2048 363 L 6.97169 363 L 6.97686 355.429 C 27.5772 357.174 73.5688 355.649 96.0378 355.63 L 271.393 355.71 L 806.589 355.674 C 825.317 355.688 1044.85 356.815 1049.39 354.978 C 1049.49 353.372 1049.62 352.475 1049.94 350.895 C 1052.55 350.926 1052.17 354.112 1055.83 355.656 L 1061.61 349.589 L 1062.63 350.278 L 1062.26 353.598 L 1063.25 354.653 L 2045.66 355.961 C 2047.11 240.75 2045.72 122.503 2045.73 7.03932 C 1970.11 8.61544 1888.9 7.10873 1812.86 7.14686 L 1329.6 7.08903 L 6.96422 7.16498 L 6.97733 0 z"/>
<path transform="translate(0,0)" fill="rgb(44,43,45)" d="M 0 0 L 6.97733 0 L 6.96422 7.16498 L 6.97686 355.429 L 6.97169 363 L 0 363 L 0 0 z"/>
<path transform="translate(0,0)" fill="rgb(74,70,70)" d="M 2027.2 51.5932 L 2028.48 52.2844 C 2029.31 56.4876 2028.85 73.1497 2028.83 78.5998 L 2029 123.222 L 2028.96 303.573 C 2003.51 302.765 1975.6 303.256 1950.02 303.258 L 1812.05 303.287 L 1395.58 303.287 L 124.75 303.256 L 122.159 303.131 C 119.945 300.709 120.987 230.116 120.987 222.759 L 120.842 51.7881 L 1358.96 51.8325 L 1795.79 51.8421 C 1871.9 51.8415 1951.27 53.029 2027.2 51.5932 z"/>
<path transform="translate(0,0)" fill="rgb(255,255,255)" d="M 122.94 53.6566 L 1346.15 53.815 L 1796.43 53.8274 L 1944.07 53.8273 C 1969.42 53.8264 2000.55 54.6174 2025.5 53.4393 L 2025.49 301.812 C 2020.41 303.035 1993.87 301.677 1987.98 301.084 C 1975.6 300.297 1956.08 300.852 1943.33 300.849 L 1858.26 300.86 L 1815.05 300.865 C 1801.97 301.233 1786.84 300.933 1773.62 300.958 L 1691.6 300.937 L 1685.82 301.001 L 1565.61 300.95 L 1435.46 300.852 L 1394.1 300.877 L 1307.1 300.828 C 1305.77 297.843 1290.46 281.977 1287.48 278.812 L 1286.78 278.336 C 1272.97 278.782 1259.15 278.929 1245.34 278.777 L 1244.52 278.057 L 1244.18 278.127 L 1242.96 278.671 C 1239.18 282.997 1226.38 296.923 1223.7 300.853 L 1179.85 300.928 C 1166.59 301.316 1150.59 300.925 1137.15 300.912 C 1109.77 301.159 1082.38 301.157 1055 300.906 L 1007.54 300.81 L 970.864 300.859 L 925.553 300.848 L 882.932 300.987 C 860.483 302.192 825.052 301.082 801.746 300.998 L 797.953 301.045 L 758.038 300.91 L 715.01 300.823 C 700.92 301.115 685.522 300.842 671.345 300.839 L 589 300.89 C 559.372 301.35 528.534 300.959 498.798 301.032 C 473.617 300.476 447.39 300.863 422.133 300.899 L 335.345 300.833 L 122.844 300.892 C 122.923 219.483 121.758 134.857 122.94 53.6566 z"/>
<path transform="translate(0,0)" fill="rgb(196,117,170)" d="M 1604.45 187.012 C 1618.47 202.492 1632.66 217.825 1647.01 233.008 C 1652.87 229.74 1659.58 225.781 1665.64 223.126 L 1668.22 220.813 C 1675.42 217.644 1682 214.181 1688.97 210.561 C 1695.93 214.019 1724.08 229.483 1728.64 230.62 L 1730.29 231.541 C 1740.98 246.394 1750.78 265.258 1760.81 278.978 C 1763.93 284.283 1771.22 295.915 1773.62 300.958 L 1691.6 300.937 L 1685.82 301.001 L 1565.61 300.95 L 1435.46 300.852 C 1438.22 296.51 1446.8 288.253 1450.47 283.976 C 1472.79 257.942 1479.67 253.808 1509.17 238.713 C 1510.94 240.387 1518.22 252.665 1519.9 255.457 C 1544.74 242.531 1557.25 238.497 1576.06 217.706 L 1576.21 217.216 C 1585.72 207.335 1595 196.701 1604.45 187.012 z"/>
<path transform="translate(0,0)" fill="rgb(230,154,192)" d="M 1604.45 187.012 C 1618.47 202.492 1632.66 217.825 1647.01 233.008 C 1652.87 229.74 1659.58 225.781 1665.64 223.126 C 1647.64 260.18 1639.84 259.9 1604.97 277.968 C 1597.26 263.716 1583.54 229.043 1576.06 217.706 L 1576.21 217.216 C 1585.72 207.335 1595 196.701 1604.45 187.012 z"/>
<path transform="translate(0,0)" fill="rgb(179,101,140)" d="M 1604.77 278.547 L 1625.65 290.015 C 1633.23 285.6 1639.05 282.554 1646.97 278.779 C 1657.9 284.358 1677.13 293.543 1685.82 301.001 L 1565.61 300.95 C 1572.05 294.912 1595.76 282.937 1604.77 278.547 z"/>
<path transform="translate(0,0)" fill="rgb(179,101,140)" d="M 1691.6 300.937 C 1716.87 281.911 1730.92 277.514 1760.81 278.978 C 1763.93 284.283 1771.22 295.915 1773.62 300.958 L 1691.6 300.937 z"/>
<path transform="translate(0,0)" fill="rgb(230,154,192)" d="M 1773.76 72.3551 C 1783.99 114.487 1793.92 156.692 1803.55 198.966 C 1805.57 207.695 1814.83 250.713 1817.92 255.711 C 1824.47 266.303 1848.48 289.293 1858.26 300.86 L 1815.05 300.865 C 1801.97 301.233 1786.84 300.933 1773.62 300.958 C 1771.22 295.915 1763.93 284.283 1760.81 278.978 C 1750.78 265.258 1740.98 246.394 1730.29 231.541 C 1732.53 227.38 1739.35 200.032 1740.98 193.936 L 1761.9 115.43 C 1765.16 103.224 1769.75 84.0758 1773.76 72.3551 z"/>
<path transform="translate(0,0)" fill="rgb(210,118,133)" d="M 1760.81 278.978 C 1763.31 278.742 1769.13 278.245 1771.3 278.863 C 1782.17 281.957 1806.3 294.852 1815.05 300.865 C 1801.97 301.233 1786.84 300.933 1773.62 300.958 C 1771.22 295.915 1763.93 284.283 1760.81 278.978 z"/>
<path transform="translate(0,0)" fill="rgb(230,154,192)" d="M 1477.16 186.781 L 1509.29 238.235 L 1509.17 238.713 C 1479.67 253.808 1472.79 257.942 1450.47 283.976 C 1446.8 288.253 1438.22 296.51 1435.46 300.852 L 1394.1 300.877 L 1394 300.304 C 1406.84 293.341 1421.44 286.007 1433.85 278.59 C 1438.07 271.605 1445.02 255.601 1448.7 247.657 C 1458.01 227.282 1467.5 206.989 1477.16 186.781 z"/>
<path transform="translate(0,0)" fill="rgb(187,184,212)" d="M 1096.14 255.482 C 1100.72 259.873 1105.97 266.882 1110.97 270.324 L 1110.74 270.928 L 1124.49 285.899 L 1122.55 287.878 C 1127.41 289.568 1133.65 296.83 1137.15 300.912 C 1109.77 301.159 1082.38 301.157 1055 300.906 L 1054.95 300.326 C 1047.47 299.464 1039.15 292.678 1031.17 289.884 L 1031.09 289.3 C 1037.52 288.376 1087 260.442 1096.14 255.482 z"/>
<path transform="translate(0,0)" fill="rgb(179,101,140)" d="M 1110.74 270.928 L 1124.49 285.899 L 1122.55 287.878 C 1127.41 289.568 1133.65 296.83 1137.15 300.912 C 1109.77 301.159 1082.38 301.157 1055 300.906 L 1054.95 300.326 C 1068.52 292.91 1082.18 285.675 1095.94 278.624 C 1101.33 275.493 1105.07 273.491 1110.74 270.928 z"/>
<path transform="translate(0,0)" fill="rgb(143,158,174)" d="M 1110.74 270.928 L 1124.49 285.899 L 1122.55 287.878 C 1115.04 291.318 1103.32 282.494 1095.94 278.624 C 1101.33 275.493 1105.07 273.491 1110.74 270.928 z"/>
<path transform="translate(0,0)" fill="rgb(187,184,212)" d="M 1287.48 278.812 C 1290.31 278.841 1301 278.966 1303.15 278.405 C 1317.98 274.521 1336.46 263.065 1350.12 255.514 C 1355.67 261.273 1390.05 299.444 1394 300.304 L 1394.1 300.877 L 1307.1 300.828 C 1305.77 297.843 1290.46 281.977 1287.48 278.812 z"/>
<path transform="translate(0,0)" fill="rgb(187,184,212)" d="M 1509.29 238.235 C 1522.32 232.814 1550.56 199.457 1561.94 187.131 C 1566.03 194.108 1572.56 209.35 1576.21 217.216 L 1576.06 217.706 C 1557.25 238.497 1544.74 242.531 1519.9 255.457 C 1518.22 252.665 1510.94 240.387 1509.17 238.713 L 1509.29 238.235 z"/>
<path transform="translate(0,0)" fill="rgb(161,201,190)" d="M 1138.78 255.498 C 1146.83 266.484 1172.15 289.077 1177.99 298.841 L 1179.72 300.175 L 1179.85 300.928 C 1166.59 301.316 1150.59 300.925 1137.15 300.912 C 1133.65 296.83 1127.41 289.568 1122.55 287.878 L 1124.49 285.899 L 1110.74 270.928 L 1110.97 270.324 L 1138.78 255.498 z"/>
<path transform="translate(0,0)" fill="rgb(169,151,108)" d="M 1137.78 278.836 C 1149.54 283.34 1168.3 296.062 1177.99 298.841 L 1179.72 300.175 L 1179.85 300.928 C 1166.59 301.316 1150.59 300.925 1137.15 300.912 C 1133.65 296.83 1127.41 289.568 1122.55 287.878 L 1124.49 285.899 L 1137.78 278.836 z"/>
<path transform="translate(0,0)" fill="rgb(224,179,139)" d="M 1223 255.264 C 1230 262.23 1237.45 270.748 1244.18 278.127 L 1242.96 278.671 C 1239.18 282.997 1226.38 296.923 1223.7 300.853 L 1179.85 300.928 L 1179.72 300.175 L 1182.08 299.667 C 1192.31 286.939 1211.35 267.747 1223 255.264 z"/>
<path transform="translate(0,0)" fill="rgb(169,146,151)" d="M 1182.08 299.667 C 1209.21 290.09 1207.36 277.992 1242.96 278.671 C 1239.18 282.997 1226.38 296.923 1223.7 300.853 L 1179.85 300.928 L 1179.72 300.175 L 1182.08 299.667 z"/>
<path transform="translate(0,0)" fill="rgb(169,146,151)" d="M 545.223 278.171 C 552.071 281.822 583.374 299.718 588.988 300.409 L 589 300.89 C 559.372 301.35 528.534 300.959 498.798 301.032 L 499.953 300.095 C 506.937 300.916 536.823 282.855 545.223 278.171 z"/>
<path transform="translate(0,0)" fill="rgb(179,101,140)" d="M 839.385 278.831 L 843.936 278.932 C 854.269 285.647 871.614 294.192 882.973 300.327 L 882.932 300.987 C 860.483 302.192 825.052 301.082 801.746 300.998 C 811.862 293.205 828.923 286.758 839.385 278.831 z"/>
<path transform="translate(0,0)" fill="rgb(224,179,139)" d="M 630.162 278.584 C 639.947 283.313 662.409 294.978 671.345 300.839 L 589 300.89 L 588.988 300.409 C 601.8 293.394 617.102 284.753 630.162 278.584 z"/>
<path transform="translate(0,0)" fill="rgb(161,201,190)" d="M 375.909 278.51 C 387.415 283.764 412.232 300.726 422.293 299.903 L 422.133 300.899 L 335.345 300.833 C 345.859 293.73 364.24 284.548 375.909 278.51 z"/>
<path transform="translate(0,0)" fill="rgb(230,154,192)" d="M 757.18 278.381 C 762.645 281.363 773.305 287.581 778.793 289.285 L 778.706 289.863 C 782.976 292.182 794.562 298.241 797.953 301.045 L 758.038 300.91 L 715.01 300.823 C 719.94 299.554 750.544 281.922 757.18 278.381 z"/>
<path transform="translate(0,0)" fill="rgb(179,101,140)" d="M 778.706 289.863 C 782.976 292.182 794.562 298.241 797.953 301.045 L 758.038 300.91 C 761.847 298.36 774.65 291.311 778.706 289.863 z"/>
<path transform="translate(0,0)" fill="rgb(187,184,212)" d="M 422.293 299.903 C 426.946 295.222 453.327 282.238 460.73 278.455 C 467.986 282.171 495.208 295.982 499.953 300.095 L 498.798 301.032 C 473.617 300.476 447.39 300.863 422.133 300.899 L 422.293 299.903 z"/>
<path transform="translate(0,0)" fill="rgb(161,201,190)" d="M 1011.46 278.306 L 1031.09 289.3 L 1031.17 289.884 C 1039.15 292.678 1047.47 299.464 1054.95 300.326 L 1055 300.906 L 1007.54 300.81 L 970.864 300.859 L 970.866 300.31 C 984.277 292.755 997.811 285.42 1011.46 278.306 z"/>
<path transform="translate(0,0)" fill="rgb(143,158,174)" d="M 1031.17 289.884 C 1039.15 292.678 1047.47 299.464 1054.95 300.326 L 1055 300.906 L 1007.54 300.81 C 1017.45 299.701 1022.94 295.283 1031.17 289.884 z"/>
<path transform="translate(0,0)" fill="rgb(230,154,192)" d="M 843.936 278.932 C 874.486 278.031 878.613 274.869 904.99 289.391 L 905.085 289.948 C 911.663 292.59 919.287 297.258 925.553 300.848 L 882.932 300.987 L 882.973 300.327 C 871.614 294.192 854.269 285.647 843.936 278.932 z"/>
<path transform="translate(0,0)" fill="rgb(196,117,170)" d="M 905.085 289.948 C 911.663 292.59 919.287 297.258 925.553 300.848 L 882.932 300.987 L 882.973 300.327 C 887.955 300.32 900.104 292.708 905.085 289.948 z"/>
<path transform="translate(0,0)" fill="rgb(187,184,212)" d="M 1688.78 187.125 C 1699.85 198.775 1719.28 218.487 1728.64 230.62 C 1724.08 229.483 1695.93 214.019 1688.97 210.561 C 1682 214.181 1675.42 217.644 1668.22 220.813 C 1674.82 209.43 1681.67 198.198 1688.78 187.125 z"/>
<path transform="translate(0,0)" fill="rgb(169,146,151)" d="M 778.793 289.285 C 805.773 274.761 807.658 278.034 839.385 278.831 C 828.923 286.758 811.862 293.205 801.746 300.998 L 797.953 301.045 C 794.562 298.241 782.976 292.182 778.706 289.863 L 778.793 289.285 z"/>
<path transform="translate(0,0)" fill="rgb(187,184,212)" d="M 926.422 278.277 C 934.276 282.444 964.578 300.376 970.866 300.31 L 970.864 300.859 L 925.553 300.848 C 919.287 297.258 911.663 292.59 905.085 289.948 L 904.99 289.391 C 910.412 287.748 921.057 281.307 926.422 278.277 z"/>
<path transform="translate(0,0)" fill="rgb(230,154,192)" d="M 1265.1 255.214 C 1272.46 262.795 1279.69 270.504 1286.78 278.336 C 1272.97 278.782 1259.15 278.929 1245.34 278.777 L 1244.52 278.057 C 1251.09 270.759 1258.85 262.619 1265.1 255.214 z"/>
<path transform="translate(0,0)" fill="rgb(143,158,174)" d="M 1987.98 301.084 C 1995.85 300.934 2018.53 300.404 2025.49 301.812 C 2020.41 303.035 1993.87 301.677 1987.98 301.084 z"/>
<path transform="translate(0,0)" fill="rgb(187,184,212)" d="M 140.159 183.14 C 155.075 183.358 169.994 183.376 184.91 183.192 L 184.983 201.228 L 140.089 201.343 L 140.159 183.14 z"/>
<path transform="translate(0,0)" fill="rgb(224,179,139)" d="M 140.125 150.216 L 184.049 150.296 L 184.04 168.59 C 170.106 168.016 154.072 168.415 139.986 168.443 L 140.125 150.216 z"/>
<path transform="translate(0,0)" fill="rgb(230,154,192)" d="M 140.131 216.282 C 154.161 217.025 170.824 216.638 184.975 216.378 L 184.979 234.356 C 170.4 234.744 154.709 234.457 140.047 234.456 L 140.131 216.282 z"/>
<path transform="translate(0,0)" fill="rgb(161,201,190)" d="M 140.111 117.139 C 154.762 117.237 169.413 117.224 184.064 117.1 L 184.075 135.135 L 140.045 135.245 L 140.111 117.139 z"/>
<path transform="translate(0,0)" fill="rgb(44,43,45)" d="M 226.55 166.116 C 220.313 167.933 220.545 167.907 215.755 164.345 C 214.084 163.103 208.052 168.784 203.164 166.681 L 202.987 165.356 C 206.414 165.45 208.699 166.043 210.958 163.497 C 209.126 159.044 205.228 160.456 201.985 155.785 C 202.28 153.01 202.246 153.743 204.446 151.421 C 207.631 150.538 208.262 150.447 211.464 151.231 L 211.822 152.66 C 208.643 151.94 207.913 151.756 204.937 153.029 L 204.562 154.705 C 205.974 156.574 206.507 156.705 208.215 157.921 C 217.353 164.424 215.046 155.417 222.13 154.288 C 224.908 155.39 225.976 157.749 227.495 160.3 L 228.364 160.552 L 228.836 163.828 C 228.003 164.505 226.966 165.181 226.55 166.116 z"/>
<path transform="translate(0,0)" fill="rgb(220,227,228)" d="M 227.495 160.3 L 228.364 160.552 L 228.836 163.828 C 228.003 164.505 226.966 165.181 226.55 166.116 C 223.451 165.989 220.667 166.164 218.612 163.939 C 220.659 161.813 224.159 161.455 227.495 160.3 z"/>
<path transform="translate(0,0)" fill="rgb(44,43,45)" d="M 205.756 116.427 C 208.083 116.955 209.498 117.1 211.283 118.741 L 204.427 121.714 L 204.489 122.908 C 205.819 123.318 208.954 124.323 209.835 125.152 C 216.953 131.844 215.336 119.889 223.257 121.209 C 225.137 123.002 225.78 123.482 226.192 126.089 C 223.684 128.892 222.736 128.495 218.798 129.653 L 218.263 131.229 L 220.306 132.395 C 222.966 132.362 223.678 131.863 225.427 133.186 C 218.784 137.401 216.913 129.916 214.604 130.191 C 211.887 130.515 209.173 135.263 205.237 135.137 C 204.03 135.098 203.836 134.667 203.047 133.852 L 203.137 132.48 C 207.191 132.486 209.476 133.336 210.984 129.452 C 207.736 124.956 206.88 128.767 202.591 123.658 C 203.05 119.242 202.96 120.472 205.756 116.427 z"/>
<path transform="translate(0,0)" fill="rgb(74,70,70)" d="M 267.003 166.56 C 261.138 167.751 258.226 168.184 255.063 162.822 C 254.98 159.675 255.23 159.144 257.084 156.594 C 260.443 154.677 259.158 154.925 262.832 155.095 C 266.491 157.401 265.527 156.992 267.623 161.374 L 268.288 161.392 L 269.121 155.189 C 269.464 159.135 269.655 162.588 270.694 166.44 C 268.374 165.79 269.284 165.763 267.003 166.56 z"/>
<path transform="translate(0,0)" fill="rgb(220,227,228)" d="M 267.623 161.374 L 268.288 161.392 L 269.121 155.189 C 269.464 159.135 269.655 162.588 270.694 166.44 C 268.374 165.79 269.284 165.763 267.003 166.56 C 265.027 165.266 261.676 166.111 258.856 163.396 C 260.927 161.744 264.864 161.668 267.623 161.374 z"/>
<path transform="translate(0,0)" fill="rgb(74,70,70)" d="M 238.9 216.892 L 239.795 217.918 C 240.764 228.988 242.403 232.511 230.949 233.702 C 229.629 230.542 228.571 227.368 229.672 224.119 C 232.127 221.658 234.227 221.242 237.496 220.259 L 238.9 216.892 z"/>
<path transform="translate(0,0)" fill="rgb(220,227,228)" d="M 364.882 154.503 C 365.548 154.477 367.61 154.791 368.394 154.894 C 373.373 158.258 375.134 162.309 372.639 168.027 C 366.817 167.729 363.488 167.535 361.524 161.665 C 361.845 158.429 362.99 157.17 364.882 154.503 z"/>
<path transform="translate(0,0)" fill="rgb(44,43,45)" d="M 315.801 218.167 L 316.857 218.507 C 318.076 229.04 319.586 232.425 308.701 233.648 C 308.377 233.066 308.072 232.473 307.787 231.87 C 306.406 228.935 306.247 226.672 307.299 223.804 C 310.088 221.459 310.889 221.316 314.495 220.668 L 315.801 218.167 z"/>
<path transform="translate(0,0)" fill="rgb(44,43,45)" d="M 287.502 116.751 C 288.672 120.965 289.308 128.857 287.064 132.736 C 283.592 134.706 283.151 134.05 278.829 133.982 C 278.103 130.87 277.338 127.614 278.649 124.701 C 281.17 122.284 282.537 121.972 285.872 120.851 L 287.502 116.751 z"/>
<path transform="translate(0,0)" fill="rgb(44,43,45)" d="M 320.406 182.673 C 321.722 186.281 322.059 194.969 320.285 198.453 C 317.21 200.837 316.65 200.185 312.372 200.484 C 311.178 197.657 310.364 194.344 311.272 191.358 C 313.243 188.944 316.068 188.036 318.929 186.843 L 320.406 182.673 z"/>
<path transform="translate(0,0)" fill="rgb(255,255,255)" d="M 314.932 188.692 C 317.856 190.176 317.035 189.37 318.833 192.075 C 319.28 195.486 318.833 196.349 317.506 199.551 C 313.792 197.926 314.788 198.876 312.823 195.565 C 312.796 192.159 313.082 191.565 314.932 188.692 z"/>
<path transform="translate(0,0)" fill="rgb(44,43,45)" d="M 228.364 160.552 C 230.18 156.838 229.531 156.744 232.552 154.807 C 236.331 154.786 235.102 154.357 238.055 156.5 C 240.23 160.912 240.183 164.327 238.897 169.016 L 237.639 170.136 C 234.72 165.295 231.496 168.71 228.836 163.828 L 228.364 160.552 z"/>
<path transform="translate(0,0)" fill="rgb(44,43,45)" d="M 357.621 151.142 C 358.481 153.73 358.642 156.609 358.789 159.293 C 359.237 167.456 355.295 166.907 349.574 167.184 C 348.452 164.024 347.523 161.462 348.421 158.26 C 350.198 155.853 353.395 155.197 356.268 154.293 L 357.621 151.142 z"/>
<path transform="translate(0,0)" fill="rgb(74,70,70)" d="M 253.012 188.094 C 256.299 187.754 259.251 190.114 259.642 193.396 C 260.034 196.677 257.72 199.666 254.446 200.109 C 252.281 200.402 250.126 199.506 248.808 197.763 C 247.49 196.021 247.213 193.704 248.085 191.7 C 248.956 189.697 250.839 188.318 253.012 188.094 z"/>
<path transform="translate(0,0)" fill="rgb(44,43,45)" d="M 268.941 120.91 C 277.567 123.31 276.433 129.019 272.399 135.222 C 269.668 134.755 269.161 134.575 266.814 133.106 C 263.497 127.841 263.928 125.024 268.941 120.91 z"/>
<path transform="translate(0,0)" fill="rgb(44,43,45)" d="M 260.79 220.462 C 266.336 220.92 267.241 220.874 269.343 225.817 C 269.182 229.79 268.861 230.508 266.903 233.982 C 262.454 233.973 261.119 233.254 259.016 229.56 C 258.552 225.507 259.268 224.121 260.79 220.462 z"/>
<path transform="translate(0,0)" fill="rgb(74,70,70)" d="M 337.76 155.739 C 340.647 154.367 344.102 155.526 345.578 158.36 C 347.054 161.195 346.022 164.69 343.243 166.269 C 341.353 167.342 339.027 167.298 337.18 166.152 C 335.332 165.007 334.258 162.944 334.379 160.773 C 334.5 158.603 335.797 156.672 337.76 155.739 z"/>
<path transform="translate(0,0)" fill="rgb(74,70,70)" d="M 257.162 121.833 C 263.132 120.534 261.888 130.629 261.35 133.702 C 259.963 130.625 259.1 126.958 258.219 123.67 L 256.044 123.016 C 253.963 125.356 254.316 129.444 253.786 133.351 L 252.167 133.536 C 252.251 129.646 253.223 125.041 249.423 123.21 C 247.601 124.607 246.188 131.085 245.436 133.682 C 245.279 133.307 245.144 132.924 245.031 132.534 C 241.002 118.492 251.057 123.654 256.957 121.896 L 257.162 121.833 z"/>
<path transform="translate(0,0)" fill="rgb(44,43,45)" d="M 314.864 155.153 C 320.064 155.102 327.369 154.125 331.151 157.172 C 332.546 159.8 332.085 162.966 331.918 165.948 L 330.935 166.809 C 328.426 164.197 332.502 159.555 327.602 156.482 L 324.523 157.262 C 324.426 160.792 325.055 163.056 323.099 165.273 L 323.435 166.589 L 320.804 156.619 L 319.712 156.396 C 317.277 158.655 316.621 162.898 315.777 166.214 C 314.688 164.301 314.912 157.734 314.864 155.153 z"/>
<path transform="translate(0,0)" fill="rgb(74,70,70)" d="M 296.889 154.296 C 300.427 154.657 304.225 154.559 304.84 158.55 C 302.26 161.599 301.489 161.889 297.661 163.098 L 297.656 164.499 L 299.683 164.904 L 303.153 165.657 L 301.907 166.752 C 297.642 167.028 296.234 166.494 294.256 162.796 C 293.984 159.173 295.192 157.432 296.889 154.296 z"/>
<path transform="translate(0,0)" fill="rgb(44,43,45)" d="M 202.977 216.907 C 206.755 216.8 208.716 217.08 212.376 217.595 C 209.677 218.487 206.535 219.168 204.981 221.496 C 205.964 223.391 208.797 223.734 211.295 224.553 C 208.9 224.99 206.538 225.579 204.168 226.141 C 205.578 233.849 209.915 229.977 211.856 232.751 C 208.333 232.97 206.206 233.785 203.779 232.057 C 202.225 228.495 202.857 221.112 202.977 216.907 z"/>
<path transform="translate(0,0)" fill="rgb(74,70,70)" d="M 201.327 183.514 C 204.933 185.268 206.884 193.793 208.163 197.712 C 209.1 194.899 212.099 185.409 214.436 184.52 L 214.271 186.227 C 213.271 189.748 211.706 196.61 208.891 198.733 L 207.136 198.4 C 204.361 195.101 202.644 187.904 201.327 183.514 z"/>
<path transform="translate(0,0)" fill="rgb(74,70,70)" d="M 293.687 221.098 L 299.163 220.896 C 303.728 223.337 305.34 226.766 302.942 231.659 C 301.154 229.86 301.545 228.21 301.247 225.249 C 300.373 223.211 300.794 223.869 298.793 222.492 C 295.891 224.72 295.684 228.568 294.51 232.75 C 293.73 229.816 293.776 224.315 293.687 221.098 z"/>
<path transform="translate(0,0)" fill="rgb(74,70,70)" d="M 269.121 155.189 C 273.672 155.078 274.823 154.344 278.482 156.285 C 280.058 159.264 280.48 161.782 279.467 165.088 C 279.243 165.809 278.992 166.522 278.716 167.225 C 276.316 164.606 279.285 156.886 274.315 156.328 L 272.072 158.52 C 272.091 161.537 272.195 163.008 271.358 165.903 L 270.694 166.44 C 269.655 162.588 269.464 159.135 269.121 155.189 z"/>
<path transform="translate(0,0)" fill="rgb(44,43,45)" d="M 216.395 221.131 C 218.401 221.011 220.632 221.087 222.657 221.109 C 226.146 223.719 227.951 227.717 225.028 231.491 C 223.343 229.509 223.801 225.94 223.837 223.202 L 220.985 222.938 C 218.362 224.971 217.967 228.337 216.739 231.975 C 215.996 229 216.316 224.322 216.395 221.131 z"/>
<path transform="translate(0,0)" fill="rgb(74,70,70)" d="M 243.282 154.714 C 247.318 157.455 242.088 161.981 247.081 165.713 C 253.518 163.551 248.629 159.427 252.607 154.721 C 253.251 161.123 254.62 163.19 249.399 167.289 C 245.956 167.279 247.116 167.581 244.182 165.296 C 242.139 162.332 242.961 158.355 243.282 154.714 z"/>
<path transform="translate(0,0)" fill="rgb(74,70,70)" d="M 233.237 186.443 L 236.04 188.433 C 233.932 190.489 232.224 191.652 229.912 194.158 L 230.022 196.403 C 232.291 198.404 232.969 198.557 235.923 199.266 L 236.31 199.468 L 235.664 200.402 C 233.024 200.733 232.027 201.012 229.705 199.651 C 226.722 193.914 228.604 190.262 233.237 186.443 z"/>
<path transform="translate(0,0)" fill="rgb(44,43,45)" d="M 240.946 184.56 C 242.012 185.182 243.767 187.479 244.643 188.527 C 244.437 188.992 244.236 189.46 244.04 189.929 C 242.305 194.102 242.325 195.059 244.057 199.265 L 244.46 199.544 L 243.977 200.008 L 241.931 199.409 C 240.153 195.792 239.776 188.45 240.946 184.56 z"/>
<path transform="translate(0,0)" fill="rgb(44,43,45)" d="M 251.184 217.622 C 255.932 222.067 255.077 221.287 252.722 226.902 C 253.26 230.614 252.692 229.438 255.096 232.203 L 255.629 232.549 L 253.952 233.021 L 252.063 231.94 C 250.086 228.011 250.335 221.838 251.184 217.622 z"/>
<path transform="translate(0,0)" fill="rgb(74,70,70)" d="M 305.879 116.551 C 308.165 120.561 307.007 130.693 306.51 135.356 C 304.098 131.106 305.009 121.342 305.879 116.551 z"/>
<path transform="translate(0,0)" fill="rgb(74,70,70)" d="M 262.042 188.091 L 263.912 187.828 L 265.474 189.043 L 267.284 187.96 L 267.799 188.316 L 264.813 190.892 L 264.85 193.103 C 264.506 195.318 264.37 198.172 262.919 199.714 C 261.694 196.558 262.024 191.606 262.042 188.091 z"/>
<path transform="translate(0,0)" fill="rgb(196,117,170)" d="M 1244.18 278.127 L 1244.52 278.057 L 1245.34 278.777 C 1259.15 278.929 1272.97 278.782 1286.78 278.336 L 1287.48 278.812 C 1290.46 281.977 1305.77 297.843 1307.1 300.828 L 1265.23 300.948 L 1223.7 300.853 C 1226.38 296.923 1239.18 282.997 1242.96 278.671 L 1244.18 278.127 z"/>
<path transform="translate(0,0)" fill="rgb(179,101,140)" d="M 1244.18 278.127 L 1244.52 278.057 L 1245.34 278.777 C 1251.39 286.397 1258.75 293.545 1265.23 300.948 L 1223.7 300.853 C 1226.38 296.923 1239.18 282.997 1242.96 278.671 L 1244.18 278.127 z"/>
<path transform="translate(0,0)" fill="rgb(44,43,45)" d="M 53.0013 191.96 C 55.9355 191.907 67.912 191.462 69.615 192.698 C 65.0467 197.327 65.9856 195.188 65.7555 201.779 C 64.0598 204.11 60.787 205.295 58.045 205.699 C 51.0067 203.064 51.8437 198.117 53.0013 191.96 z"/>
<path transform="translate(0,0)" fill="rgb(255,255,255)" d="M 57.4444 193.594 C 61.3049 194.596 62.96 194.943 64.1507 198.857 C 62.3551 202.194 62.983 201.19 59.2877 203.349 C 56.4525 202.211 55.0798 201.903 53.6237 199.249 C 54.4989 195.636 54.3925 196.58 57.4444 193.594 z"/>
<path transform="translate(0,0)" fill="rgb(74,70,70)" d="M 1172.86 317.332 C 1181.53 321.962 1181.56 328.448 1176.02 336.225 C 1165.44 334.746 1167.16 323.496 1172.86 317.332 z"/>
<path transform="translate(0,0)" fill="rgb(255,255,255)" d="M 1173.12 319.719 C 1178.97 323.445 1177.3 329.171 1175.05 334.611 C 1169 332.095 1169.96 324.277 1173.12 319.719 z"/>
<path transform="translate(0,0)" fill="rgb(44,43,45)" d="M 987.937 317.449 C 997.712 321.331 996.567 329.261 990.81 336.474 C 980.944 333.995 982.876 323.847 987.937 317.449 z"/>
<path transform="translate(0,0)" fill="rgb(255,255,255)" d="M 988.153 319.623 C 994.444 323.083 992.674 329.024 990.394 334.606 C 983.993 330.018 985.68 326.225 988.153 319.623 z"/>
<path transform="translate(0,0)" fill="rgb(44,43,45)" d="M 98.1661 66.265 C 98.7852 66.4505 99.3993 66.6521 100.008 66.8697 C 108.692 69.992 105.799 78.1572 103.275 84.5629 C 91.7004 83.9724 93.5413 73.6061 98.1661 66.265 z"/>
<path transform="translate(0,0)" fill="rgb(255,255,255)" d="M 98.8372 68.2883 C 105.554 71.1334 103.45 78.3959 101.054 83.5105 C 95.014 79.8645 96.6616 73.784 98.8372 68.2883 z"/>
<path transform="translate(0,0)" fill="rgb(74,70,70)" d="M 98.1071 293.3 C 108.654 295.866 106.373 303.812 103.193 311.53 C 91.9712 310.798 93.2987 300.505 98.1071 293.3 z"/>
<path transform="translate(0,0)" fill="rgb(255,255,255)" d="M 98.8268 295.303 C 99.7604 295.713 101.12 296.821 101.99 297.478 C 104.317 302.461 103.243 305.023 101.562 310.118 C 94.9011 307.513 96.6036 300.468 98.8268 295.303 z"/>
<path transform="translate(0,0)" fill="rgb(44,43,45)" d="M 140.901 317.546 C 150.705 321.095 149.307 329.448 143.803 336.457 C 141.538 335.884 140.831 335.281 138.975 333.962 C 135.095 327.979 136.599 322.897 140.901 317.546 z"/>
<path transform="translate(0,0)" fill="rgb(255,255,255)" d="M 141.091 319.575 C 141.906 319.974 143.363 321.194 144.147 321.81 C 146.313 326.713 145.355 329.647 143.457 334.591 C 136.813 331.269 139.064 325.022 141.091 319.575 z"/>
<path transform="translate(0,0)" fill="rgb(44,43,45)" d="M 1596.11 317.494 C 1605.17 320.724 1605.11 329.882 1598.97 336.15 C 1596.64 335.844 1595.92 335.211 1594.04 333.902 C 1590.18 327.996 1591.92 322.695 1596.11 317.494 z"/>
<path transform="translate(0,0)" fill="rgb(255,255,255)" d="M 1596.22 319.686 C 1602.69 323.89 1601.07 328.078 1598.8 334.588 C 1591.69 333.054 1594.28 324.153 1596.22 319.686 z"/>
<path transform="translate(0,0)" fill="rgb(44,43,45)" d="M 1835.04 317.755 C 1845.02 320.623 1843.13 329.837 1837.85 336.428 C 1828.47 333.903 1829.4 323.854 1835.04 317.755 z"/>
<path transform="translate(0,0)" fill="rgb(255,255,255)" d="M 1835.15 319.578 C 1841.73 323.575 1839.69 328.085 1837.81 334.58 C 1830.77 331.95 1833.18 324.857 1835.15 319.578 z"/>
<path transform="translate(0,0)" fill="rgb(44,43,45)" d="M 1808.08 317.706 C 1809.5 318.126 1811.15 319.254 1812.44 320.05 C 1816.54 325.88 1815.21 330.899 1810.96 336.27 C 1800.91 334.106 1802.3 324.038 1808.08 317.706 z"/>
<path transform="translate(0,0)" fill="rgb(255,255,255)" d="M 1808.18 319.552 C 1809.25 319.978 1810.37 320.993 1811.29 321.746 C 1813.24 326.755 1812.31 329.7 1810.57 334.737 C 1803.84 331.249 1805.73 325.227 1808.18 319.552 z"/>
<path transform="translate(0,0)" fill="rgb(44,43,45)" d="M 1186.9 317.394 C 1195.34 322.054 1195.03 330.5 1188.2 336.614 C 1179.41 332.544 1180.6 323.389 1186.9 317.394 z"/>
<path transform="translate(0,0)" fill="rgb(255,255,255)" d="M 1186.6 319.461 C 1192.66 324.049 1191.09 328.672 1188.45 335.025 C 1182.38 331.402 1183.97 324.737 1186.6 319.461 z"/>
<path transform="translate(0,0)" fill="rgb(44,43,45)" d="M 564.852 317.538 C 573.952 321.399 572.959 330.05 567.087 336.578 C 565.049 335.971 563.985 334.975 562.323 333.684 C 558.924 327.681 559.94 322.369 564.852 317.538 z"/>
<path transform="translate(0,0)" fill="rgb(255,255,255)" d="M 564.927 319.499 C 570.968 324.362 569.494 327.986 567.033 334.727 C 560.956 331.728 562.01 324.473 564.927 319.499 z"/>
<path transform="translate(0,0)" fill="rgb(44,43,45)" d="M 1411.86 317.632 C 1420.91 321.156 1420.15 330.168 1414.1 336.376 C 1404.92 333.512 1405.86 323.534 1411.86 317.632 z"/>
<path transform="translate(0,0)" fill="rgb(255,255,255)" d="M 1411.86 319.451 C 1418.18 322.962 1416.11 329.19 1414.16 334.706 C 1407.96 331.782 1409.04 324.507 1411.86 319.451 z"/>
<path transform="translate(0,0)" fill="rgb(44,43,45)" d="M 974.854 317.4 C 983.539 321.636 983.579 330.982 976.15 336.639 C 967.876 332.315 968.996 323.422 974.854 317.4 z"/>
<path transform="translate(0,0)" fill="rgb(255,255,255)" d="M 975.034 319.623 C 980.837 324.519 979.504 328.155 976.936 334.676 C 970.459 332.226 971.891 324.259 975.034 319.623 z"/>
<path transform="translate(0,0)" fill="rgb(74,70,70)" d="M 338.604 317.59 C 341.29 318.133 341.826 318.279 343.92 320.045 C 346.216 326.291 346.962 331.331 342.286 336.155 C 338.384 335.129 338.781 335.825 336.259 333.282 C 334.733 329.154 335.131 320.695 338.604 317.59 z"/>
<path transform="translate(0,0)" fill="rgb(44,43,45)" d="M 961.009 317.715 C 962.249 318.272 963.905 319.217 965.151 319.875 C 969.271 325.469 968.162 331.018 963.845 336.206 C 953.893 334.321 955.422 323.894 961.009 317.715 z"/>
<path transform="translate(0,0)" fill="rgb(255,255,255)" d="M 961.127 319.529 C 961.956 319.927 963.432 321.169 964.226 321.796 C 966.224 326.77 965.313 329.692 963.381 334.614 C 956.746 331.851 958.766 324.568 961.127 319.529 z"/>
<path transform="translate(0,0)" fill="rgb(44,43,45)" d="M 96.3328 112.377 C 97.5363 112.415 100.819 112.487 101.74 112.969 C 106.47 115.443 105.978 125.482 104.053 129.517 C 100.133 129.971 99.14 129.878 96.3279 127.833 C 94.1829 123.711 95.5871 117.036 96.3328 112.377 z"/>
<path transform="translate(0,0)" fill="rgb(44,43,45)" d="M 1385.03 317.383 C 1393.91 322.317 1392.78 329.961 1386.06 336.099 C 1377.16 333.29 1379.48 322.871 1385.03 317.383 z"/>
<path transform="translate(0,0)" fill="rgb(255,255,255)" d="M 1384.98 319.368 C 1385.45 319.63 1387.01 321.027 1387.5 321.447 C 1388.78 326.098 1388.58 330.342 1386.57 334.75 C 1380.73 331.539 1381.96 324.206 1384.98 319.368 z"/>
<path transform="translate(0,0)" fill="rgb(44,43,45)" d="M 127.465 317.416 C 135.256 320.348 135.358 330.113 131.221 335.925 C 128.731 335.749 128.036 335.444 125.749 334.568 C 122.014 329.327 123.31 321.92 127.465 317.416 z"/>
<path transform="translate(0,0)" fill="rgb(44,43,45)" d="M 537.081 317.619 C 545.127 320.102 546.917 329.268 540.318 334.614 C 537.116 335.854 536.323 335.577 533.002 334.602 C 536.469 334.156 538.326 334.047 540.338 331.632 C 537.679 329.364 533.859 327.232 533.237 324.172 C 533.712 320.863 534.732 320.05 537.081 317.619 z"/>
<path transform="translate(0,0)" fill="rgb(44,43,45)" d="M 748.898 317.745 C 758.844 320.668 759.74 337.17 744.671 334.804 C 747.955 334.345 750.221 334.036 752.276 331.688 C 748.773 328.368 746.705 328.215 745.051 324.197 C 745.563 320.858 746.481 320.157 748.898 317.745 z"/>
<path transform="translate(0,0)" fill="rgb(44,43,45)" d="M 550.823 317.681 C 561.026 321.233 559.919 335.802 549.409 335.346 L 549.917 334.427 C 550.924 334.124 552.715 333.095 553.716 332.563 C 555.067 328.814 549.383 330.83 546.853 324.266 C 547.36 320.869 548.343 320.118 550.823 317.681 z"/>
<path transform="translate(0,0)" fill="rgb(44,43,45)" d="M 113.888 317.64 C 122.955 321.117 123.856 334.955 112.402 335.252 L 112.929 334.427 C 116.096 333.013 115.841 333.714 117.206 331.081 C 113.576 328.891 111.279 327.85 109.746 324.272 C 110.35 320.767 111.25 320.089 113.888 317.64 z"/>
<path transform="translate(0,0)" fill="rgb(44,43,45)" d="M 56.7365 207.39 C 61.3258 209.556 57.4405 214.201 60.073 218.766 L 61.8275 218.741 C 63.9015 216.759 64.2887 212.506 64.8507 209.548 C 66.3447 210.884 66.5102 214.16 66.8225 216.278 C 66.0715 217.305 65.0237 218.682 64.1085 219.538 C 62.5317 221.009 60.4209 221.768 58.2689 221.639 C 49.5599 221.198 50.4176 212.832 56.7365 207.39 z"/>
<path transform="translate(0,0)" fill="rgb(44,43,45)" d="M 47.4088 233.564 C 50.9636 237.202 47.4584 237.413 50.0883 241.634 L 53.0178 242.107 C 55.4363 240.349 54.3549 238.515 55.8498 234.703 L 57.1231 235.864 L 56.9559 240.612 L 57.8436 241.563 L 61.0496 240.373 C 63.9205 241.662 64.2179 241.207 65.4013 243.512 C 62.1194 245.938 51.9722 244.696 47.9487 244.299 C 46.5016 241.999 47.2498 236.56 47.4088 233.564 z"/>
<path transform="translate(0,0)" fill="rgb(44,43,45)" d="M 51.2078 175.508 C 58.4412 174.474 61.9117 172.925 66.3361 179.384 C 66.0913 187.736 60.5203 187.233 53.9402 187.294 L 52.5838 186.596 L 52.974 185.398 C 57.4233 184.973 62.7884 185.567 64.2661 181.054 C 61.4822 174.176 56.3813 179.33 51.2078 175.508 z"/>
<path transform="translate(0,0)" fill="rgb(44,43,45)" d="M 53.8238 141.074 C 58.6078 140.831 60.6207 141.064 65.3252 141.663 C 62.0701 142.47 55.5871 143.53 53.6528 145.847 C 54.0167 148.865 53.5325 147.956 55.4322 150.274 L 57.85 150.484 C 60.7664 150.572 61.7142 150.565 64.4864 151.464 L 64.2209 152.394 C 59.0322 154.523 54.1959 153.928 51.6218 148.77 C 51.7121 144.991 51.7977 144.248 53.8238 141.074 z"/>
<path transform="translate(0,0)" fill="rgb(74,70,70)" d="M 772.725 318.682 C 776.102 318.663 777.463 318.72 780.781 319.306 C 779.431 320.35 777.116 320.905 775.427 321.425 C 775.456 324.061 778.565 324.361 782.048 327.887 C 782.723 331.926 782.584 330.639 780.773 335.048 L 778.087 335.662 L 776.454 334.382 L 774.503 335.562 L 774.02 335.006 C 777.103 333.368 779.922 332.334 779.805 328.614 C 777.6 326.057 778.264 326.764 774.386 326.16 C 772.32 323.582 772.913 322.416 772.725 318.682 z"/>
<path transform="translate(0,0)" fill="rgb(74,70,70)" d="M 1619.72 318.68 C 1622.14 318.689 1625.99 318.402 1627.94 319.542 C 1626.13 320.334 1624.34 320.999 1622.49 321.695 C 1622.74 325.273 1625.6 323.166 1629.18 328.145 C 1630.02 331.029 1629.01 332.503 1627.71 335.24 L 1625.26 335.506 L 1623.84 334.094 L 1624.08 335.621 L 1621.33 335.257 L 1620.93 334.664 C 1624.43 333.215 1627.17 332.654 1626.9 328.583 C 1624.6 325.993 1625.47 326.685 1621.5 326.198 C 1619.35 323.568 1619.95 322.499 1619.72 318.68 z"/>
<path transform="translate(0,0)" fill="rgb(44,43,45)" d="M 349.538 318.638 C 352.049 318.7 354.898 319.038 357.429 319.281 C 355.515 320.199 353.578 320.872 351.589 321.603 C 351.529 325.452 356.857 323.717 358.993 328.785 C 359.201 332.015 358.101 333.095 356.143 335.718 C 353.617 335.646 351.957 335.767 349.671 334.641 C 353.525 333.441 355.435 332.94 356.691 329.039 L 355.297 326.938 L 350.84 326.15 C 348.743 323.511 349.471 322.56 349.538 318.638 z"/>
<path transform="translate(0,0)" fill="rgb(74,70,70)" d="M 1820.25 317.816 C 1822.5 318.249 1823.64 318.86 1825.68 319.804 C 1830.02 326.288 1822.14 328.08 1821.69 332.919 L 1826.44 333.53 L 1826.93 334.541 L 1824.78 336.275 C 1821.91 335.876 1820.43 335.888 1818.29 333.928 C 1818.82 328.529 1824.83 329.132 1825.21 322.855 C 1821.41 318.984 1820.74 322.444 1818.18 320.325 L 1820.25 317.816 z"/>
<path transform="translate(0,0)" fill="rgb(44,43,45)" d="M 1793.45 317.618 C 1796.34 318.488 1796.87 318.744 1799.22 320.622 C 1802.01 328.071 1794.48 328.109 1794.35 332.726 L 1799.14 333.611 L 1799.65 334.693 L 1793.15 336.177 L 1791.15 334.657 C 1791.74 328.876 1796.88 329.576 1797.95 322.546 L 1796.82 321.212 C 1794.65 321.001 1792.82 320.856 1790.63 320.794 L 1791.83 318.887 L 1790.77 320.685 C 1791.93 320.625 1790.09 319.853 1793.45 317.618 z"/>
<path transform="translate(0,0)" fill="rgb(44,43,45)" d="M 946.328 317.506 C 948.016 318.178 949.862 319.106 951.521 319.891 C 956.717 326.989 947.664 325.307 947.823 333.164 L 951.815 333.823 L 952.152 334.605 L 950.151 334.733 L 949.766 336.602 L 948.412 336.802 L 944.673 334.77 C 944.167 330.967 951.481 324.763 951.043 321.025 C 947.881 319.728 946.386 322.09 943.677 320.424 L 946.328 317.506 z"/>
<path transform="translate(0,0)" fill="rgb(44,43,45)" d="M 53.3302 124.693 C 54.4154 128.855 52.6866 132.642 58.4006 134.878 C 62.7966 133.821 64.0307 130.332 64.8502 126.329 L 66.8134 127.216 C 64.7686 143.765 47.1864 137.772 53.3302 124.693 z"/>
<path transform="translate(0,0)" fill="rgb(74,70,70)" d="M 308.98 319.112 C 319.611 317.444 312.783 326.696 315.243 332.451 C 315.099 332.113 317.319 333.626 317.911 334.451 L 313.334 336.965 C 311.786 336.168 311.299 335.981 310.174 334.668 C 312.289 332.052 312.63 325.353 311.665 322.175 C 310.151 321.227 309.911 320.658 308.98 319.112 z"/>
<path transform="translate(0,0)" fill="rgb(44,43,45)" d="M 522.449 319.973 C 524.655 319.055 523.809 319.083 525.945 319.596 C 527.39 322.644 525.492 327.089 526.321 332.124 L 529.613 334.3 L 527.771 336.064 L 521.585 334.718 C 521.744 334.542 521.901 334.363 522.057 334.184 C 527.211 328.234 522.683 323.127 522.449 319.973 z"/>
<path transform="translate(0,0)" fill="rgb(44,43,45)" d="M 732.738 319.234 L 735.647 318.937 C 740.469 321.819 736.749 329.485 741.084 334.451 L 739.757 336.029 L 735.321 335.276 C 733.119 333.392 737.135 328.178 736.133 324.095 C 735.01 319.512 734.638 323.278 732.738 319.234 z"/>
<path transform="translate(0,0)" fill="rgb(44,43,45)" d="M 81.8796 67.5572 C 92.486 67.8967 85.6919 78.435 90.3196 82.6484 L 89.5332 84.5095 C 87.0469 84.2594 85.893 84.5956 84.26 83.2341 C 86.0068 75.0369 88.7302 73.5121 81.8796 67.5572 z"/>
<path transform="translate(0,0)" fill="rgb(44,43,45)" d="M 98.9416 319.763 C 100.113 319.021 100.45 319.31 101.547 319.343 C 104.497 319.432 102.299 330.231 103.175 332.495 C 103.165 332.467 105.005 333.214 105.976 334.441 L 101.114 336.841 L 98.1663 334.936 C 102.019 328.33 102.224 329.053 99.7815 321.367 L 98.6068 320.867 L 98.9416 319.763 z"/>
<path transform="translate(0,0)" fill="rgb(44,43,45)" d="M 51.94 222.68 C 52.7968 223.817 53.5172 224.84 54.2731 226.051 C 57.3118 230.92 62.0978 227.337 66.2686 230.727 C 62.6227 231.072 58.3257 231.679 54.7609 231.105 C 51.7526 228.479 52.5265 227.475 51.94 222.68 z"/>
</svg>
